<svg xmlns="http://www.w3.org/2000/svg" width="17.132" height="17.262" viewBox="0 0 17.132 17.262">
  <g id="interface" transform="translate(0.25 0.381)">
    <path id="Контур_1026" data-name="Контур 1026" d="M11.954,99.149H1.906A1.907,1.907,0,0,1,0,97.243V87.195a1.907,1.907,0,0,1,1.906-1.906H7.8a.52.52,0,0,1,0,1.039H1.906a.867.867,0,0,0-.866.866V97.243a.867.867,0,0,0,.866.866H11.954a.867.867,0,0,0,.866-.866v-5.89a.52.52,0,1,1,1.039,0v5.89A1.907,1.907,0,0,1,11.954,99.149Zm0,0" transform="translate(0 -82.519)" fill="#9677f1" stroke="#9677f1" stroke-width="0.5"/>
    <path id="Контур_1027" data-name="Контур 1027" d="M171.665,11.07a.52.52,0,0,1-.509-.622l.49-2.45a.518.518,0,0,1,.142-.265L178.965.556a1.905,1.905,0,1,1,2.694,2.694l-7.176,7.177a.516.516,0,0,1-.265.142l-2.45.49A.512.512,0,0,1,171.665,11.07Zm2.45-1.01h0Zm-1.482-1.7-.306,1.531,1.531-.306,7.066-7.066A.866.866,0,0,0,179.7,1.291Zm0,0" transform="translate(-165.586 0.001)" fill="#9677f1" stroke="#9677f1" stroke-width="0.5"/>
    <path id="Контур_1028" data-name="Контур 1028" d="M379.487,45.61a.515.515,0,0,1-.367-.153l-1.96-1.96a.52.52,0,1,1,.735-.735l1.96,1.96a.52.52,0,0,1-.368.888Zm0,0" transform="translate(-364.761 -41.225)" fill="#9677f1" stroke="#9677f1" stroke-width="0.5"/>
  </g>
</svg>
