<svg id="Favorites_sign" data-name="Favorites sign" xmlns="http://www.w3.org/2000/svg" width="40" height="40" viewBox="0 0 40 40">
  <rect id="Прямоугольник_448" data-name="Прямоугольник 448" width="40" height="40" transform="translate(0)" fill="none"/>
  <path id="star_1_" data-name="star (1)" d="M19.947,7.738a1.062,1.062,0,0,0-.914-.73L13.26,6.484,10.978,1.142a1.063,1.063,0,0,0-1.956,0L6.741,6.484.966,7.008a1.064,1.064,0,0,0-.6,1.86l4.364,3.827L3.44,18.362a1.063,1.063,0,0,0,1.582,1.149L10,16.535l4.977,2.977a1.064,1.064,0,0,0,1.583-1.149l-1.287-5.668,4.364-3.827A1.064,1.064,0,0,0,19.947,7.738ZM10.1,16.477" transform="translate(10.455 9.985)" fill="none" stroke="#9677f1" stroke-width="2"/>
</svg>
