<svg id="FavoriteQuick" xmlns="http://www.w3.org/2000/svg" xmlns:xlink="http://www.w3.org/1999/xlink" width="48" height="48" viewBox="0 0 48 48">
  <defs>
    <linearGradient id="linear-gradient" x1="1" x2="0" y2="1" gradientUnits="objectBoundingBox">
      <stop offset="0" stop-color="#ce9ffc"/>
      <stop offset="1" stop-color="#7367f0"/>
    </linearGradient>
  </defs>
  <rect id="Rectangle_408" data-name="Rectangle 408" width="48" height="48" rx="19" fill="url(#linear-gradient)"/>
  <g id="FavIcon" transform="translate(9 9)">
    <rect id="Rectangle_523" data-name="Rectangle 523" width="30" height="30" fill="none"/>
    <path id="star_1_" data-name="star (1)" d="M18.95,7.376a1.009,1.009,0,0,0-.868-.693l-5.485-.5L10.429,1.11a1.01,1.01,0,0,0-1.858,0L6.4,6.184l-5.486.5A1.011,1.011,0,0,0,.344,8.449L4.49,12.085,3.268,17.469a1.01,1.01,0,0,0,1.5,1.092L9.5,15.733l4.729,2.828a1.011,1.011,0,0,0,1.5-1.092l-1.222-5.384,4.146-3.635A1.011,1.011,0,0,0,18.95,7.376Zm-9.359,8.3" transform="translate(5.258 5.185)" fill="#fff" stroke="#fff" stroke-width="2"/>
  </g>
</svg>
