<svg id="Icon" xmlns="http://www.w3.org/2000/svg" width="30" height="30" viewBox="0 0 30 30">
  <rect id="Rectangle_523" data-name="Rectangle 523" width="30" height="30" fill="none"/>
  <g id="Friends_sign" data-name="Friends sign" transform="translate(-923 6)" fill="none" stroke-linecap="round" stroke-linejoin="round">
    <path d="M930,18c-1.488-1.4.389-8.128,8.355-8.128S948.46,16.541,947,18c-.722.722-4.526,1.072-8.366,1.072C934.711,19.072,930.751,18.707,930,18Zm4-13.5A4.5,4.5,0,1,1,938.5,9,4.5,4.5,0,0,1,934,4.5Z" stroke="none"/>
    <path d="M 938.6340942382813 17.07167625427246 C 940.3413696289063 17.07167625427246 942.008544921875 16.99868774414063 943.3285522460938 16.86614799499512 C 944.4282836914063 16.7557258605957 945.06982421875 16.62868690490723 945.4235229492188 16.5372257232666 C 945.3873901367188 16.10623931884766 945.1781005859375 15.33205127716064 944.5318603515625 14.48097705841064 C 943.7919921875 13.50664710998535 942.0056762695313 11.87209701538086 938.3544311523438 11.87209701538086 C 934.7749633789063 11.87209701538086 933.0687866210938 13.46702766418457 932.370361328125 14.41774749755859 C 931.7383422851563 15.27807331085205 931.5532836914063 16.08168792724609 931.5332641601563 16.51335144042969 C 932.5338745117188 16.77205657958984 935.0713500976563 17.07165145874023 938.6334228515625 17.07167625427246 L 938.6340942382813 17.07167625427246 M 938.500244140625 6.999997138977051 C 939.8787231445313 6.999997138977051 941.000244140625 5.878497123718262 941.000244140625 4.499997138977051 C 941.000244140625 3.12149715423584 939.8787231445313 1.99999725818634 938.500244140625 1.99999725818634 C 937.1217651367188 1.99999725818634 936.000244140625 3.12149715423584 936.000244140625 4.499997138977051 C 936.000244140625 5.878497123718262 937.1217651367188 6.999997138977051 938.500244140625 6.999997138977051 M 938.6340942382813 19.07167625427246 C 938.6338500976563 19.07167625427246 938.6336669921875 19.07167625427246 938.6334228515625 19.07167625427246 C 934.7113647460938 19.07164764404297 930.7514038085938 18.7066478729248 929.9996948242188 17.99999809265137 C 928.5120239257813 16.60139656066895 930.3885498046875 9.872097015380859 938.3544311523438 9.872097015380859 C 946.3212280273438 9.872097015380859 948.4595947265625 16.54109764099121 946.9998168945313 17.99999809265137 C 946.278076171875 18.72175407409668 942.474365234375 19.07167625427246 938.6340942382813 19.07167625427246 Z M 938.500244140625 8.999997138977051 C 936.014404296875 8.999997138977051 934.000244140625 6.984897136688232 934.000244140625 4.499997138977051 C 934.000244140625 2.015097141265869 936.014404296875 -2.799377398332581e-06 938.500244140625 -2.799377398332581e-06 C 940.985107421875 -2.799377398332581e-06 943.000244140625 2.015097141265869 943.000244140625 4.499997138977051 C 943.000244140625 6.984897136688232 940.985107421875 8.999997138977051 938.500244140625 8.999997138977051 Z" stroke="none" fill="#6d7188"/>
  </g>
</svg>
