<svg id="StatsQuick" xmlns="http://www.w3.org/2000/svg" xmlns:xlink="http://www.w3.org/1999/xlink" width="48" height="48" viewBox="0 0 48 48">
  <defs>
    <linearGradient id="linear-gradient" x1="1" x2="0" y2="1" gradientUnits="objectBoundingBox">
      <stop offset="0" stop-color="#ce9ffc"/>
      <stop offset="1" stop-color="#7367f0"/>
    </linearGradient>
  </defs>
  <rect id="Rectangle_408" data-name="Rectangle 408" width="48" height="48" rx="19" fill="url(#linear-gradient)"/>
  <g id="Icon" transform="translate(9 9)">
    <rect id="Rectangle_523" data-name="Rectangle 523" width="30" height="30" fill="none"/>
    <g id="Stats_sign" data-name="Stats sign" transform="translate(-926 7.5)" fill="#fff" stroke-linejoin="round">
      <path d="M 944.5004272460938 11.99970054626465 L 944.4996337890625 11.99960041046143 C 944.4988403320313 11.99960041046143 944.4984741210938 11.99956035614014 944.4984741210938 11.99954986572266 L 944.4996948242188 0.9999003410339355 L 944.5004272460938 11.99970054626465 Z M 940.4999389648438 11.99959945678711 C 940.4989624023438 11.99959754943848 940.49853515625 11.99954032897949 940.49853515625 11.99953079223633 L 940.5001220703125 6.000300407409668 L 940.4999389648438 11.99970054626465 L 940.4999389648438 11.99959945678711 Z M 936.5003051757813 11.99959945678711 C 936.4993286132813 11.99959468841553 936.4988403320313 11.99953079223633 936.4988403320313 11.99953079223633 L 936.4996337890625 2.999700307846069 L 936.5003051757813 11.99970054626465 L 936.5003051757813 11.99959945678711 Z M 932.4998168945313 11.99959945678711 C 932.4989013671875 11.99959468841553 932.4984130859375 11.99953079223633 932.4984130859375 11.99953079223633 L 932.5 7.000200271606445 L 932.4998168945313 11.99970054626465 L 932.4998168945313 11.99959945678711 Z M 948.5 11.99959945678711 C 948.4990844726563 11.99959373474121 948.4986572265625 11.99953079223633 948.4985961914063 11.99953079223633 L 948.500244140625 3.410339388665307e-07 L 948.5 11.99970054626465 L 948.5 11.99959945678711 Z" stroke="none"/>
      <path d="M 951.0003051757813 16.49970054626465 L 930.9996337890625 16.49970054626465 C 930.4479370117188 16.49970054626465 929.9996948242188 16.05240058898926 929.9996948242188 15.49980068206787 C 929.9996948242188 14.94810009002686 930.4479370117188 14.49990081787109 930.9996337890625 14.49990081787109 L 951.0003051757813 14.49990081787109 C 951.552001953125 14.49990081787109 952.000244140625 14.94810009002686 952.000244140625 15.49980068206787 C 952.000244140625 16.05240058898926 951.552001953125 16.49970054626465 951.0003051757813 16.49970054626465 Z M 948.5001220703125 12.99960041046143 C 947.947509765625 12.99960041046143 947.500244140625 12.55230045318604 947.500244140625 11.99970054626465 L 947.500244140625 3.410339388665307e-07 C 947.500244140625 -0.5525996685028076 947.947509765625 -0.999899685382843 948.5001220703125 -0.999899685382843 C 949.052734375 -0.999899685382843 949.5 -0.5525996685028076 949.5 3.410339388665307e-07 L 949.5 11.99970054626465 C 949.5 12.55230045318604 949.052734375 12.99960041046143 948.5001220703125 12.99960041046143 Z M 944.4996337890625 12.99960041046143 C 943.9479370117188 12.99960041046143 943.4996948242188 12.55230045318604 943.4996948242188 11.99970054626465 L 943.4996948242188 0.9999003410339355 C 943.4996948242188 0.4473003447055817 943.9479370117188 3.410339388665307e-07 944.4996337890625 3.410339388665307e-07 C 945.05224609375 3.410339388665307e-07 945.5004272460938 0.4473003447055817 945.5004272460938 0.9999003410339355 L 945.5004272460938 11.99970054626465 C 945.5004272460938 12.55230045318604 945.05224609375 12.99960041046143 944.4996337890625 12.99960041046143 Z M 940.5 12.99960041046143 C 939.9474487304688 12.99960041046143 939.5001220703125 12.55230045318604 939.5001220703125 11.99970054626465 L 939.5001220703125 6.000300407409668 C 939.5001220703125 5.447700500488281 939.9474487304688 5.000400543212891 940.5 5.000400543212891 C 941.0526123046875 5.000400543212891 941.4999389648438 5.447700500488281 941.4999389648438 6.000300407409668 L 941.4999389648438 11.99970054626465 C 941.4999389648438 12.55230045318604 941.0526123046875 12.99960041046143 940.5 12.99960041046143 Z M 936.5004272460938 12.99960041046143 C 935.9478149414063 12.99960041046143 935.4996337890625 12.55230045318604 935.4996337890625 11.99970054626465 L 935.4996337890625 2.999700307846069 C 935.4996337890625 2.448000431060791 935.9478149414063 1.999800324440002 936.5004272460938 1.999800324440002 C 937.0521240234375 1.999800324440002 937.5003051757813 2.448000431060791 937.5003051757813 2.999700307846069 L 937.5003051757813 11.99970054626465 C 937.5003051757813 12.55230045318604 937.0521240234375 12.99960041046143 936.5004272460938 12.99960041046143 Z M 932.4999389648438 12.99960041046143 C 931.9473266601563 12.99960041046143 931.5 12.55230045318604 931.5 11.99970054626465 L 931.5 7.000200271606445 C 931.5 6.447600364685059 931.9473266601563 6.000300407409668 932.4999389648438 6.000300407409668 C 933.0525512695313 6.000300407409668 933.4998168945313 6.447600364685059 933.4998168945313 7.000200271606445 L 933.4998168945313 11.99970054626465 C 933.4998168945313 12.55230045318604 933.0525512695313 12.99960041046143 932.4999389648438 12.99960041046143 Z" stroke="none" fill="#fff"/>
    </g>
  </g>
</svg>
