<svg id="visibility" xmlns="http://www.w3.org/2000/svg" width="20" height="13.636" viewBox="0 0 20 13.636">
  <g id="Group_46" data-name="Group 46">
    <g id="Group_45" data-name="Group 45">
      <path id="Path_1056" data-name="Path 1056" d="M174.031,170.667a3.364,3.364,0,1,0,3.364,3.364A3.366,3.366,0,0,0,174.031,170.667Z" transform="translate(-164.031 -167.212)" fill="#eeedf3"/>
      <path id="Path_1057" data-name="Path 1057" d="M10,74.667A10.752,10.752,0,0,0,0,81.485a10.742,10.742,0,0,0,20,0A10.747,10.747,0,0,0,10,74.667Zm0,11.364a4.545,4.545,0,1,1,4.545-4.545A4.547,4.547,0,0,1,10,86.031Z" transform="translate(0 -74.667)" fill="#eeedf3"/>
    </g>
  </g>
</svg>
