<svg id="VK" xmlns="http://www.w3.org/2000/svg" width="40" height="40" viewBox="0 0 40 40">
  <circle id="Ellipse_30" data-name="Ellipse 30" cx="20" cy="20" r="20" fill="#c0bfd3" opacity="0.505"/>
  <g id="XMLID_1_" transform="translate(9.919 14.765)">
    <path id="XMLID_807_" d="M17.213,73.291a27.3,27.3,0,0,1,1.959,1.98,5.754,5.754,0,0,1,.7,1.017c.27.525.025,1.1-.443,1.135H16.517a2.244,2.244,0,0,1-1.855-.758c-.4-.413-.777-.853-1.165-1.279a2.763,2.763,0,0,0-.524-.468.607.607,0,0,0-.97.237,3.09,3.09,0,0,0-.307,1.366c-.031.69-.239.871-.928.9a7.42,7.42,0,0,1-4.169-.9,9.23,9.23,0,0,1-2.805-2.64A35.592,35.592,0,0,1,.1,67.266c-.233-.521-.063-.8.51-.811.951-.019,1.9-.017,2.853,0a.838.838,0,0,1,.791.6,17.8,17.8,0,0,0,1.933,3.6,3.065,3.065,0,0,0,.73.807.443.443,0,0,0,.754-.223,2.509,2.509,0,0,0,.168-.755,11.3,11.3,0,0,0-.047-2.647,1.1,1.1,0,0,0-.935-1.01c-.278-.053-.237-.157-.1-.317a1.046,1.046,0,0,1,.894-.447h3.293c.518.1.634.337.7.861l0,3.676c-.006.2.1.805.465.94.291.1.483-.138.658-.324a11.406,11.406,0,0,0,1.854-2.864c.223-.453.415-.923.6-1.392a.705.705,0,0,1,.744-.512l3.169,0a1.663,1.663,0,0,1,.28.017c.534.091.68.322.515.847a7.963,7.963,0,0,1-1.26,2.2c-.529.735-1.094,1.445-1.618,2.184-.482.675-.443,1.016.155,1.6Zm0,0" transform="translate(0 -66.058)" fill="#fff" fill-rule="evenodd"/>
  </g>
</svg>
