<svg xmlns="http://www.w3.org/2000/svg" width="40" height="40" viewBox="0 0 40 40">
  <g id="Notification" transform="translate(0.13)">
    <rect id="Прямоугольник_382" data-name="Прямоугольник 382" width="40" height="40" transform="translate(-0.13)" fill="none"/>
    <g id="bell" transform="translate(8.87 9)">
      <g id="Сгруппировать_2" data-name="Сгруппировать 2">
        <path id="Контур_1" data-name="Контур 1" d="M23.111,14.212a2.163,2.163,0,0,0-.085-.35,2.222,2.222,0,0,0-2.465-1.439.644.644,0,0,1-.736-.536L19.29,8.468a7.456,7.456,0,0,0-5.343-6.057,2.875,2.875,0,0,0-5.683.874,7.194,7.194,0,0,0-3.259,7.2l.573,3.639a.649.649,0,0,1-.536.736,2.223,2.223,0,0,0-1.9,2.127,2.163,2.163,0,0,0,2.141,2.186H5.3a2.219,2.219,0,0,0,.337-.026l2.22-.349a2.861,2.861,0,0,0,5.3-.834l8.152-1.283A2.163,2.163,0,0,0,23.111,14.212ZM10.9,1.533a1.515,1.515,0,0,1,.227-.018,1.449,1.449,0,0,1,1.2.649H12.29a6.873,6.873,0,0,0-.806.023,7.324,7.324,0,0,0-.84.13c-.06.012-.119.03-.178.044-.227.053-.45.116-.668.19-.022.007-.044.01-.066.018A1.442,1.442,0,0,1,10.9,1.533Zm-.548,17.289a1.422,1.422,0,0,1-.849-.28l2.019-.317A1.442,1.442,0,0,1,10.348,18.822Zm11.24-3.9a.721.721,0,0,1-.5.337L12.4,16.626l-4.221.664-2.762.433a.712.712,0,0,1-.583-.166A.721.721,0,0,1,4.58,17a.782.782,0,0,1,.686-.711A2.091,2.091,0,0,0,7,13.9L6.43,10.265A5.784,5.784,0,0,1,9.348,4.311L9.384,4.3a5.769,5.769,0,0,1,2.231-.674,5.208,5.208,0,0,1,.712-.014l.118.006a5.671,5.671,0,0,1,.732.092H13.2a5.992,5.992,0,0,1,4.661,4.983l.538,3.419a2.086,2.086,0,0,0,2.384,1.737.782.782,0,0,1,.871.464A.721.721,0,0,1,21.588,14.923Z" transform="translate(-3.137 0.001)" fill="#6d7188" stroke="#6d7188" stroke-width="0.5"/>
      </g>
    </g>
  </g>
</svg>
