<svg xmlns="http://www.w3.org/2000/svg" width="370.826" height="201.292" viewBox="0 0 370.826 201.292">
  <g id="undraw_page_not_found_su7k" transform="translate(0.312)">
    <ellipse id="Ellipse_68" data-name="Ellipse 68" cx="181.746" cy="12.032" rx="181.746" ry="12.032" transform="translate(4.529 177.228)" fill="#f2f2f2"/>
    <path id="Path_1255" data-name="Path 1255" d="M486.7,324.894c-29.611,0-50.872,19-50.872,63.326,0,50.239,21.261,63.537,50.872,63.537s52.138-14.565,52.138-63.537C538.839,335.871,516.312,324.894,486.7,324.894Zm.195,110.187c-20.509,0-31.224-12.032-31.224-46.829,0-30.7,11.154-46.894,31.663-46.894S519,351.994,519,388.253C519,422.172,507.4,435.082,486.9,435.082Z" transform="translate(-307.392 -267.352)" fill="#2f2e41"/>
    <path id="Path_1256" data-name="Path 1256" d="M209.681,426.2H197.438V390.148a7.22,7.22,0,0,0-7.22-7.22h-2.869a7.22,7.22,0,0,0-7.22,7.22V426.2H145.6a4.122,4.122,0,0,1-3.644-6.047l36.55-69.177a7.22,7.22,0,0,0-3.3-9.9l-2.158-1.019a7.22,7.22,0,0,0-9.451,3.125l-44.577,83.39a9.79,9.79,0,0,0-1.156,4.615h0a9.79,9.79,0,0,0,9.79,9.79h52.48v22.8a8.655,8.655,0,0,0,8.655,8.655h0a8.655,8.655,0,0,0,8.655-8.655v-22.8h12.243a7.388,7.388,0,0,0,7.388-7.388h0a7.388,7.388,0,0,0-7.388-7.388Z" transform="translate(-98.976 -276.836)" fill="#9677f1"/>
    <path id="Path_1257" data-name="Path 1257" d="M867.678,426.2H855.435V390.148a7.22,7.22,0,0,0-7.22-7.22h-2.869a7.22,7.22,0,0,0-7.22,7.22V426.2H803.592a4.122,4.122,0,0,1-3.645-6.047l36.55-69.177a7.22,7.22,0,0,0-3.3-9.9l-2.158-1.019a7.22,7.22,0,0,0-9.451,3.125l-44.577,83.39a9.79,9.79,0,0,0-1.156,4.616h0a9.79,9.79,0,0,0,9.79,9.79h52.48v22.8a8.655,8.655,0,0,0,8.654,8.655h0a8.655,8.655,0,0,0,8.654-8.655v-22.8h12.243a7.388,7.388,0,0,0,7.388-7.388h0a7.388,7.388,0,0,0-7.388-7.388Z" transform="translate(-530.265 -276.836)" fill="#9677f1"/>
    <path id="Path_1258" data-name="Path 1258" d="M219.484,413.947H207.241V377.894a7.22,7.22,0,0,0-7.22-7.22h-2.869a7.22,7.22,0,0,0-7.22,7.22v36.053H155.4a4.122,4.122,0,0,1-3.644-6.047l36.55-69.177a7.22,7.22,0,0,0-3.3-9.9l-2.158-1.019a7.22,7.22,0,0,0-9.451,3.125l-44.577,83.39a9.791,9.791,0,0,0-1.156,4.616h0a9.79,9.79,0,0,0,9.79,9.79h52.48v22.8a8.655,8.655,0,0,0,8.655,8.655h0a8.655,8.655,0,0,0,8.655-8.655v-22.8h12.243a7.388,7.388,0,0,0,7.388-7.388h0A7.388,7.388,0,0,0,219.484,413.947Z" transform="translate(-105.401 -268.804)" fill="none" stroke="#3f3d56" stroke-miterlimit="10" stroke-width="1"/>
    <path id="Path_1259" data-name="Path 1259" d="M886.057,413.947H873.814V377.894a7.22,7.22,0,0,0-7.22-7.22h-2.869a7.22,7.22,0,0,0-7.22,7.22v36.053H821.972a4.122,4.122,0,0,1-3.644-6.047l36.55-69.177a7.22,7.22,0,0,0-3.3-9.9l-2.158-1.019a7.22,7.22,0,0,0-9.451,3.125l-44.577,83.39a9.79,9.79,0,0,0-1.156,4.615h0a9.79,9.79,0,0,0,9.79,9.79h52.48v22.8a8.654,8.654,0,0,0,8.654,8.655h0a8.655,8.655,0,0,0,8.655-8.655v-22.8h12.243a7.388,7.388,0,0,0,7.388-7.388h0A7.388,7.388,0,0,0,886.057,413.947Z" transform="translate(-542.312 -268.804)" fill="none" stroke="#3f3d56" stroke-miterlimit="10" stroke-width="1"/>
    <path id="Path_1260" data-name="Path 1260" d="M506.306,313.866c-29.611,0-50.872,19-50.872,63.326,0,50.239,21.261,63.537,50.872,63.537s52.138-14.565,52.138-63.537C558.444,324.843,535.917,313.866,506.306,313.866Zm.195,110.187c-20.51,0-31.224-12.032-31.224-46.829,0-30.7,11.154-46.894,31.663-46.894S538.6,340.966,538.6,377.225c0,33.919-11.592,46.829-32.1,46.829Z" transform="translate(-320.242 -260.124)" fill="none" stroke="#3f3d56" stroke-miterlimit="10" stroke-width="1"/>
    <circle id="Ellipse_69" data-name="Ellipse 69" cx="4.445" cy="4.445" r="4.445" transform="translate(157.883 1.843)" fill="#2f2e41"/>
    <ellipse id="Ellipse_70" data-name="Ellipse 70" cx="12.468" cy="16.154" rx="12.468" ry="16.154" transform="translate(160.702 0)" fill="#2f2e41"/>
    <path id="Path_1261" data-name="Path 1261" d="M541.943,211.4c-6.246,0-11.419-5.95-12.326-13.714a20.992,20.992,0,0,0-.141,2.439c0,8.921,5.582,16.154,12.468,16.154s12.468-7.232,12.468-16.154a21.005,21.005,0,0,0-.141-2.439C553.361,205.453,548.189,211.4,541.943,211.4Z" transform="translate(-368.773 -183.975)" opacity="0.1"/>
    <path id="Path_1262" data-name="Path 1262" d="M603.406,333.544a4.629,4.629,0,0,1-2.7,2.6,23.864,23.864,0,0,1-9.22,1.81,15.57,15.57,0,0,1-2.462-.046,7.076,7.076,0,0,1-4.221-1.94.579.579,0,0,1,.015-.98c1.712-1.881,4.569-3.034,7.448-3.864,2.182-.63,5.989-2.26,8.369-2.04C602.94,329.295,603.744,332.155,603.406,333.544Z" transform="translate(-404.866 -270.084)" fill="#3f3d56"/>
    <path id="Path_1263" data-name="Path 1263" d="M603.406,333.544a4.629,4.629,0,0,1-2.7,2.6,23.864,23.864,0,0,1-9.22,1.81,15.57,15.57,0,0,1-2.462-.046,7.076,7.076,0,0,1-4.221-1.94.579.579,0,0,1,.015-.98c1.712-1.881,4.569-3.034,7.448-3.864,2.182-.63,5.989-2.26,8.369-2.04C602.94,329.295,603.744,332.155,603.406,333.544Z" transform="translate(-404.866 -270.084)" opacity="0.1"/>
    <path id="Path_1264" data-name="Path 1264" d="M538.682,284.024a6.811,6.811,0,0,0-.413,5.194,9.075,9.075,0,0,0,3.042,4.306c3.478,2.788,8.265,3.172,12.722,3.133a98.078,98.078,0,0,0,11.682-.8,13.967,13.967,0,0,0,3.79-.88,5.81,5.81,0,0,0,3.251-3.282,4,4,0,0,0-1.08-4.332,6.784,6.784,0,0,0-3.961-1.083l-7.955-.478a13.494,13.494,0,0,1,2.789-1.823,12.578,12.578,0,0,0,3.036-3.216,44.447,44.447,0,0,1,4.63-4.761,6.836,6.836,0,0,0,2.3,3.729c1.106,1.025,2.38,1.85,3.529,2.825,2.783,2.363,4.788,5.57,7.715,7.752a15.1,15.1,0,0,0,5.529-2.761l-1.138-2.061a1.357,1.357,0,0,0-.429-.535c-.322-.2-.737-.1-1.111-.152-1-.15-1.436-1.3-1.828-2.235-1.077-2.557-3.138-4.541-4.9-6.685a33.764,33.764,0,0,1-3.444-5.073,17.356,17.356,0,0,0-1.935-3.1,4.366,4.366,0,0,0-3.149-1.647,6.063,6.063,0,0,0-3,1.1,79.4,79.4,0,0,0-8.142,5.547,18.838,18.838,0,0,1-4.3,2.816c-.671.272-1.378.458-2.022.79a13.52,13.52,0,0,0-2.9,2.434A19.307,19.307,0,0,1,538.682,284.024Z" transform="translate(-374.32 -228.787)" fill="#3f3d56"/>
    <path id="Path_1265" data-name="Path 1265" d="M568.9,227.065a8.191,8.191,0,0,1-.6,2.768,3.461,3.461,0,0,1-1.987,1.92,4.264,4.264,0,0,1-1.937.063,3.749,3.749,0,0,1-1.578-.538,3.365,3.365,0,0,1-1.253-2.323c-.136-.894-.075-1.808-.162-2.709a14.8,14.8,0,0,0-.414-2.155c-.058-.235-.118-.469-.177-.7s-.114-.468-.166-.7-.092-.441-.13-.663c-.031-.188-.06-.376-.08-.566a6.345,6.345,0,0,0-.279-1.658,5.034,5.034,0,0,0-.581-.983c-.1-.141-.194-.282-.282-.428a2.029,2.029,0,0,1-.335-1.291,1.14,1.14,0,0,1,.051-.207c.009-.026.018-.052.029-.077a.621.621,0,0,0,.424-.4,1.183,1.183,0,0,0-.051-.613,3.893,3.893,0,0,0-.331-.788c-.091-.165-.4-.462-.4-.65,0-.379.737-.685,1.038-.835a5.787,5.787,0,0,1,2.962-.6,2.184,2.184,0,0,1,1.729.8,5.216,5.216,0,0,1,.421,1.713.506.506,0,0,0,.1.229.462.462,0,0,0,.255.117,1.567,1.567,0,0,0,.488.02h0a1.009,1.009,0,0,0,.128-.018,1.708,1.708,0,0,0,.7-.3q.2-.054.407-.088l.016,0c.543,1.714.614,3.552,1.058,5.3a13.59,13.59,0,0,1,.58,2.619c0,.039,0,.079.005.119.007.287-.016.577,0,.863a2.413,2.413,0,0,0,.043.384,5.365,5.365,0,0,0,.181.6l0,.01c.021.063.04.127.056.191.012.047.023.092.031.139v0a5.145,5.145,0,0,1,.036,1.45Z" transform="translate(-387.901 -193.955)" fill="#fbbebe"/>
    <circle id="Ellipse_71" data-name="Ellipse 71" cx="6.396" cy="6.396" r="6.396" transform="translate(166.99 9.107)" fill="#fbbebe"/>
    <path id="Path_1266" data-name="Path 1266" d="M613.565,248.917a10.49,10.49,0,0,0-1.8-4.859q.249,1.48.5,2.959a1.107,1.107,0,0,1-1.16-.357,3.56,3.56,0,0,1-.608-1.129,23.242,23.242,0,0,0-2.829-5.077,30.194,30.194,0,0,1-11.678-4c-3.582-1.967-6.934-4.325-10.469-6.375a15.015,15.015,0,0,0-1.91-.976c-1.106-.443-2.347-.673-3.4-1.195-.071-.035-.141-.072-.21-.109a4.34,4.34,0,0,1-.67-.45,3.573,3.573,0,0,1-.321-.295,7.011,7.011,0,0,1-1.226-2.051c-.563-1.245-.763-2.746-1.325-3.991a3.86,3.86,0,0,1,.862-.608h0c.045-.024.091-.047.138-.068a4.119,4.119,0,0,1,.691-.253q.2-.054.407-.088l.016,0a3.985,3.985,0,0,1,1.892.15,8.748,8.748,0,0,1,2.392,1.472,39.252,39.252,0,0,1,3.5,2.773c.618.592,1.182,1.242,1.846,1.78a14.523,14.523,0,0,0,1.742,1.155l10.789,6.426c1.218.725,2.436,1.451,3.627,2.218,1.808,1.167,3.552,2.431,5.294,3.694l3.079,2.232a3.352,3.352,0,0,1,.873.807,2.92,2.92,0,0,1,.387,1.183,10.814,10.814,0,0,1-.424,5.03Z" transform="translate(-399.568 -198.563)" fill="#fbbebe"/>
    <path id="Path_1267" data-name="Path 1267" d="M554.381,236.588c-.432,1.935-2.387,3.105-3.41,4.8-1.271,2.11-.752,4.562-.275,6.979l-2.616,2.254c-.481.413-.963.828-1.481,1.194a19.758,19.758,0,0,1-2.363,1.357l-2.316,1.191a11.072,11.072,0,0,1-2.267.961,8.736,8.736,0,0,1-4.641-.335,2.1,2.1,0,0,1-.507-.207.826.826,0,0,1-.241-.218,1.347,1.347,0,0,1-.153-.875,41.123,41.123,0,0,1,1.389-7.473,22.028,22.028,0,0,1,3.192-7.831,23.554,23.554,0,0,1,2.732-3.967,6.366,6.366,0,0,0,1.266-1.633,8.748,8.748,0,0,0,.314-2.842,5.909,5.909,0,0,1,.563-2.07h0a5.891,5.891,0,0,1,.6-.993l.316.734q.1.241.206.48l.265.616.757,1.762a7.439,7.439,0,0,0,1.149,2.048,2.239,2.239,0,0,0,3.833-.294,7.326,7.326,0,0,0,.783-2.072,6.621,6.621,0,0,0,.087-2.7,31.9,31.9,0,0,0-1.529-5.092,5.15,5.15,0,0,1-.372-1.678,1.157,1.157,0,0,1,.02-.193l.01-.05a4.116,4.116,0,0,1,.691-.253q.2-.054.407-.088.7,3.812,1.41,7.624c.011.06.023.119.034.18.067.364.135.729.211,1.092.068.33.142.658.224.984l0,.01c.028.111.057.22.088.33v0c.083.3.177.6.282.889C553.679,232.981,554.79,234.757,554.381,236.588Z" transform="translate(-371.8 -198.668)" fill="#9677f1"/>
    <path id="Path_1268" data-name="Path 1268" d="M668.315,335.26a2.267,2.267,0,0,0,.21,1.083,2.593,2.593,0,0,0,2.192.966,64.9,64.9,0,0,0,14.562-.444,1.684,1.684,0,0,0,.741-.23c.686-.481.263-1.652-.486-2.027a9.4,9.4,0,0,0-2.458-.447,7.748,7.748,0,0,1-2.3-1q-2.5-1.436-4.924-2.993c-.963-.618-2.1-1.278-3.184-.912C669.731,330.252,668.3,332.091,668.315,335.26Z" transform="translate(-459.775 -270.144)" fill="#3f3d56"/>
    <path id="Path_1269" data-name="Path 1269" d="M526.026,230.347h0c-.008.046-.015.09-.025.134-.012.074-.026.148-.04.222-.134.688-.3,1.374-.489,2.054-.52,1.881-1.217,3.732-1.909,5.555l-5.569,14.67c-.468,1.232-.936,2.464-1.468,3.671-.178.4-.361.808-.543,1.217a16.938,16.938,0,0,0-1.487,4.543,9.455,9.455,0,0,0-.066,3.115,3.2,3.2,0,0,0,1.8,2.4c.475.185,1.155.434,1.025.927-.07.271-.378.4-.655.449a2.519,2.519,0,0,1-2.055-.592c-.519-.461-.918-1.177-1.609-1.254a2.72,2.72,0,0,0-1.356.435c-1.787.816-3.868.245-5.745-.335a2.016,2.016,0,0,1,1.668-1.413,13.5,13.5,0,0,1,2.315-.065,1.209,1.209,0,0,0,.7-.181,1.277,1.277,0,0,0,.379-.648,27.207,27.207,0,0,0,1.107-4.53c.249-1.608.353-3.241.709-4.829.276-1.239.7-2.439,1.07-3.656a77.4,77.4,0,0,0,1.743-7.606,26.889,26.889,0,0,0,.491-3.227c.062-.9.033-1.8.119-2.7a20.985,20.985,0,0,1,.727-3.444l.994-3.683a12.383,12.383,0,0,1,2.263-5.114,4.81,4.81,0,0,1,3.455-1.65,3.406,3.406,0,0,1,.734.079l.12.03a2.976,2.976,0,0,1,.749.31c.384-.244.579-.158.834.218a2.4,2.4,0,0,1,.3,1.307A18.051,18.051,0,0,1,526.026,230.347Z" transform="translate(-353.278 -201.754)" fill="#fbbebe"/>
    <path id="Path_1270" data-name="Path 1270" d="M560.206,231.541l-.016.016-.088.088-.872.871-.427-1.794-1.465-6.151a3.406,3.406,0,0,1,.734.079,1.124,1.124,0,0,1,.051-.207l.069.237.5,1.689.94,3.207.155.528h0Z" transform="translate(-387.037 -201.51)" fill="#9677f1"/>
    <path id="Path_1271" data-name="Path 1271" d="M555.312,179.839a4.334,4.334,0,0,1-1.275,3.065,4.238,4.238,0,0,1-.469.405,4.316,4.316,0,0,1-2.6.87h-5.2a4.338,4.338,0,1,1,0-8.676h5.2A4.351,4.351,0,0,1,555.312,179.839Z" transform="translate(-376.611 -169.433)" fill="#2f2e41"/>
    <circle id="Ellipse_72" data-name="Ellipse 72" cx="4.445" cy="4.445" r="4.445" transform="translate(179.132 1.843)" fill="#2f2e41"/>
    <path id="Path_1272" data-name="Path 1272" d="M595.245,163.234c-.055,0-.109,0-.163,0a4.444,4.444,0,0,1,0,8.882c.054,0,.108,0,.163,0a4.445,4.445,0,1,0,0-8.89Z" transform="translate(-411.776 -161.391)" opacity="0.1"/>
    <path id="Path_1273" data-name="Path 1273" d="M525.739,163.234c.055,0,.109,0,.163,0a4.444,4.444,0,0,0,0,8.882c-.054,0-.108,0-.163,0a4.445,4.445,0,0,1,0-8.89Z" transform="translate(-363.411 -161.391)" opacity="0.1"/>
    <path id="Path_1274" data-name="Path 1274" d="M556.881,198.159a4.316,4.316,0,0,1-2.6.87h-5.2a4.317,4.317,0,0,1-2.6-.87Z" transform="translate(-379.924 -184.283)" opacity="0.1"/>
    <path id="Path_1275" data-name="Path 1275" d="M674.14,288.118s1.12,3.229,2.146,2.369l-.817-4.221Z" transform="translate(-463.595 -242.034)" fill="#fbbebe"/>
    <path id="Path_1276" data-name="Path 1276" d="M1060.932,550.971a7.171,7.171,0,1,0,.955-13.752l.179,3.691-1.746-3.163a7.144,7.144,0,0,0-3.681,4.039,7.029,7.029,0,0,0-.412,1.94A7.169,7.169,0,0,0,1060.932,550.971Z" transform="translate(-714.025 -406.418)" fill="#57b894"/>
    <path id="Path_1277" data-name="Path 1277" d="M1092.425,582.053c-.617-3.139,2.054-5.922,4.693-7.73s5.721-3.586,6.621-6.656c1.294-4.411-2.56-8.452-5.559-11.936a43.179,43.179,0,0,1-5.693-8.461,11.648,11.648,0,0,1-1.362-3.847,13.277,13.277,0,0,1,1.024-5.767q3.163-9.32,6.763-18.485" transform="translate(-736.878 -394.693)" fill="none" stroke="#3f3d56" stroke-miterlimit="10" stroke-width="1"/>
    <path id="Path_1278" data-name="Path 1278" d="M1061.789,548.213a7.171,7.171,0,1,0,.955-13.753l.179,3.691-1.746-3.163a7.145,7.145,0,0,0-3.681,4.039,7.028,7.028,0,0,0-.413,1.94A7.169,7.169,0,0,0,1061.789,548.213Z" transform="translate(-714.587 -404.611)" fill="none" stroke="#3f3d56" stroke-miterlimit="10" stroke-width="1"/>
    <path id="Path_1279" data-name="Path 1279" d="M1091.633,506.487a7.163,7.163,0,0,1,5.161-4.547l.59,3.509,1.095-3.685a7.17,7.17,0,1,1-6.846,4.723Z" transform="translate(-736.962 -383.283)" fill="#57b894"/>
    <path id="Path_1280" data-name="Path 1280" d="M1092.775,502.809a7.162,7.162,0,0,1,5.161-4.547l.59,3.509,1.094-3.685a7.17,7.17,0,1,1-6.846,4.724Z" transform="translate(-737.711 -380.872)" fill="none" stroke="#3f3d56" stroke-miterlimit="10" stroke-width="1"/>
    <path id="Path_1281" data-name="Path 1281" d="M1099.052,599.021a7.17,7.17,0,0,0,6.346-12.756l-.841,2.832-.6-3.55-.018-.007a7.17,7.17,0,1,0-4.89,13.481Z" transform="translate(-739.009 -437.912)" fill="#57b894"/>
    <path id="Path_1282" data-name="Path 1282" d="M1100.042,595.3a7.17,7.17,0,0,0,6.346-12.756l-.841,2.832-.6-3.55-.018-.007a7.17,7.17,0,0,0-4.89,13.481Z" transform="translate(-739.658 -435.471)" fill="none" stroke="#3f3d56" stroke-miterlimit="10" stroke-width="1"/>
    <path id="Path_1283" data-name="Path 1283" d="M1086.168,644.056a7.167,7.167,0,1,0,1.382-5.615l3.195,4.809-4.365-2.552a7.1,7.1,0,0,0-.211,3.359Z" transform="translate(-733.59 -471.039)" fill="#57b894"/>
    <path id="Path_1284" data-name="Path 1284" d="M1087.026,641.3a7.167,7.167,0,1,0,1.382-5.615l3.195,4.809-4.365-2.552a7.1,7.1,0,0,0-.211,3.359Z" transform="translate(-734.152 -469.231)" fill="none" stroke="#3f3d56" stroke-miterlimit="10" stroke-width="1"/>
    <path id="Path_1285" data-name="Path 1285" d="M66.158,610.746a4.711,4.711,0,1,0,.627-9.036l.118,2.425-1.147-2.078a4.694,4.694,0,0,0-2.418,2.654,4.621,4.621,0,0,0-.271,1.274,4.711,4.711,0,0,0,3.091,4.761Z" transform="translate(-63.054 -448.726)" fill="#57b894"/>
    <path id="Path_1286" data-name="Path 1286" d="M86.849,631.168c-.4-2.062,1.35-3.891,3.083-5.079s3.759-2.356,4.35-4.373c.85-2.9-1.682-5.553-3.653-7.842a28.366,28.366,0,0,1-3.74-5.559A7.652,7.652,0,0,1,86,605.787,8.724,8.724,0,0,1,86.668,602q2.078-6.124,4.443-12.145" transform="translate(-78.069 -441.022)" fill="none" stroke="#3f3d56" stroke-miterlimit="10" stroke-width="1"/>
    <path id="Path_1287" data-name="Path 1287" d="M66.721,608.934a4.711,4.711,0,1,0,.627-9.036l.118,2.425-1.147-2.078A4.693,4.693,0,0,0,63.9,602.9a4.621,4.621,0,0,0-.271,1.274A4.71,4.71,0,0,0,66.721,608.934Z" transform="translate(-63.423 -447.538)" fill="none" stroke="#3f3d56" stroke-miterlimit="10" stroke-width="1"/>
    <path id="Path_1288" data-name="Path 1288" d="M86.328,581.519a4.706,4.706,0,0,1,3.391-2.988l.388,2.305.719-2.421a4.711,4.711,0,1,1-4.5,3.1Z" transform="translate(-78.124 -433.525)" fill="#57b894"/>
    <path id="Path_1289" data-name="Path 1289" d="M87.079,579.1a4.706,4.706,0,0,1,3.391-2.988l.388,2.305L91.577,576a4.711,4.711,0,1,1-4.5,3.1Z" transform="translate(-78.616 -431.942)" fill="none" stroke="#3f3d56" stroke-miterlimit="10" stroke-width="1"/>
    <path id="Path_1290" data-name="Path 1290" d="M91.2,642.316a4.711,4.711,0,0,0,4.17-8.381L94.82,635.8l-.392-2.333-.012,0a4.711,4.711,0,0,0-3.213,8.857Z" transform="translate(-79.469 -469.418)" fill="#57b894"/>
    <path id="Path_1291" data-name="Path 1291" d="M91.854,639.869a4.711,4.711,0,0,0,4.17-8.381l-.553,1.861-.392-2.333-.012,0a4.711,4.711,0,0,0-3.213,8.857Z" transform="translate(-79.895 -467.814)" fill="none" stroke="#3f3d56" stroke-miterlimit="10" stroke-width="1"/>
    <path id="Path_1292" data-name="Path 1292" d="M82.738,671.905a4.709,4.709,0,1,0,.908-3.689l2.1,3.159L82.877,669.7A4.667,4.667,0,0,0,82.738,671.905Z" transform="translate(-75.908 -491.183)" fill="#57b894"/>
    <path id="Path_1293" data-name="Path 1293" d="M83.3,670.093a4.709,4.709,0,1,0,.908-3.689l2.1,3.159-2.868-1.677a4.667,4.667,0,0,0-.139,2.207Z" transform="translate(-76.278 -489.995)" fill="none" stroke="#3f3d56" stroke-miterlimit="10" stroke-width="1"/>
    <ellipse id="Ellipse_73" data-name="Ellipse 73" cx="5.857" cy="7.58" rx="5.857" ry="7.58" transform="translate(159.849 102.369)" fill="#2f2e41"/>
    <ellipse id="Ellipse_74" data-name="Ellipse 74" cx="5.857" cy="7.58" rx="5.857" ry="7.58" transform="translate(191.719 102.541)" fill="#2f2e41"/>
    <path id="Path_1294" data-name="Path 1294" d="M582.862,530.7c0,3.425-4.782,6.2-10.681,6.2s-10.681-2.777-10.681-6.2c0-2.966,3.587-5.447,8.379-6.054a17.264,17.264,0,0,1,2.3-.148,17.466,17.466,0,0,1,3.835.413C580.019,525.806,582.862,528.063,582.862,530.7Z" transform="translate(-389.764 -398.186)" fill="#2f2e41"/>
    <ellipse id="Ellipse_75" data-name="Ellipse 75" cx="5.857" cy="7.58" rx="5.857" ry="7.58" transform="translate(161.227 100.646)" fill="none" stroke="#3f3d56" stroke-miterlimit="10" stroke-width="1"/>
    <ellipse id="Ellipse_76" data-name="Ellipse 76" cx="5.857" cy="7.58" rx="5.857" ry="7.58" transform="translate(193.097 100.818)" fill="none" stroke="#3f3d56" stroke-miterlimit="10" stroke-width="1"/>
    <ellipse id="Ellipse_77" data-name="Ellipse 77" cx="10.681" cy="6.202" rx="10.681" ry="6.202" transform="translate(173.114 124.592)" fill="none" stroke="#3f3d56" stroke-miterlimit="10" stroke-width="1"/>
    <path id="Path_1295" data-name="Path 1295" d="M591.545,525.1a1.7,1.7,0,0,1-.455,1.169,1.5,1.5,0,0,1-1.1.485h-3.445A1.607,1.607,0,0,1,585,525.1a1.69,1.69,0,0,1,.283-.945,16.2,16.2,0,0,1,2.3-.158,16.419,16.419,0,0,1,3.835.441A1.747,1.747,0,0,1,591.545,525.1Z" transform="translate(-405.166 -397.858)" fill="#fff"/>
    <circle id="Ellipse_78" data-name="Ellipse 78" cx="1.723" cy="1.723" r="1.723" transform="translate(165.362 104.436)" fill="#fff"/>
    <circle id="Ellipse_79" data-name="Ellipse 79" cx="1.723" cy="1.723" r="1.723" transform="translate(197.404 104.436)" fill="#fff"/>
    <circle id="Ellipse_80" data-name="Ellipse 80" cx="1.723" cy="1.723" r="1.723" transform="translate(199.127 120.629)" fill="#9677f1" opacity="0.3"/>
    <circle id="Ellipse_81" data-name="Ellipse 81" cx="1.723" cy="1.723" r="1.723" transform="translate(157.093 120.629)" fill="#9677f1" opacity="0.3"/>
  </g>
</svg>
