<svg xmlns="http://www.w3.org/2000/svg" width="30" height="30" viewBox="0 0 30 30">
  <path id="Вычитание_6" data-name="Вычитание 6" d="M15,30A15,15,0,0,1,4.393,4.393,15,15,0,1,1,25.606,25.606,14.9,14.9,0,0,1,15,30Zm-.135-13.531h0l4.382,4.383a1,1,0,0,0,1.414,0l.071-.071a1,1,0,0,0,0-1.414l-4.384-4.383,4.445-4.445a1,1,0,0,0,0-1.414l-.071-.071a1,1,0,0,0-1.415,0L14.864,13.5,10.48,9.115a1,1,0,0,0-1.415,0l-.07.07a1,1,0,0,0,0,1.415l4.384,4.384L9.055,19.308a1,1,0,0,0,0,1.414l.071.071a1,1,0,0,0,1.415,0l4.323-4.323Z" transform="translate(0 0)" fill="#eeedf3"/>
</svg>
