<svg id="FB" xmlns="http://www.w3.org/2000/svg" width="40" height="40" viewBox="0 0 40 40">
  <circle id="Ellipse_29" data-name="Ellipse 29" cx="20" cy="20" r="20" fill="#c0bfd3" opacity="0.5"/>
  <g id="facebook-logo" transform="translate(14.996 10.391)">
    <path id="Path_1055" data-name="Path 1055" d="M31.7,0,29.3,0a4.212,4.212,0,0,0-4.436,4.552v2.1H22.454a.377.377,0,0,0-.377.377v3.041a.377.377,0,0,0,.377.377h2.412v7.673a.377.377,0,0,0,.377.377h3.146a.377.377,0,0,0,.377-.377V10.446h2.82a.377.377,0,0,0,.377-.377V7.028a.377.377,0,0,0-.377-.377H28.767V4.872c0-.855.2-1.289,1.318-1.289H31.7a.377.377,0,0,0,.377-.377V.381A.377.377,0,0,0,31.7,0Z" transform="translate(-22.077)" fill="#fff"/>
  </g>
</svg>
