<svg id="FriendsQuick" xmlns="http://www.w3.org/2000/svg" xmlns:xlink="http://www.w3.org/1999/xlink" width="48" height="48" viewBox="0 0 48 48">
  <defs>
    <linearGradient id="linear-gradient" x1="1" x2="0" y2="1" gradientUnits="objectBoundingBox">
      <stop offset="0" stop-color="#ce9ffc"/>
      <stop offset="1" stop-color="#7367f0"/>
    </linearGradient>
  </defs>
  <rect id="Rectangle_408" data-name="Rectangle 408" width="48" height="48" rx="19" fill="url(#linear-gradient)"/>
  <g id="Icon" transform="translate(9 8)">
    <rect id="Rectangle_523" data-name="Rectangle 523" width="30" height="30" fill="none"/>
    <g id="Friends_sign" data-name="Friends sign" transform="translate(-923 6)" fill="#fff" stroke-linecap="round" stroke-linejoin="round">
      <path d="M 938.6340942382813 18.07167625427246 L 938.6338500976563 18.07167625427246 C 936.72314453125 18.0716667175293 934.8616333007813 17.98371696472168 933.3917846679688 17.82404708862305 C 931.2888793945313 17.59560012817383 930.7506713867188 17.30799293518066 930.6744384765625 17.26074981689453 C 930.528564453125 17.0938892364502 930.3810424804688 16.2855339050293 930.843994140625 15.11717700958252 C 931.2827758789063 14.00994682312012 932.1144409179688 13.00154685974121 933.1859130859375 12.27773761749268 C 934.5665893554688 11.34502696990967 936.3055419921875 10.87209701538086 938.3544311523438 10.87209701538086 C 940.4365844726563 10.87209701538086 942.217529296875 11.35515689849854 943.6478271484375 12.30784702301025 C 944.7607421875 13.04916763305664 945.6298828125 14.07614707946777 946.0950317382813 15.19960689544678 C 946.5599975585938 16.32265281677246 946.4392700195313 17.11024284362793 946.3041381835938 17.28000450134277 C 946.2238159179688 17.33046531677246 945.6993408203125 17.61178016662598 943.7077026367188 17.83172798156738 C 942.3065185546875 17.98645782470703 940.5046997070313 18.07167625427246 938.6340942382813 18.07167625427246 Z M 938.500244140625 7.999997138977051 C 936.5703125 7.999997138977051 935.000244140625 6.429907321929932 935.000244140625 4.499997138977051 C 935.000244140625 2.570087194442749 936.5703125 0.9999971985816956 938.500244140625 0.9999971985816956 C 940.43017578125 0.9999971985816956 942.000244140625 2.570087194442749 942.000244140625 4.499997138977051 C 942.000244140625 6.429907321929932 940.43017578125 7.999997138977051 938.500244140625 7.999997138977051 Z" stroke="none"/>
      <path d="M 938.6340942382813 17.07167625427246 C 940.3413696289063 17.07167625427246 942.008544921875 16.99868774414063 943.3285522460938 16.86614799499512 C 944.4282836914063 16.7557258605957 945.06982421875 16.62868690490723 945.4235229492188 16.5372257232666 C 945.3873901367188 16.10623931884766 945.1781005859375 15.33205127716064 944.5318603515625 14.48097705841064 C 943.7919921875 13.50664710998535 942.0056762695313 11.87209701538086 938.3544311523438 11.87209701538086 C 934.7749633789063 11.87209701538086 933.0687866210938 13.46702766418457 932.370361328125 14.41774749755859 C 931.7383422851563 15.27807331085205 931.5532836914063 16.08168792724609 931.5332641601563 16.51335144042969 C 932.5338745117188 16.77205657958984 935.0713500976563 17.07165145874023 938.6334228515625 17.07167625427246 L 938.6340942382813 17.07167625427246 M 938.500244140625 6.999997138977051 C 939.8787231445313 6.999997138977051 941.000244140625 5.878497123718262 941.000244140625 4.499997138977051 C 941.000244140625 3.12149715423584 939.8787231445313 1.99999725818634 938.500244140625 1.99999725818634 C 937.1217651367188 1.99999725818634 936.000244140625 3.12149715423584 936.000244140625 4.499997138977051 C 936.000244140625 5.878497123718262 937.1217651367188 6.999997138977051 938.500244140625 6.999997138977051 M 938.6340942382813 19.07167625427246 C 938.6338500976563 19.07167625427246 938.6336669921875 19.07167625427246 938.6334228515625 19.07167625427246 C 934.7113647460938 19.07164764404297 930.7514038085938 18.7066478729248 929.9996948242188 17.99999809265137 C 928.5120239257813 16.60139656066895 930.3885498046875 9.872097015380859 938.3544311523438 9.872097015380859 C 946.3212280273438 9.872097015380859 948.4595947265625 16.54109764099121 946.9998168945313 17.99999809265137 C 946.278076171875 18.72175407409668 942.474365234375 19.07167625427246 938.6340942382813 19.07167625427246 Z M 938.500244140625 8.999997138977051 C 936.014404296875 8.999997138977051 934.000244140625 6.984897136688232 934.000244140625 4.499997138977051 C 934.000244140625 2.015097141265869 936.014404296875 -2.799377398332581e-06 938.500244140625 -2.799377398332581e-06 C 940.985107421875 -2.799377398332581e-06 943.000244140625 2.015097141265869 943.000244140625 4.499997138977051 C 943.000244140625 6.984897136688232 940.985107421875 8.999997138977051 938.500244140625 8.999997138977051 Z" stroke="none" fill="#fff"/>
    </g>
  </g>
</svg>
