<svg xmlns="http://www.w3.org/2000/svg" width="369.999" height="199.664" viewBox="0 0 369.999 199.664">
  <g id="undraw_developer_activity_bv83" transform="translate(0 -0.04)">
    <path id="Path_1094" data-name="Path 1094" d="M398,269.518a58.839,58.839,0,0,1-2.215,16.042,58.234,58.234,0,0,1-6.232,14.321c0,16.2-10.938,30.208-26.815,36.871a54.109,54.109,0,0,1-20.935,4.14H98.238a67.585,67.585,0,0,1-34.975-9.5,60.082,60.082,0,0,1-8.031-5.786c-11-9.45-17.814-22.51-17.814-36.935A58.55,58.55,0,0,1,62.137,203.61a56.441,56.441,0,0,1,8.251-2.95q1.5-.407,3.027-.731a56.722,56.722,0,0,1,8.251-1.132q1.5-.094,3.024-.107h.556c1.119,0,2.228.039,3.331.1l.362-.615q.666-1.113,1.365-2.2,1.261-1.986,2.646-3.913,1.449-2.034,3.024-4l.268-.323q.893-1.113,1.824-2.2,2.911-3.393,6.145-6.582c23.322-22.86,59.86-37.576,100.935-37.576,31.961,0,61.176,8.91,83.554,23.633a56.334,56.334,0,0,1,27.8-7.306c31.612,0,57.246,25.994,57.246,58.058a59.812,59.812,0,0,1-.323,6.074A58.217,58.217,0,0,1,398,269.518Z" transform="translate(-28 -141.34)" fill="#9677f1" opacity="0.1"/>
    <path id="Path_1095" data-name="Path 1095" d="M250.805,257.52V264.1H244.66Q247.548,260.712,250.805,257.52Z" transform="translate(-174.587 -219.917)" fill="#9677f1" opacity="0.2"/>
    <rect id="Rectangle_554" data-name="Rectangle 554" width="8.251" height="8.251" transform="translate(79.245 35.934)" fill="#9677f1" opacity="0.2"/>
    <rect id="Rectangle_555" data-name="Rectangle 555" width="8.251" height="8.251" transform="translate(90.52 35.934)" fill="#9677f1" opacity="0.2"/>
    <rect id="Rectangle_556" data-name="Rectangle 556" width="8.251" height="8.251" transform="translate(101.798 35.934)" fill="#9677f1" opacity="0.2"/>
    <rect id="Rectangle_557" data-name="Rectangle 557" width="8.251" height="8.251" transform="translate(113.072 35.934)" fill="#9677f1" opacity="0.2"/>
    <rect id="Rectangle_558" data-name="Rectangle 558" width="8.251" height="8.251" transform="translate(124.35 35.934)" fill="#9677f1" opacity="0.2"/>
    <rect id="Rectangle_559" data-name="Rectangle 559" width="8.251" height="8.251" transform="translate(135.628 35.934)" fill="#9677f1"/>
    <rect id="Rectangle_560" data-name="Rectangle 560" width="8.251" height="8.251" transform="translate(146.903 35.934)" fill="#9677f1" opacity="0.2"/>
    <rect id="Rectangle_561" data-name="Rectangle 561" width="8.251" height="8.251" transform="translate(158.181 35.934)" fill="#9677f1" opacity="0.2"/>
    <rect id="Rectangle_562" data-name="Rectangle 562" width="8.251" height="8.251" transform="translate(169.455 35.934)" fill="#9677f1" opacity="0.2"/>
    <rect id="Rectangle_563" data-name="Rectangle 563" width="8.251" height="8.251" transform="translate(180.733 35.934)" fill="#9677f1"/>
    <rect id="Rectangle_564" data-name="Rectangle 564" width="8.251" height="8.251" transform="translate(192.011 35.934)" fill="#9677f1" opacity="0.2"/>
    <rect id="Rectangle_565" data-name="Rectangle 565" width="8.251" height="8.251" transform="translate(203.286 35.934)" fill="#9677f1" opacity="0.2"/>
    <rect id="Rectangle_566" data-name="Rectangle 566" width="8.251" height="8.251" transform="translate(214.563 35.934)" fill="#9677f1" opacity="0.2"/>
    <rect id="Rectangle_567" data-name="Rectangle 567" width="8.251" height="8.251" transform="translate(225.841 35.934)" fill="#9677f1" opacity="0.2"/>
    <rect id="Rectangle_568" data-name="Rectangle 568" width="8.251" height="8.251" transform="translate(237.116 35.934)" fill="#9677f1" opacity="0.2"/>
    <rect id="Rectangle_569" data-name="Rectangle 569" width="8.251" height="8.251" transform="translate(248.394 35.934)" fill="#9677f1" opacity="0.2"/>
    <rect id="Rectangle_570" data-name="Rectangle 570" width="8.251" height="8.251" transform="translate(259.668 35.934)" fill="#9677f1"/>
    <rect id="Rectangle_571" data-name="Rectangle 571" width="8.251" height="8.251" transform="translate(270.946 35.934)" fill="#9677f1"/>
    <rect id="Rectangle_572" data-name="Rectangle 572" width="8.251" height="8.251" transform="translate(282.224 35.934)" fill="#9677f1" opacity="0.2"/>
    <rect id="Rectangle_573" data-name="Rectangle 573" width="8.251" height="8.251" transform="translate(293.499 35.934)" fill="#9677f1" opacity="0.2"/>
    <rect id="Rectangle_574" data-name="Rectangle 574" width="8.251" height="8.251" transform="translate(304.777 35.934)" fill="#9677f1"/>
    <rect id="Rectangle_575" data-name="Rectangle 575" width="8.251" height="8.251" transform="translate(316.051 35.934)" fill="#9677f1"/>
    <path id="Path_1096" data-name="Path 1096" d="M223.266,298.08v3.913H220.62Q221.881,299.995,223.266,298.08Z" transform="translate(-158.322 -247.359)" fill="#9677f1"/>
    <rect id="Rectangle_576" data-name="Rectangle 576" width="8.251" height="8.251" transform="translate(67.968 46.384)" fill="#9677f1" opacity="0.2"/>
    <rect id="Rectangle_577" data-name="Rectangle 577" width="8.251" height="8.251" transform="translate(79.245 46.384)" fill="#9677f1"/>
    <rect id="Rectangle_578" data-name="Rectangle 578" width="8.251" height="8.251" transform="translate(90.52 46.384)" fill="#9677f1" opacity="0.2"/>
    <rect id="Rectangle_579" data-name="Rectangle 579" width="8.251" height="8.251" transform="translate(101.798 46.384)" fill="#9677f1" opacity="0.7"/>
    <rect id="Rectangle_580" data-name="Rectangle 580" width="8.251" height="8.251" transform="translate(113.072 46.384)" fill="#9677f1" opacity="0.2"/>
    <rect id="Rectangle_581" data-name="Rectangle 581" width="8.251" height="8.251" transform="translate(124.35 46.384)" fill="#9677f1" opacity="0.4"/>
    <rect id="Rectangle_582" data-name="Rectangle 582" width="8.251" height="8.251" transform="translate(135.628 46.384)" fill="#9677f1"/>
    <rect id="Rectangle_583" data-name="Rectangle 583" width="8.251" height="8.251" transform="translate(146.903 46.384)" fill="#9677f1" opacity="0.4"/>
    <rect id="Rectangle_584" data-name="Rectangle 584" width="8.251" height="8.251" transform="translate(158.181 46.384)" fill="#9677f1" opacity="0.2"/>
    <rect id="Rectangle_585" data-name="Rectangle 585" width="8.251" height="8.251" transform="translate(169.455 46.384)" fill="#9677f1" opacity="0.4"/>
    <rect id="Rectangle_586" data-name="Rectangle 586" width="8.251" height="8.251" transform="translate(180.733 46.384)" fill="#9677f1"/>
    <rect id="Rectangle_587" data-name="Rectangle 587" width="8.251" height="8.251" transform="translate(192.011 46.384)" fill="#9677f1" opacity="0.4"/>
    <rect id="Rectangle_588" data-name="Rectangle 588" width="8.251" height="8.251" transform="translate(203.286 46.384)" fill="#9677f1" opacity="0.4"/>
    <rect id="Rectangle_589" data-name="Rectangle 589" width="8.251" height="8.251" transform="translate(214.563 46.384)" fill="#9677f1" opacity="0.2"/>
    <rect id="Rectangle_590" data-name="Rectangle 590" width="8.251" height="8.251" transform="translate(225.841 46.384)" fill="#9677f1" opacity="0.4"/>
    <rect id="Rectangle_591" data-name="Rectangle 591" width="8.251" height="8.251" transform="translate(237.116 46.384)" fill="#9677f1" opacity="0.4"/>
    <rect id="Rectangle_592" data-name="Rectangle 592" width="8.251" height="8.251" transform="translate(248.394 46.384)" fill="#9677f1" opacity="0.2"/>
    <rect id="Rectangle_593" data-name="Rectangle 593" width="8.251" height="8.251" transform="translate(259.668 46.384)" fill="#9677f1" opacity="0.2"/>
    <rect id="Rectangle_594" data-name="Rectangle 594" width="8.251" height="8.251" transform="translate(270.946 46.384)" fill="#9677f1" opacity="0.4"/>
    <rect id="Rectangle_595" data-name="Rectangle 595" width="8.251" height="8.251" transform="translate(282.224 46.384)" fill="#9677f1" opacity="0.2"/>
    <rect id="Rectangle_596" data-name="Rectangle 596" width="8.251" height="8.251" transform="translate(293.499 46.384)" fill="#9677f1"/>
    <rect id="Rectangle_597" data-name="Rectangle 597" width="8.251" height="8.251" transform="translate(304.777 46.384)" fill="#9677f1"/>
    <rect id="Rectangle_598" data-name="Rectangle 598" width="8.251" height="8.251" transform="translate(316.051 46.384)" fill="#9677f1"/>
    <path id="Path_1097" data-name="Path 1097" d="M141.8,324.67v5.767H133.55V327.62A56.446,56.446,0,0,1,141.8,324.67Z" transform="translate(-99.413 -265.349)" fill="#9677f1" opacity="0.2"/>
    <path id="Path_1098" data-name="Path 1098" d="M148.671,177.57v7.63H140.42v-6.5Z" transform="translate(-95.005 -120.112)" fill="#9677f1" opacity="0.2"/>
    <rect id="Rectangle_599" data-name="Rectangle 599" width="8.251" height="8.251" transform="translate(56.69 56.837)" fill="#9677f1"/>
    <rect id="Rectangle_600" data-name="Rectangle 600" width="8.251" height="8.251" transform="translate(67.968 56.837)" fill="#9677f1" opacity="0.7"/>
    <rect id="Rectangle_601" data-name="Rectangle 601" width="8.251" height="8.251" transform="translate(79.245 56.837)" fill="#9677f1"/>
    <rect id="Rectangle_602" data-name="Rectangle 602" width="8.251" height="8.251" transform="translate(90.52 56.837)" fill="#9677f1" opacity="0.7"/>
    <rect id="Rectangle_603" data-name="Rectangle 603" width="8.251" height="8.251" transform="translate(101.798 56.837)" fill="#9677f1" opacity="0.7"/>
    <rect id="Rectangle_604" data-name="Rectangle 604" width="8.251" height="8.251" transform="translate(113.072 56.837)" fill="#9677f1" opacity="0.2"/>
    <rect id="Rectangle_605" data-name="Rectangle 605" width="8.251" height="8.251" transform="translate(124.35 56.837)" fill="#9677f1" opacity="0.4"/>
    <rect id="Rectangle_606" data-name="Rectangle 606" width="8.251" height="8.251" transform="translate(135.628 56.837)" fill="#9677f1" opacity="0.4"/>
    <rect id="Rectangle_607" data-name="Rectangle 607" width="8.251" height="8.251" transform="translate(146.903 56.837)" fill="#9677f1"/>
    <rect id="Rectangle_608" data-name="Rectangle 608" width="8.251" height="8.251" transform="translate(158.181 56.837)" fill="#9677f1" opacity="0.2"/>
    <rect id="Rectangle_609" data-name="Rectangle 609" width="8.251" height="8.251" transform="translate(169.455 56.837)" fill="#9677f1" opacity="0.4"/>
    <rect id="Rectangle_610" data-name="Rectangle 610" width="8.251" height="8.251" transform="translate(180.733 56.837)" fill="#9677f1"/>
    <rect id="Rectangle_611" data-name="Rectangle 611" width="8.251" height="8.251" transform="translate(192.011 56.837)" fill="#9677f1" opacity="0.2"/>
    <rect id="Rectangle_612" data-name="Rectangle 612" width="8.251" height="8.251" transform="translate(203.286 56.837)" fill="#9677f1" opacity="0.4"/>
    <rect id="Rectangle_613" data-name="Rectangle 613" width="8.251" height="8.251" transform="translate(214.563 56.837)" fill="#9677f1" opacity="0.2"/>
    <rect id="Rectangle_614" data-name="Rectangle 614" width="8.251" height="8.251" transform="translate(225.841 56.837)" fill="#9677f1"/>
    <rect id="Rectangle_615" data-name="Rectangle 615" width="8.251" height="8.251" transform="translate(237.116 56.837)" fill="#9677f1" opacity="0.2"/>
    <rect id="Rectangle_616" data-name="Rectangle 616" width="8.251" height="8.251" transform="translate(248.394 56.837)" fill="#9677f1" opacity="0.7"/>
    <rect id="Rectangle_617" data-name="Rectangle 617" width="8.251" height="8.251" transform="translate(259.668 56.837)" fill="#9677f1" opacity="0.7"/>
    <rect id="Rectangle_618" data-name="Rectangle 618" width="8.251" height="8.251" transform="translate(270.946 56.837)" fill="#9677f1" opacity="0.4"/>
    <rect id="Rectangle_619" data-name="Rectangle 619" width="8.251" height="8.251" transform="translate(282.224 56.837)" fill="#9677f1" opacity="0.2"/>
    <rect id="Rectangle_620" data-name="Rectangle 620" width="8.251" height="8.251" transform="translate(293.499 56.837)" fill="#9677f1"/>
    <rect id="Rectangle_621" data-name="Rectangle 621" width="8.251" height="8.251" transform="translate(304.777 56.837)" fill="#9677f1"/>
    <rect id="Rectangle_622" data-name="Rectangle 622" width="8.251" height="8.251" transform="translate(316.051 56.837)" fill="#9677f1"/>
    <rect id="Rectangle_623" data-name="Rectangle 623" width="8.251" height="8.251" transform="translate(34.137 67.287)" fill="#9677f1" opacity="0.2"/>
    <rect id="Rectangle_624" data-name="Rectangle 624" width="8.251" height="8.251" transform="translate(45.415 67.287)" fill="#9677f1" opacity="0.2"/>
    <rect id="Rectangle_625" data-name="Rectangle 625" width="8.251" height="8.251" transform="translate(56.69 67.287)" fill="#9677f1" opacity="0.2"/>
    <rect id="Rectangle_626" data-name="Rectangle 626" width="8.251" height="8.251" transform="translate(67.968 67.287)" fill="#9677f1" opacity="0.2"/>
    <rect id="Rectangle_627" data-name="Rectangle 627" width="8.251" height="8.251" transform="translate(79.245 67.287)" fill="#9677f1"/>
    <rect id="Rectangle_628" data-name="Rectangle 628" width="8.251" height="8.251" transform="translate(90.52 67.287)" fill="#9677f1" opacity="0.7"/>
    <rect id="Rectangle_629" data-name="Rectangle 629" width="8.251" height="8.251" transform="translate(101.798 67.287)" fill="#9677f1" opacity="0.7"/>
    <rect id="Rectangle_630" data-name="Rectangle 630" width="8.251" height="8.251" transform="translate(113.072 67.287)" fill="#9677f1" opacity="0.2"/>
    <rect id="Rectangle_631" data-name="Rectangle 631" width="8.251" height="8.251" transform="translate(124.35 67.287)" fill="#9677f1" opacity="0.2"/>
    <rect id="Rectangle_632" data-name="Rectangle 632" width="8.251" height="8.251" transform="translate(135.628 67.287)" fill="#9677f1" opacity="0.4"/>
    <rect id="Rectangle_633" data-name="Rectangle 633" width="8.251" height="8.251" transform="translate(146.903 67.287)" fill="#9677f1" opacity="0.4"/>
    <rect id="Rectangle_634" data-name="Rectangle 634" width="8.251" height="8.251" transform="translate(158.181 67.287)" fill="#9677f1"/>
    <rect id="Rectangle_635" data-name="Rectangle 635" width="8.251" height="8.251" transform="translate(169.455 67.287)" fill="#9677f1" opacity="0.2"/>
    <rect id="Rectangle_636" data-name="Rectangle 636" width="8.251" height="8.251" transform="translate(180.733 67.287)" fill="#9677f1" opacity="0.4"/>
    <rect id="Rectangle_637" data-name="Rectangle 637" width="8.251" height="8.251" transform="translate(192.011 67.287)" fill="#9677f1" opacity="0.4"/>
    <rect id="Rectangle_638" data-name="Rectangle 638" width="8.251" height="8.251" transform="translate(203.286 67.287)" fill="#9677f1" opacity="0.4"/>
    <rect id="Rectangle_639" data-name="Rectangle 639" width="8.251" height="8.251" transform="translate(214.563 67.287)" fill="#9677f1" opacity="0.4"/>
    <rect id="Rectangle_640" data-name="Rectangle 640" width="8.251" height="8.251" transform="translate(225.841 67.287)" fill="#9677f1" opacity="0.2"/>
    <rect id="Rectangle_641" data-name="Rectangle 641" width="8.251" height="8.251" transform="translate(237.116 67.287)" fill="#9677f1" opacity="0.2"/>
    <rect id="Rectangle_642" data-name="Rectangle 642" width="8.251" height="8.251" transform="translate(248.394 67.287)" fill="#9677f1" opacity="0.2"/>
    <rect id="Rectangle_643" data-name="Rectangle 643" width="8.251" height="8.251" transform="translate(259.668 67.287)" fill="#9677f1" opacity="0.2"/>
    <rect id="Rectangle_644" data-name="Rectangle 644" width="8.251" height="8.251" transform="translate(270.946 67.287)" fill="#9677f1" opacity="0.7"/>
    <rect id="Rectangle_645" data-name="Rectangle 645" width="8.251" height="8.251" transform="translate(282.224 67.287)" fill="#9677f1" opacity="0.7"/>
    <rect id="Rectangle_646" data-name="Rectangle 646" width="8.251" height="8.251" transform="translate(293.499 67.287)" fill="#9677f1" opacity="0.4"/>
    <rect id="Rectangle_647" data-name="Rectangle 647" width="8.251" height="8.251" transform="translate(304.777 67.287)" fill="#9677f1" opacity="0.2"/>
    <rect id="Rectangle_648" data-name="Rectangle 648" width="8.251" height="8.251" transform="translate(316.051 67.287)" fill="#9677f1"/>
    <rect id="Rectangle_649" data-name="Rectangle 649" width="8.251" height="8.251" transform="translate(34.137 77.74)" fill="#9677f1" opacity="0.2"/>
    <rect id="Rectangle_650" data-name="Rectangle 650" width="8.251" height="8.251" transform="translate(45.415 77.74)" fill="#9677f1" opacity="0.2"/>
    <rect id="Rectangle_651" data-name="Rectangle 651" width="8.251" height="8.251" transform="translate(56.69 77.74)" fill="#9677f1" opacity="0.4"/>
    <rect id="Rectangle_652" data-name="Rectangle 652" width="8.251" height="8.251" transform="translate(67.968 77.74)" fill="#9677f1" opacity="0.2"/>
    <rect id="Rectangle_653" data-name="Rectangle 653" width="8.251" height="8.251" transform="translate(79.245 77.74)" fill="#9677f1" opacity="0.2"/>
    <rect id="Rectangle_654" data-name="Rectangle 654" width="8.251" height="8.251" transform="translate(90.52 77.74)" fill="#9677f1" opacity="0.7"/>
    <rect id="Rectangle_655" data-name="Rectangle 655" width="8.251" height="8.251" transform="translate(101.798 77.74)" fill="#9677f1" opacity="0.7"/>
    <rect id="Rectangle_656" data-name="Rectangle 656" width="8.251" height="8.251" transform="translate(113.072 77.74)" fill="#9677f1" opacity="0.2"/>
    <rect id="Rectangle_657" data-name="Rectangle 657" width="8.251" height="8.251" transform="translate(124.35 77.74)" fill="#9677f1" opacity="0.2"/>
    <rect id="Rectangle_658" data-name="Rectangle 658" width="8.251" height="8.251" transform="translate(135.628 77.74)" fill="#9677f1" opacity="0.4"/>
    <rect id="Rectangle_659" data-name="Rectangle 659" width="8.251" height="8.251" transform="translate(146.903 77.74)" fill="#9677f1"/>
    <rect id="Rectangle_660" data-name="Rectangle 660" width="8.251" height="8.251" transform="translate(158.181 77.74)" fill="#9677f1" opacity="0.2"/>
    <rect id="Rectangle_661" data-name="Rectangle 661" width="8.251" height="8.251" transform="translate(169.455 77.74)" fill="#9677f1"/>
    <rect id="Rectangle_662" data-name="Rectangle 662" width="8.251" height="8.251" transform="translate(180.733 77.74)" fill="#9677f1"/>
    <rect id="Rectangle_663" data-name="Rectangle 663" width="8.251" height="8.251" transform="translate(192.011 77.74)" fill="#9677f1"/>
    <rect id="Rectangle_664" data-name="Rectangle 664" width="8.251" height="8.251" transform="translate(203.286 77.74)" fill="#9677f1" opacity="0.2"/>
    <rect id="Rectangle_665" data-name="Rectangle 665" width="8.251" height="8.251" transform="translate(214.563 77.74)" fill="#9677f1"/>
    <rect id="Rectangle_666" data-name="Rectangle 666" width="8.251" height="8.251" transform="translate(225.841 77.74)" fill="#9677f1" opacity="0.2"/>
    <rect id="Rectangle_667" data-name="Rectangle 667" width="8.251" height="8.251" transform="translate(237.116 77.74)" fill="#9677f1" opacity="0.2"/>
    <rect id="Rectangle_668" data-name="Rectangle 668" width="8.251" height="8.251" transform="translate(248.394 77.74)" fill="#9677f1" opacity="0.2"/>
    <rect id="Rectangle_669" data-name="Rectangle 669" width="8.251" height="8.251" transform="translate(259.668 77.74)" fill="#9677f1" opacity="0.2"/>
    <rect id="Rectangle_670" data-name="Rectangle 670" width="8.251" height="8.251" transform="translate(270.946 77.74)" fill="#9677f1" opacity="0.2"/>
    <rect id="Rectangle_671" data-name="Rectangle 671" width="8.251" height="8.251" transform="translate(282.224 77.74)" fill="#9677f1" opacity="0.7"/>
    <rect id="Rectangle_672" data-name="Rectangle 672" width="8.251" height="8.251" transform="translate(293.499 77.74)" fill="#9677f1" opacity="0.2"/>
    <rect id="Rectangle_673" data-name="Rectangle 673" width="8.251" height="8.251" transform="translate(304.777 77.74)" fill="#9677f1" opacity="0.2"/>
    <rect id="Rectangle_674" data-name="Rectangle 674" width="8.251" height="8.251" transform="translate(316.051 77.74)" fill="#9677f1"/>
    <rect id="Rectangle_675" data-name="Rectangle 675" width="8.251" height="8.251" transform="translate(34.137 88.19)" fill="#9677f1" opacity="0.2"/>
    <rect id="Rectangle_676" data-name="Rectangle 676" width="8.251" height="8.251" transform="translate(45.415 88.19)" fill="#9677f1" opacity="0.2"/>
    <rect id="Rectangle_677" data-name="Rectangle 677" width="8.251" height="8.251" transform="translate(56.69 88.19)" fill="#9677f1" opacity="0.2"/>
    <rect id="Rectangle_678" data-name="Rectangle 678" width="8.251" height="8.251" transform="translate(67.968 88.19)" fill="#9677f1" opacity="0.4"/>
    <rect id="Rectangle_679" data-name="Rectangle 679" width="8.251" height="8.251" transform="translate(79.245 88.19)" fill="#9677f1" opacity="0.2"/>
    <rect id="Rectangle_680" data-name="Rectangle 680" width="8.251" height="8.251" transform="translate(90.52 88.19)" fill="#9677f1" opacity="0.2"/>
    <rect id="Rectangle_681" data-name="Rectangle 681" width="8.251" height="8.251" transform="translate(101.798 88.19)" fill="#9677f1" opacity="0.7"/>
    <rect id="Rectangle_682" data-name="Rectangle 682" width="8.251" height="8.251" transform="translate(113.072 88.19)" fill="#9677f1" opacity="0.2"/>
    <rect id="Rectangle_683" data-name="Rectangle 683" width="8.251" height="8.251" transform="translate(124.35 88.19)" fill="#9677f1" opacity="0.2"/>
    <rect id="Rectangle_684" data-name="Rectangle 684" width="8.251" height="8.251" transform="translate(135.628 88.19)" fill="#9677f1" opacity="0.2"/>
    <rect id="Rectangle_685" data-name="Rectangle 685" width="8.251" height="8.251" transform="translate(146.903 88.19)" fill="#9677f1"/>
    <rect id="Rectangle_686" data-name="Rectangle 686" width="8.251" height="8.251" transform="translate(158.181 88.19)" fill="#9677f1" opacity="0.2"/>
    <rect id="Rectangle_687" data-name="Rectangle 687" width="8.251" height="8.251" transform="translate(169.455 88.19)" fill="#9677f1"/>
    <rect id="Rectangle_688" data-name="Rectangle 688" width="8.251" height="8.251" transform="translate(180.733 88.19)" fill="#9677f1"/>
    <rect id="Rectangle_689" data-name="Rectangle 689" width="8.251" height="8.251" transform="translate(192.011 88.19)" fill="#9677f1" opacity="0.2"/>
    <rect id="Rectangle_690" data-name="Rectangle 690" width="8.251" height="8.251" transform="translate(203.286 88.19)" fill="#9677f1" opacity="0.2"/>
    <rect id="Rectangle_691" data-name="Rectangle 691" width="8.251" height="8.251" transform="translate(214.563 88.19)" fill="#9677f1" opacity="0.2"/>
    <rect id="Rectangle_692" data-name="Rectangle 692" width="8.251" height="8.251" transform="translate(225.841 88.19)" fill="#9677f1" opacity="0.2"/>
    <rect id="Rectangle_693" data-name="Rectangle 693" width="8.251" height="8.251" transform="translate(237.116 88.19)" fill="#9677f1" opacity="0.2"/>
    <rect id="Rectangle_694" data-name="Rectangle 694" width="8.251" height="8.251" transform="translate(248.394 88.19)" fill="#9677f1" opacity="0.2"/>
    <rect id="Rectangle_695" data-name="Rectangle 695" width="8.251" height="8.251" transform="translate(259.668 88.19)" fill="#9677f1" opacity="0.2"/>
    <rect id="Rectangle_696" data-name="Rectangle 696" width="8.251" height="8.251" transform="translate(270.946 88.19)" fill="#9677f1" opacity="0.2"/>
    <rect id="Rectangle_697" data-name="Rectangle 697" width="8.251" height="8.251" transform="translate(282.224 88.19)" fill="#9677f1" opacity="0.2"/>
    <rect id="Rectangle_698" data-name="Rectangle 698" width="8.251" height="8.251" transform="translate(293.499 88.19)" fill="#9677f1" opacity="0.2"/>
    <rect id="Rectangle_699" data-name="Rectangle 699" width="8.251" height="8.251" transform="translate(304.777 88.19)" fill="#9677f1" opacity="0.4"/>
    <rect id="Rectangle_700" data-name="Rectangle 700" width="8.251" height="8.251" transform="translate(316.051 88.19)" fill="#9677f1"/>
    <rect id="Rectangle_701" data-name="Rectangle 701" width="8.251" height="8.251" transform="translate(34.137 98.643)" fill="#9677f1" opacity="0.7"/>
    <rect id="Rectangle_702" data-name="Rectangle 702" width="8.251" height="8.251" transform="translate(45.415 98.643)" fill="#9677f1" opacity="0.7"/>
    <rect id="Rectangle_703" data-name="Rectangle 703" width="8.251" height="8.251" transform="translate(56.69 98.643)" fill="#9677f1" opacity="0.7"/>
    <rect id="Rectangle_704" data-name="Rectangle 704" width="8.251" height="8.251" transform="translate(67.968 98.643)" fill="#9677f1" opacity="0.7"/>
    <rect id="Rectangle_705" data-name="Rectangle 705" width="8.251" height="8.251" transform="translate(79.245 98.643)" fill="#9677f1" opacity="0.7"/>
    <rect id="Rectangle_706" data-name="Rectangle 706" width="8.251" height="8.251" transform="translate(90.52 98.643)" fill="#9677f1" opacity="0.2"/>
    <rect id="Rectangle_707" data-name="Rectangle 707" width="8.251" height="8.251" transform="translate(101.798 98.643)" fill="#9677f1" opacity="0.2"/>
    <rect id="Rectangle_708" data-name="Rectangle 708" width="8.251" height="8.251" transform="translate(113.072 98.643)" fill="#9677f1" opacity="0.2"/>
    <rect id="Rectangle_709" data-name="Rectangle 709" width="8.251" height="8.251" transform="translate(124.35 98.643)" fill="#9677f1" opacity="0.2"/>
    <rect id="Rectangle_710" data-name="Rectangle 710" width="8.251" height="8.251" transform="translate(135.628 98.643)" fill="#9677f1" opacity="0.2"/>
    <rect id="Rectangle_711" data-name="Rectangle 711" width="8.251" height="8.251" transform="translate(146.903 98.643)" fill="#9677f1" opacity="0.2"/>
    <rect id="Rectangle_712" data-name="Rectangle 712" width="8.251" height="8.251" transform="translate(158.181 98.643)" fill="#9677f1"/>
    <rect id="Rectangle_713" data-name="Rectangle 713" width="8.251" height="8.251" transform="translate(169.455 98.643)" fill="#9677f1" opacity="0.2"/>
    <rect id="Rectangle_714" data-name="Rectangle 714" width="8.251" height="8.251" transform="translate(180.733 98.643)" fill="#9677f1" opacity="0.2"/>
    <rect id="Rectangle_715" data-name="Rectangle 715" width="8.251" height="8.251" transform="translate(192.011 98.643)" fill="#9677f1" opacity="0.2"/>
    <rect id="Rectangle_716" data-name="Rectangle 716" width="8.251" height="8.251" transform="translate(203.286 98.643)" fill="#9677f1"/>
    <rect id="Rectangle_717" data-name="Rectangle 717" width="8.251" height="8.251" transform="translate(214.563 98.643)" fill="#9677f1" opacity="0.2"/>
    <rect id="Rectangle_718" data-name="Rectangle 718" width="8.251" height="8.251" transform="translate(225.841 98.643)" fill="#9677f1" opacity="0.2"/>
    <rect id="Rectangle_719" data-name="Rectangle 719" width="8.251" height="8.251" transform="translate(237.116 98.643)" fill="#9677f1" opacity="0.2"/>
    <rect id="Rectangle_720" data-name="Rectangle 720" width="8.251" height="8.251" transform="translate(248.394 98.643)" fill="#9677f1" opacity="0.2"/>
    <rect id="Rectangle_721" data-name="Rectangle 721" width="8.251" height="8.251" transform="translate(259.668 98.643)" fill="#9677f1" opacity="0.2"/>
    <rect id="Rectangle_722" data-name="Rectangle 722" width="8.251" height="8.251" transform="translate(270.946 98.643)" fill="#9677f1" opacity="0.2"/>
    <rect id="Rectangle_723" data-name="Rectangle 723" width="8.251" height="8.251" transform="translate(282.224 98.643)" fill="#9677f1" opacity="0.2"/>
    <rect id="Rectangle_724" data-name="Rectangle 724" width="8.251" height="8.251" transform="translate(293.499 98.643)" fill="#9677f1" opacity="0.2"/>
    <rect id="Rectangle_725" data-name="Rectangle 725" width="8.251" height="8.251" transform="translate(304.777 98.643)" fill="#9677f1" opacity="0.2"/>
    <rect id="Rectangle_726" data-name="Rectangle 726" width="8.251" height="8.251" transform="translate(316.051 98.643)" fill="#9677f1"/>
    <circle id="Ellipse_46" data-name="Ellipse 46" cx="11.278" cy="11.278" r="11.278" transform="translate(226.284 106.441)" fill="#767d9f"/>
    <path id="Path_1099" data-name="Path 1099" d="M760.106,442.806q1.688,7.368,2.866,14.845a8.648,8.648,0,0,1-.091,4.444,15.365,15.365,0,0,1-2.083,3.1,3.942,3.942,0,0,0-.825,3.5,4.06,4.06,0,0,0,2.927,2.141c3.48.938,7.19.255,10.654-.76a17.234,17.234,0,0,0,4.466-1.85,16.713,16.713,0,0,0,3.778-3.558c5.049-6.122,8.354-13.471,11.465-20.774a12.652,12.652,0,0,1-10.709-4.314c-1.274-1.5-2.209-3.584-1.491-5.414-2.106,1.155-4.606,1.232-6.873,2.021a24.414,24.414,0,0,0-4.043,1.989q-2.322,1.342-4.619,2.736C763.78,441.971,762.14,442.909,760.106,442.806Z" transform="translate(-523.129 -339.434)" fill="#ae6e79"/>
    <path id="Path_1100" data-name="Path 1100" d="M731.958,465.275c-1.976,3.846-4.547,7.542-8.218,9.832s-8.613,2.911-12.29.647c-1.811-1.106-3.182-2.788-4.764-4.2S703.128,468.92,701,469.1c-2.342.2-4.175,2.031-5.744,3.781a44.933,44.933,0,0,0-6.365,8.577c-3.234,6.048-4,13.118-3.858,19.975s1.135,13.678,1.158,20.534c.032,8.435-1.4,16.8-2.843,25.111,13.293-1.637,26.6,1.941,39.924,3.3a244.75,244.75,0,0,0,25.686.834,7.778,7.778,0,0,0,4.366-.873,5.886,5.886,0,0,0,1.808-2.148,20.55,20.55,0,0,0,1.989-7.135,144.478,144.478,0,0,0,.886-18.785c.058-15.2.113-30.457-1.818-45.538a42.923,42.923,0,0,0-2.506-10.909,17.113,17.113,0,0,0-6.992-8.522c-2.086-1.2-6.921-3.28-9.379-2.073C734.555,456.575,733.28,462.7,731.958,465.275Z" transform="translate(-471.393 -353.437)" fill="#767d9f"/>
    <path id="Path_1101" data-name="Path 1101" d="M830.779,502.637c-.5-9.379-2.542-19.389,1.8-27.714,1.067-2.044-2.762-4.6-1.578-6.575a29.778,29.778,0,0,0,3.254-7.74,5.84,5.84,0,0,0,.21-2.862c-.43-1.711-2.122-2.73-3.558-3.771-1.585-1.151-2.4-4.661-2.911-6.559s4.065.388,5.906-.288c2.555-.935,5.8-.346,8.351.6a13.939,13.939,0,0,0,4.486.608,59.1,59.1,0,0,0,8.826-.21,21.951,21.951,0,0,1,3.949-.34c3.367.191,6.294,2.494,8.286,5.217s3.26,5.9,4.893,8.846c1.362,2.458,2.985,4.78,4.146,7.339a45.181,45.181,0,0,1,2.322,7.115l1.659,6.207a8.271,8.271,0,0,1,.408,2.752,7.813,7.813,0,0,1-.97,2.8,53.085,53.085,0,0,1-6.038,9.214c-3.49,4.279-7.727,8.137-9.8,13.26a33.5,33.5,0,0,0-1.669,6.233,228.959,228.959,0,0,0-3.525,25.6,56.342,56.342,0,0,0-11.812-3.949,57.4,57.4,0,0,0-6.145-.97c-1.808-.188-4.14.168-5.86-.323-2.878-.818-3.2-5.686-3.632-8.234a75.2,75.2,0,0,1-.864-12.29C830.882,511.938,831.028,507.284,830.779,502.637Z" transform="translate(-569.231 -347.873)" fill="#4c4981"/>
    <path id="Path_1102" data-name="Path 1102" d="M582.813,556.406c1.362,7.762,2.862,15.547,5.822,22.84-.074.071-.149.136-.223.2-.262.223-.534.433-.818.647a10.889,10.889,0,0,0-1.941,1.468,2.587,2.587,0,0,0-.485.792,1.772,1.772,0,0,0,0,1.446c-1.543.682-3.335.472-5.065.407a6.645,6.645,0,0,0-4.133.818c-1.662,1.145-2.164,3.344-2.432,5.343q-.149,1.093-.256,2.19-.1,1.019-.168,2.044a61.006,61.006,0,0,0-.061,6.792q.026.621.068,1.242c-5.285-.126-10.1-2.882-14.658-5.56a8.086,8.086,0,0,1-2.791-2.264,5.11,5.11,0,0,1-.747-3.328,3.665,3.665,0,0,1,.052-.492,13.449,13.449,0,0,1,.741-2.807,34.672,34.672,0,0,1,6.206-10.56,13.428,13.428,0,0,0,3-4.373c.236-.741.323-1.527.563-2.264,1.074-3.2,4.948-4.706,6.274-7.807a23.7,23.7,0,0,1,.873-2.264,5.7,5.7,0,0,1,1.375-1.536c.236-.2.482-.388.724-.579q3.409-2.672,6.569-5.644.589-.553,1.164-1.119A19.237,19.237,0,0,0,582.813,556.406Z" transform="translate(-384.479 -419.182)" fill="#4c4981"/>
    <path id="Path_1103" data-name="Path 1103" d="M673.132,479.817c-.466.492-.97.954-1.465,1.413l-.133.12-.524.485a12.611,12.611,0,0,0-2.442,2.843l-.055.091c-1.649,2.953-1.038,6.588-.579,9.942a84.594,84.594,0,0,1,.767,12.614c-.084,5.822-.77,11.6-.783,17.42q0,1.979.087,3.955c.094,2.144.255,4.285.45,6.427.21,2.348.462,4.693.7,7.038.188,1.814.365,3.626.514,5.437.074.938.146,1.873.2,2.811.068,1.1.123,2.2.155,3.3h0c.023.7.036,1.394.036,2.093v1.187q0,1.135-.062,2.264-.065,1.452-.2,2.911a4.72,4.72,0,0,1-1.022,2.956c-.045.045-.094.087-.142.129l-1.048-.129a107.6,107.6,0,0,0-21.767-.388c.159-1.093.3-2.183.446-3.28.065-.517.129-1.038.191-1.559q.107-.893.2-1.785.112-.97.207-1.941.252-2.5.443-5,.281-3.652.427-7.316.071-1.75.11-3.5.055-2.173.052-4.35,0-2.115-.036-4.237c0-.466-.019-.931-.058-1.394a8.85,8.85,0,0,0-.172-1.239,16.126,16.126,0,0,0-.97-2.743c-.071-.168-.139-.323-.207-.5-.039-.087-.074-.178-.11-.265a24.19,24.19,0,0,0,4.463-6.067c2.067-3.522,4.182-7.2,4.528-11.268s-1.675-8.639-5.563-9.881a27.026,27.026,0,0,0-3.267-.6,14.351,14.351,0,0,1-4.363-1.329q-.97,1-1.941,1.957a7.165,7.165,0,0,1,.7-2.817l.459.023a.876.876,0,0,1-.052-.323,1.7,1.7,0,0,1,.75-1.171c1.523-1.294,3.92-1.582,4.88-3.331a24.267,24.267,0,0,0,.792-2.358c.928-2.177,3.593-2.979,5.2-4.719s2.005-4.2,3.3-6.145a9.256,9.256,0,0,1,3.881-3.234c.129-.061.262-.123.395-.178a22.4,22.4,0,0,1,8.655-1.4,18.253,18.253,0,0,1,5.252.579,1.721,1.721,0,0,1,.6.366C676.485,475.305,674.212,478.666,673.132,479.817Z" transform="translate(-442.206 -365.55)" fill="#4c4981"/>
    <path id="Path_1104" data-name="Path 1104" d="M630.054,540.941a19.69,19.69,0,0,1,15.117,1.575,14.3,14.3,0,0,1,5.7,5.427c1.924,3.493,1.84,7.7,1.7,11.692a14.266,14.266,0,0,1-1.035,5.854,11.905,11.905,0,0,1-4.9,4.661,13.66,13.66,0,0,1-3.985,1.724,17.092,17.092,0,0,1-6.62-.323c-2.38-.44-4.936-.97-6.588-2.743a11.255,11.255,0,0,1-2.025-3.671q-1.129-2.83-2.264-5.654c-1.31-3.27-1.753-5.99-.023-9.176.786-1.452,1.746-2.811,2.523-4.272C628.046,545.291,629.436,541.132,630.054,540.941Z" transform="translate(-431.238 -411.107)" fill="#4c4981"/>
    <path id="Path_1105" data-name="Path 1105" d="M436.512,675.683v9.67a54.108,54.108,0,0,1-20.935,4.14H328.352c-.045.045-.094.087-.142.129l-1.048-.129H172.005A67.584,67.584,0,0,1,137.03,680V665.233l74.621-8.613h.058l43.455,3.681,11.245.97,5.841.495,12.09,1.025,6.219.527,9.056.77,1.274.107,6.527.553,8.855.728,12.452,1.054,20.757,1.763,14.6,1.239,23.979,2.034,4.56.385.492.042.427.036,6.022.511,6.611.563.766.065Z" transform="translate(-101.767 -489.938)" fill="#504f60"/>
    <path id="Path_1106" data-name="Path 1106" d="M560.791,539.731,467.276,523.77,463.65,542.1l42.867,5.133,13.2,1.653,36.308-7.151Z" transform="translate(-313.694 -354.342)" fill="#9c9ca1"/>
    <path id="Path_1107" data-name="Path 1107" d="M642.33,721.456l46.851-8.807a1.617,1.617,0,0,1,1.921,1.594h0a1.617,1.617,0,0,1-1.323,1.594l-45.755,8.568Z" transform="translate(-443.64 -527.827)" fill="#9c9ca1"/>
    <path id="Path_1108" data-name="Path 1108" d="M628.893,641.208a12.088,12.088,0,0,0,4.25-1.012c1.617-.805,2.875-2.193,4.373-3.215a13.023,13.023,0,0,1,11.472-1.268,18.479,18.479,0,0,1,9.13,7.41c1.465,2.215,2.565,5.042,1.53,7.487a9.872,9.872,0,0,1-1.333,2.083l-2.7,3.525a9.383,9.383,0,0,1-1.831,1.97,7.779,7.779,0,0,1-3.5,1.216c-3.283.479-6.624.207-9.932.427-5.683.378-11.233,2.209-16.928,2.148a51.017,51.017,0,0,1-9.7-1.355l-14.156-2.911c-2.465-.5-5.249-1.242-6.41-3.477a8.06,8.06,0,0,1-.679-3.3c-.168-3.118,0-6.585,2.16-8.833,2.031-2.109,5.243-2.775,7.668-4.334,2.969-1.911,3.949-1.294,7.08.142A38.811,38.811,0,0,0,628.893,641.208Z" transform="translate(-409.879 -475.273)" fill="#ae6e79"/>
    <path id="Path_1109" data-name="Path 1109" d="M628.893,641.208a12.088,12.088,0,0,0,4.25-1.012c1.617-.805,2.875-2.193,4.373-3.215a13.023,13.023,0,0,1,11.472-1.268,18.479,18.479,0,0,1,9.13,7.41c1.465,2.215,2.565,5.042,1.53,7.487a9.872,9.872,0,0,1-1.333,2.083l-2.7,3.525a9.383,9.383,0,0,1-1.831,1.97,7.779,7.779,0,0,1-3.5,1.216c-3.283.479-6.624.207-9.932.427-5.683.378-11.233,2.209-16.928,2.148a51.017,51.017,0,0,1-9.7-1.355l-14.156-2.911c-2.465-.5-5.249-1.242-6.41-3.477a8.06,8.06,0,0,1-.679-3.3c-.168-3.118,0-6.585,2.16-8.833,2.031-2.109,5.243-2.775,7.668-4.334,2.969-1.911,3.949-1.294,7.08.142A38.811,38.811,0,0,0,628.893,641.208Z" transform="translate(-409.879 -475.273)" opacity="0.05"/>
    <path id="Path_1110" data-name="Path 1110" d="M705.751,637.137a83.889,83.889,0,0,1-12.125,3.994c-6.973,1.536-14.27,1.294-21.188,3.05-3.655.931-7.287,2.432-11.042,2.128a33.1,33.1,0,0,1-4.932-1.035c-9.176-2.264-19.606-1.53-27.058,4.292a33.673,33.673,0,0,0-6.527,7.115,4.754,4.754,0,0,0,1.911,7.077,28.017,28.017,0,0,0,9.179,2.448,55.816,55.816,0,0,0,12.736-.828c6.268-.889,12.539-1.782,18.791-2.781,2.245-.359,4.489-.731,6.747-1.016,16.246-2.054,32.786.443,49.073-1.271a14.993,14.993,0,0,0,4.819-1.1c3.791-1.779,5.666-6.469,4.884-10.589s-3.8-7.546-7.439-9.648c-3.047-1.769-6.333-2.484-9.725-3.234C710.706,635,708.785,635.973,705.751,637.137Z" transform="translate(-429.889 -475.636)" fill="#ae6e79"/>
    <path id="Path_1111" data-name="Path 1111" d="M900.039,535.586c1.792,2.348,2.173,5.5,1.979,8.438s-.893,5.848-1,8.8c-.142,4.049.834,8.086.67,12.122a34.874,34.874,0,0,1-1.578,8.3c-.935,3.2-2.287,6.637-5.24,8.173-3.92,2.041-12.141.893-16.265,2.49.375-2.338,3.972-5.725,4.347-8.063a15.056,15.056,0,0,0,.242-4.9,10.836,10.836,0,0,0-3.008-5.427,15.871,15.871,0,0,0-8.561-4.851c-3.283-.6-11.32-.107-13.946,1.966-.323-2.141,5.692-4.2,7.807-4.667,1.054-.236,2.264-.1,3.108-.773,1.617-1.268.443-3.794.521-5.822.061-1.617,1.006-3.1,1.2-4.716.323-2.587-1.365-5.223-.7-7.762a20.139,20.139,0,0,1,1.171-2.655c1.151-2.733.647-5.851.032-8.755-.382-1.824-.754-3.881.262-5.437.941-1.452,3.613,3.719,5.324,3.48,5.65-.792,10.764-4.981,15.327-1.552,2.325,1.746,2.629,3.558,3.558,6.051C896.191,532.4,898.529,533.62,900.039,535.586Z" transform="translate(-589.335 -398.718)" opacity="0.1"/>
    <path id="Path_1112" data-name="Path 1112" d="M903.039,531.012c1.792,2.348,2.173,5.5,1.979,8.438s-.893,5.848-1,8.8c-.142,4.049.834,8.086.669,12.122a34.875,34.875,0,0,1-1.578,8.3c-.935,3.2-2.287,6.637-5.24,8.173-3.92,2.041-12.141.893-16.265,2.49.375-2.338,3.972-5.725,4.347-8.063a15.058,15.058,0,0,0,.242-4.9,10.836,10.836,0,0,0-3.008-5.427,15.87,15.87,0,0,0-8.561-4.851c-3.283-.6-11.32-.107-13.946,1.966-.323-2.141,5.692-4.2,7.807-4.667,1.054-.236,2.264-.1,3.108-.773,1.617-1.268.443-3.794.521-5.822.061-1.617,1.006-3.1,1.2-4.716.323-2.587-1.365-5.223-.7-7.762a20.142,20.142,0,0,1,1.171-2.655c1.151-2.733.647-5.851.032-8.755-.382-1.824-.754-3.881.262-5.437.941-1.452,2.781-2,4.492-2.245a22.129,22.129,0,0,1,16.171,4.172c2.325,1.747,2.629,3.558,3.558,6.051C899.191,527.829,901.529,529.046,903.039,531.012Z" transform="translate(-591.364 -394.144)" fill="#4c4981"/>
    <path id="Path_1113" data-name="Path 1113" d="M329.7,494.228l17.585,64.989a4.059,4.059,0,0,0,3.529,2.979l79.149,7.6a4.056,4.056,0,0,0,4.327-5.007L415.036,486.4a4.056,4.056,0,0,0-4.243-3.076l-77.49,5.8a4.056,4.056,0,0,0-3.6,5.107Z" transform="translate(-232.029 -372.684)" fill="#9c9ca1"/>
    <ellipse id="Ellipse_47" data-name="Ellipse 47" cx="8.7" cy="8.813" rx="8.7" ry="8.813" transform="translate(245.871 116.599)" fill="#fff"/>
    <path id="Path_1114" data-name="Path 1114" d="M828.269,479.019s1.834,5.453-3.577,7.746l-.692,1.21,3.389,3.344s4.179-7.623,3.726-10.33C831.115,480.989,830.468,478.239,828.269,479.019Z" transform="translate(-566.553 -369.684)" fill="#fff"/>
    <circle id="Ellipse_48" data-name="Ellipse 48" cx="8.39" cy="8.39" r="8.39" transform="translate(247.181 117.447)" fill="#9677f1"/>
    <path id="Path_1115" data-name="Path 1115" d="M823.844,453.947l-1.333-2.2-1.941-.275c.414-7.241-1.465-9.4-1.465-9.4l-.437-.042-1.9-.184-3.577-3.713V437.08c5.026.6,7.8,2.985,9.3,5.783C825.147,447.772,823.844,453.947,823.844,453.947Z" transform="translate(-559.24 -341.403)" fill="#9677f1"/>
    <path id="Path_1116" data-name="Path 1116" d="M818.719,442.9v1.333l-1.9-.184-3.577-3.713S818.774,441.579,818.719,442.9Z" transform="translate(-559.274 -343.609)" stroke="#4c4981" stroke-miterlimit="10" stroke-width="1" opacity="0.1"/>
    <path id="Path_1117" data-name="Path 1117" d="M843.342,466.071l-1.333-2.2V455C844.646,459.9,843.342,466.071,843.342,466.071Z" transform="translate(-578.739 -353.527)" stroke="#4c4981" stroke-miterlimit="10" stroke-width="1" opacity="0.1"/>
    <ellipse id="Ellipse_49" data-name="Ellipse 49" cx="4.667" cy="8.513" rx="4.667" ry="8.513" transform="translate(227.514 116.875) rotate(-30)" fill="#fff"/>
    <path id="Path_1118" data-name="Path 1118" d="M741.957,502.173c2.351,4.072,5.236,6.792,3,8.086s-8.732.647-11.084-3.428-.217-9.7,2.015-11S739.6,498.092,741.957,502.173Z" transform="translate(-504.886 -380.972)" fill="#9677f1"/>
    <path id="Path_1119" data-name="Path 1119" d="M730.6,380.172c0,13.011-8.9,25.551-21.915,25.551a23.562,23.562,0,0,1,0-47.123C721.693,358.613,730.6,367.158,730.6,380.172Z" transform="translate(-472.591 -288.305)" opacity="0.1"/>
    <circle id="Ellipse_50" data-name="Ellipse 50" cx="23.562" cy="23.562" r="23.562" transform="translate(212.529 69.661)" fill="#ae6e79"/>
    <path id="Path_1120" data-name="Path 1120" d="M686.012,333c2.8,1.032,4.463,3.93,6.979,5.544,3.558,2.264,8.189,1.679,12.251.56,2.264-.618,4.631-1.371,6.86-.686a1.941,1.941,0,0,0,1.045.149c.485-.139.724-.676.883-1.155,2.756-8.215,1.517-17.52-2.642-25.12a16.239,16.239,0,0,0-4.133-5.217,17.244,17.244,0,0,0-4.7-2.371,46.9,46.9,0,0,0-9.34-2.306,5.8,5.8,0,0,0-1.7-.055,7.138,7.138,0,0,0-2.173.922,22.246,22.246,0,0,1-9.657,2.623c-4.528.171-9.7-.9-13.193,2.008-4.2,3.483-3.157,10.279-5.883,15.007-1.8,3.128-5.285,5.4-5.857,8.959a8.273,8.273,0,0,0,.2,3.257,13.253,13.253,0,0,0,12.29,9.822,4.664,4.664,0,0,0,2.51-.514,5.677,5.677,0,0,0,1.323-1.258C674.78,338.78,679.017,330.422,686.012,333Z" transform="translate(-451.992 -250.215)" fill="#444053"/>
    <path id="Path_1121" data-name="Path 1121" d="M714.01,386.613c-.159.479-.4,1.016-.883,1.155a1.94,1.94,0,0,1-1.045-.149c-2.228-.686-4.609.068-6.857.686-4.065,1.119-8.707,1.717-12.251-.56-2.519-1.617-4.175-4.528-6.983-5.544-7-2.587-11.233,5.783-14.945,10.169a5.678,5.678,0,0,1-1.323,1.258,4.664,4.664,0,0,1-2.51.514,13.287,13.287,0,0,1-12.29-9.822c-.074-.323-.139-.647-.188-.97a.157.157,0,0,1-.016.084,8.27,8.27,0,0,0,.2,3.257,13.256,13.256,0,0,0,12.29,9.822,4.664,4.664,0,0,0,2.51-.514,5.676,5.676,0,0,0,1.323-1.258c3.713-4.386,7.95-12.743,14.945-10.168,2.807,1.032,4.463,3.93,6.983,5.544,3.558,2.264,8.186,1.679,12.251.56,2.264-.618,4.628-1.371,6.857-.686a1.941,1.941,0,0,0,1.045.149c.485-.139.724-.676.883-1.155a29.2,29.2,0,0,0,1.449-10.434A28.718,28.718,0,0,1,714.01,386.613Z" transform="translate(-451.971 -301.803)" opacity="0.1"/>
  </g>
</svg>
