<svg xmlns="http://www.w3.org/2000/svg" width="370.001" height="205.207" viewBox="0 0 370.001 205.207">
  <g id="undraw_pizza_sharing_wxop" transform="translate(-0.011)">
    <path id="Path_1122" data-name="Path 1122" d="M420.993,340.313q-.618,1.332-1.233,2.629-.959,2.015-1.894,3.951c-.277.572-.554,1.133-.824,1.695-3.056,6.243-5.909,11.765-8.333,16.306a26.014,26.014,0,0,1-22.674,13.762l-53.886.586h-.569l-4.619.05-3.951.043-12.106.139h-.49l-6.169.068h-.188l-38.021.412-33.938.355-3.948.043-24.518.267h-.039l-15.9.171h-.171l-50.28.544L122.2,381.5a31.27,31.27,0,0,1-3.834-.192h0c-.434-.05-.867-.107-1.3-.174a31.049,31.049,0,0,1-18.225-9.786A71.179,71.179,0,0,1,84.5,346.894q-.686-1.951-1.279-3.951c-10.948-37.022,2.4-84.765,26.419-116.706q1.51-2,3.07-3.909l.025-.028a98.447,98.447,0,0,1,24.493-22.031c15.635-9.562,32.957-12.255,50-4.228A111.837,111.837,0,0,0,228.15,206.9c1.318.085,2.637.149,3.948.188,29.93.942,57.98-9.843,90.919-16.8,1.311-.277,2.626-.551,3.951-.81,23.5-4.676,49.565-7.142,80.565-1.958a67.188,67.188,0,0,1,9.509,2.274q2.05.661,3.951,1.421c14.8,6.019,22.866,17.141,26.295,31.077q.487,1.94.842,3.948C454.21,259.756,436.4,307.306,420.993,340.313Z" transform="translate(-79.34 -176.313)" fill="#f2f2f2"/>
    <path id="Path_1123" data-name="Path 1123" d="M262.975,351.733a33.831,33.831,0,0,1-.664,3.951h33.295v-3.951Zm-27.8,22.319,3.948-.032v-9.761c-1.354-.06-2.672-.121-3.948-.185Zm-82.764-22.319v3.951h70.534v-3.951Zm301.92-120.654H428.031V200q-1.9-.775-3.951-1.421v32.513H333.988V198.25c-1.325.259-2.64.533-3.951.81v32.019H239.118V215.864c-1.311-.039-2.629-.1-3.948-.188v15.4H144.251V209.049a98.447,98.447,0,0,0-24.493,22.031h-.025v.028q-1.563,1.919-3.07,3.909h3.07V351.733H90.24q.59,2,1.279,3.951h28.21v33.266a30.911,30.911,0,0,0,4.335.991c.43.068.863.124,1.3.174h0a31.258,31.258,0,0,0,3.834.192l15.041-.163V355.677H235.17v33.476l3.948-.043V355.684h90.919V388.13l3.951-.043v-32.4h90.074v1.695c.27-.561.547-1.123.824-1.695q.934-1.933,1.894-3.951.615-1.3,1.233-2.63V235.041h27.155Q454.809,233.019,454.326,231.079ZM144.251,351.733V235.027H235.17V351.733Zm94.874,0V235.027h90.912V351.733Zm184.944,0H333.988V235.027h90.074Z" transform="translate(-86.36 -185.103)" opacity="0.1"/>
    <path id="Path_1124" data-name="Path 1124" d="M519.367,426.235a66.426,66.426,0,0,0-20.378-22.83,4.509,4.509,0,0,0-2.036-.768c1-6.567.789-13.823-2.917-19.295-8.795-12.984-53.6.416-53.6.416-31.408-10.887-58.63,2.931-58.63,2.931s-34.759-5.444-50.671-1.254c-7.5,1.976-9.327,9.63-9.157,17.17h-.025a4.424,4.424,0,0,0-3.465,1.663c-4.232,5.287-17.017,21.572-16.669,24.717.419,3.77,14.238,52.764,13.613,76.425l193.049-2.132s3.2-47.615,11.2-73.678a4.42,4.42,0,0,0-.309-3.365Z" transform="translate(-222.752 -300.774)" fill="#3f3d56"/>
    <path id="Path_1125" data-name="Path 1125" d="M267.88,332.545l7.956-15.915,6.7,30.989L282.612,362Z" transform="translate(-172.686 -204.121)" opacity="0.1"/>
    <path id="Path_1126" data-name="Path 1126" d="M750.524,332.545l-7.956-15.915-9.228,29.383,1.777,16.7Z" transform="translate(-472.752 -204.121)" opacity="0.1"/>
    <path id="Path_1127" data-name="Path 1127" d="M307.48,399.958l151.337-.828,1.677,16.75-152.431-.419Z" transform="translate(-198.215 -257.306)" fill="#3f3d56"/>
    <path id="Path_1128" data-name="Path 1128" d="M307.48,399.958l151.337-.828,1.677,16.75-152.431-.419Z" transform="translate(-198.215 -257.306)" opacity="0.1"/>
    <rect id="Rectangle_727" data-name="Rectangle 727" width="153.86" height="18.008" rx="9.004" transform="translate(109.215 156.944)" fill="#fff" opacity="0.1"/>
    <path id="Path_1129" data-name="Path 1129" d="M711.846,432.591s-.512-.711-1.116-.327a38.512,38.512,0,0,0-2.971,3.628c-.654.849-1.3,1.706-1.819,2.388-.636.839-1.066,1.421-1.066,1.421l-.256.48-1.553,2.9-1.46,2.729-.355,1.286,4.932,1.677,5.614-1.531-.242-1.041-.043-.178.046-2.395.128-6.751.06-3.038v-.355Z" transform="translate(-480.257 -335.89)" fill="#ffe09c"/>
    <path id="Path_1130" data-name="Path 1130" d="M699.29,475.176s5.33,1.9,8.063.906a14.583,14.583,0,0,0,3.294-1.482s.991-.519-.355-2.21c0,0-3.45,2.114-6.716,1.283l-3.265-.835Z" transform="translate(-478.994 -361.831)" fill="#e7c4c3"/>
    <ellipse id="Ellipse_51" data-name="Ellipse 51" cx="1.745" cy="1.478" rx="1.745" ry="1.478" transform="translate(223.241 109.271) rotate(-30.37)" fill="#ff7f8e"/>
    <ellipse id="Ellipse_52" data-name="Ellipse 52" cx="1.745" cy="1.478" rx="1.745" ry="1.478" transform="translate(226.786 105.022) rotate(-30.37)" fill="#ff7f8e"/>
    <path id="Path_1131" data-name="Path 1131" d="M725.538,464.2a1.826,1.826,0,0,0-1.663.132,1.5,1.5,0,1,0,1.492,2.551c.057-.036.114-.071.167-.11l-.043-.178Z" transform="translate(-494.241 -356.464)" fill="#ff7f8e"/>
    <path id="Path_1132" data-name="Path 1132" d="M708.812,455.383a1.361,1.361,0,0,0-.91-.633l-1.553,2.9a1.816,1.816,0,0,0,1.706-.114A1.627,1.627,0,0,0,708.812,455.383Z" transform="translate(-483.545 -350.459)" fill="#ff7f8e"/>
    <path id="Path_1133" data-name="Path 1133" d="M717.5,443.348a1.421,1.421,0,0,0-1.212-.668c-.654.849-1.3,1.706-1.819,2.388l.021.043a1.768,1.768,0,0,0,3.01-1.762Z" transform="translate(-488.78 -342.678)" fill="#ff7f8e"/>
    <path id="Path_1134" data-name="Path 1134" d="M728.141,436.9a2,2,0,0,0-.522.213,1.627,1.627,0,0,0-.757,2.157,1.421,1.421,0,0,0,1.219.668Z" transform="translate(-496.655 -338.952)" fill="#ff7f8e"/>
    <path id="Path_1135" data-name="Path 1135" d="M706.974,467.316l-.284-.48a3.06,3.06,0,0,0,1.151-.64c.021-.021.039-.046.057-.068.355-.448.281.483.281.483S707.3,467.355,706.974,467.316Z" transform="translate(-483.764 -357.717)" fill="#94cc79"/>
    <path id="Path_1136" data-name="Path 1136" d="M718.774,465.222l-.284-.483a3.083,3.083,0,0,0,1.151-.64c0-.021.039-.043.057-.068.355-.444.281.483.281.483S719.1,465.261,718.774,465.222Z" transform="translate(-491.371 -356.365)" fill="#94cc79"/>
    <path id="Path_1137" data-name="Path 1137" d="M717.694,459.625l-.284-.483a3.083,3.083,0,0,0,1.151-.636c.018-.025.039-.046.057-.068.355-.448.281.48.281.48S718.025,459.657,717.694,459.625Z" transform="translate(-490.675 -352.759)" fill="#94cc79"/>
    <path id="Path_1138" data-name="Path 1138" d="M719.124,449.519l-.284-.483a3.084,3.084,0,0,0,1.151-.64c0-.021.039-.043.057-.068.355-.448.281.483.281.483S719.455,449.555,719.124,449.519Z" transform="translate(-491.597 -346.242)" fill="#94cc79"/>
    <path id="Path_1139" data-name="Path 1139" d="M725.9,437.3l-.281-.483a3.056,3.056,0,0,0,1.148-.64.513.513,0,0,0,.057-.067c.355-.444.284.483.284.483S726.231,437.337,725.9,437.3Z" transform="translate(-495.968 -338.366)" fill="#94cc79"/>
    <path id="Path_1140" data-name="Path 1140" d="M725.134,449.775l-.284-.483a3.056,3.056,0,0,0,1.151-.636c0-.025.039-.046.057-.068.355-.448.281.48.281.48S725.465,449.814,725.134,449.775Z" transform="translate(-495.471 -346.409)" fill="#94cc79"/>
    <path id="Path_1141" data-name="Path 1141" d="M696.56,447.72s-.682,1.777.874,1.492a6.162,6.162,0,0,0,1.375-2.811s3.365-7.373,4.36-8.048c0,0,4.385-5.994,4.857-6.083,0,0,.153-.583-1.379.65s-4.886,5.98-4.886,5.98l-3.2,5.213-.753,2.079Z" transform="translate(-477.138 -335.879)" fill="#e7c4c3"/>
    <path id="Path_1142" data-name="Path 1142" d="M696.56,447.72s-.682,1.777.874,1.492a6.162,6.162,0,0,0,1.375-2.811s3.365-7.373,4.36-8.048c0,0,4.385-5.994,4.857-6.083,0,0,.153-.583-1.379.65s-4.886,5.98-4.886,5.98l-3.2,5.213-.753,2.079Z" transform="translate(-477.138 -335.879)" fill="#fff" opacity="0.2"/>
    <path id="Path_1143" data-name="Path 1143" d="M548.08,577.236a42.714,42.714,0,0,0,2.16,5.635,52.323,52.323,0,0,0,7.2-2.054,20.228,20.228,0,0,0-1.5-2.036,7.147,7.147,0,0,0-2.036-1.563,5.636,5.636,0,0,0-2.487-.036Q549.761,577.268,548.08,577.236Z" transform="translate(-381.514 -429.303)" fill="#fbbebe"/>
    <path id="Path_1144" data-name="Path 1144" d="M520.31,574.608a4.523,4.523,0,0,1-2.466-2.8A9.041,9.041,0,0,0,516,568.45a1.1,1.1,0,0,0-.831.625,10.448,10.448,0,0,1-.494.974c-.391.569-1.066.846-1.581,1.329s-.8,1.219-1.34,1.706a5.374,5.374,0,0,1-2.512.966,16.046,16.046,0,0,0-3.937,1.457,6.609,6.609,0,0,1-1.457.654,5.38,5.38,0,0,1-1.706.057l-3.909-.277a3.117,3.117,0,0,0-1.045.043,1.9,1.9,0,0,0-1.244,1.965,3.056,3.056,0,0,0,1.237,2.107,8.339,8.339,0,0,0,2.232,1.126,65.736,65.736,0,0,0,10.5,3v.775a18.069,18.069,0,0,0,7.992,1.862,1.263,1.263,0,0,0,.6-.1,1.294,1.294,0,0,0,.5-.767,31,31,0,0,0,1.631-8.528,6.477,6.477,0,0,0-.167-2.192c-.213-.711.519-.409-.16-.686" transform="translate(-347.899 -423.758)" fill="#2f2e41"/>
    <path id="Path_1145" data-name="Path 1145" d="M636.058,538.615c-11.609.711-23.1-2.7-34.7-3.066a17.052,17.052,0,0,0-4.317.277,21.032,21.032,0,0,0-4.264,1.656c-6.236,2.9-12.682,5.3-19.124,7.7l-7.4,2.758a11.385,11.385,0,0,1-4.584,1.013c-.711-.043-1.574-.149-1.969.437-1.2,1.777-.636,4.4.16,6.4.256.647.711,1.35,1.386,1.421a4.224,4.224,0,0,0,1.421-.355c1.347-.355,2.69.547,4.076.693,1.713.181,3.3-.792,4.918-1.389,2.679-.991,5.611-.959,8.429-1.421,4.726-.789,9.1-2.981,13.2-5.479a15.405,15.405,0,0,1,4.925-2.32,13.377,13.377,0,0,1,6.193.711,142.588,142.588,0,0,1,14.192,4.832,65.477,65.477,0,0,0,7.419,2.708,26.838,26.838,0,0,0,16.622-.97c1.855-.736,3.877-2.033,3.983-4.036.06-1.144-.828-2.132-1.421-3.127-.377-.629-.757-1.254-1.172-1.858C642.014,542.257,639.583,538.405,636.058,538.615Z" transform="translate(-388.558 -402.526)" fill="#2f2e41"/>
    <path id="Path_1146" data-name="Path 1146" d="M636.058,538.615c-11.609.711-23.1-2.7-34.7-3.066a17.052,17.052,0,0,0-4.317.277,21.032,21.032,0,0,0-4.264,1.656c-6.236,2.9-12.682,5.3-19.124,7.7l-7.4,2.758a11.385,11.385,0,0,1-4.584,1.013c-.711-.043-1.574-.149-1.969.437-1.2,1.777-.636,4.4.16,6.4.256.647.711,1.35,1.386,1.421a4.224,4.224,0,0,0,1.421-.355c1.347-.355,2.69.547,4.076.693,1.713.181,3.3-.792,4.918-1.389,2.679-.991,5.611-.959,8.429-1.421,4.726-.789,9.1-2.981,13.2-5.479a15.405,15.405,0,0,1,4.925-2.32,13.377,13.377,0,0,1,6.193.711,142.588,142.588,0,0,1,14.192,4.832,65.477,65.477,0,0,0,7.419,2.708,26.838,26.838,0,0,0,16.622-.97c1.855-.736,3.877-2.033,3.983-4.036.06-1.144-.828-2.132-1.421-3.127-.377-.629-.757-1.254-1.172-1.858C642.014,542.257,639.583,538.405,636.058,538.615Z" transform="translate(-388.558 -402.526)" opacity="0.1"/>
    <path id="Path_1147" data-name="Path 1147" d="M610.8,570.406q2.722.927,5.5,1.709c1.034-1.7,2.971-2.882,3.411-4.822a.331.331,0,0,0-.21-.448,10.244,10.244,0,0,0-4.3-1.261c-1.194-.075-1.738,1.169-2.281,2.047C612.7,567.983,611.287,570.573,610.8,570.406Z" transform="translate(-421.947 -421.908)" fill="#fbbebe"/>
    <path id="Path_1148" data-name="Path 1148" d="M585.424,570.631a3.976,3.976,0,0,1-2.672-1.755c-.256-.448-.529-1.066-1.041-1.02s-.711.6-.8,1.066a30.274,30.274,0,0,1-1.5,5.163,9.689,9.689,0,0,1-3.2,4.221c-.675.466-1.421.817-2.082,1.308a13.234,13.234,0,0,1-1.777,1.329,9.484,9.484,0,0,1-1.35.5,9.442,9.442,0,0,0-1.933.942,3.844,3.844,0,0,0-1.315,1.258,1.837,1.837,0,0,0-.11,1.777,1.9,1.9,0,0,0,1.29.881,5.5,5.5,0,0,0,1.6.043c2.114-.156,4.228-.355,6.343-.533a18.543,18.543,0,0,0,2.658-.355c.466-.114.917-.259,1.379-.38a11.608,11.608,0,0,1,2.416-.355,2.132,2.132,0,0,1,.711.064c.49.16.835.647,1.343.746a2.132,2.132,0,0,0,.956-.128,22.312,22.312,0,0,1,4.7-.49c.711-.036,1.507-.167,1.826-.789.4-.775-.263-1.642-.522-2.487a7.514,7.514,0,0,1-.22-1.624,9.884,9.884,0,0,0-1.165-3.855c-.537-.988-1.272-2.082-.9-3.145a2.864,2.864,0,0,0,.355-1.066C590.3,570.247,586.387,570.833,585.424,570.631Z" transform="translate(-394.013 -423.373)" fill="#2f2e41"/>
    <path id="Path_1149" data-name="Path 1149" d="M709.062,473.3a9.086,9.086,0,0,1-4.619-4.594c-.2-.441-.355-.9-.54-1.343a10.255,10.255,0,0,0-2.764-3.841,1.336,1.336,0,0,0-1.027-.434,1.1,1.1,0,0,0-.753.81,3.218,3.218,0,0,0-.078,1.24,22.188,22.188,0,0,0,.5,2.9l.561,2.562a4.7,4.7,0,0,0,.355,1.144,3.987,3.987,0,0,0,.942,1.13c.515.476,1.038.935,1.567,1.382a4.4,4.4,0,0,0,2.718,1.208,14.925,14.925,0,0,1,6.6,2.548c-.025,0,0-1.72-.043-1.915a2.528,2.528,0,0,0-.494-1.375C711.223,473.941,709.982,473.717,709.062,473.3Z" transform="translate(-478.969 -355.835)" fill="#fbbebe"/>
    <path id="Path_1150" data-name="Path 1150" d="M709.062,473.3a9.086,9.086,0,0,1-4.619-4.594c-.2-.441-.355-.9-.54-1.343a10.255,10.255,0,0,0-2.764-3.841,1.336,1.336,0,0,0-1.027-.434,1.1,1.1,0,0,0-.753.81,3.218,3.218,0,0,0-.078,1.24,22.188,22.188,0,0,0,.5,2.9l.561,2.562a4.7,4.7,0,0,0,.355,1.144,3.987,3.987,0,0,0,.942,1.13c.515.476,1.038.935,1.567,1.382a4.4,4.4,0,0,0,2.718,1.208,14.925,14.925,0,0,1,6.6,2.548c-.025,0,0-1.72-.043-1.915a2.528,2.528,0,0,0-.494-1.375C711.223,473.941,709.982,473.717,709.062,473.3Z" transform="translate(-478.969 -355.835)" opacity="0.1"/>
    <ellipse id="Ellipse_53" data-name="Ellipse 53" cx="2.825" cy="2.839" rx="2.825" ry="2.839" transform="translate(250.908 92.17)" fill="#2f2e41"/>
    <path id="Path_1151" data-name="Path 1151" d="M753.058,423.693a3.079,3.079,0,0,0-2.232.323,3.021,3.021,0,0,0-.764,1.038,15.007,15.007,0,0,0-1.468,3.457c-.252,1.038-.295,2.132-.608,3.141-.579,1.89-2.061,3.486-2.232,5.458-.075.881.075,1.915-.572,2.519a3.609,3.609,0,0,1-.5.355,3.836,3.836,0,0,0-1.112,1.144,3.7,3.7,0,0,1-.789,1.091c-.576.426-1.528.38-1.812,1.041s.448,1.421.277,2.132c-.139.583-.789.849-1.237,1.247a4.241,4.241,0,0,0-1.066,2,6.659,6.659,0,0,1-5.4-1.347,17.108,17.108,0,0,1,.839,6.179,2.546,2.546,0,0,1-.5,1.915,33.611,33.611,0,0,1,6.634,1.155,4.6,4.6,0,0,0,2.892,0,4.658,4.658,0,0,0,1.325-1.066c1.194-1.212,2.445-2.53,2.736-4.211a23.72,23.72,0,0,0,.05-2.843,16.233,16.233,0,0,1,.711-3.468,41.054,41.054,0,0,0,1.268-7.135c.128-1.485,1.421-2.683,2.089-4.015,1.279-2.509,2.583-5.124,2.679-7.942C754.313,424.937,753.993,423.8,753.058,423.693Z" transform="translate(-501.074 -330.4)" fill="#2f2e41"/>
    <path id="Path_1152" data-name="Path 1152" d="M753.058,423.693a3.079,3.079,0,0,0-2.232.323,3.021,3.021,0,0,0-.764,1.038,15.007,15.007,0,0,0-1.468,3.457c-.252,1.038-.295,2.132-.608,3.141-.579,1.89-2.061,3.486-2.232,5.458-.075.881.075,1.915-.572,2.519a3.609,3.609,0,0,1-.5.355,3.836,3.836,0,0,0-1.112,1.144,3.7,3.7,0,0,1-.789,1.091c-.576.426-1.528.38-1.812,1.041s.448,1.421.277,2.132c-.139.583-.789.849-1.237,1.247a4.241,4.241,0,0,0-1.066,2,6.659,6.659,0,0,1-5.4-1.347,17.108,17.108,0,0,1,.839,6.179,2.546,2.546,0,0,1-.5,1.915,33.611,33.611,0,0,1,6.634,1.155,4.6,4.6,0,0,0,2.892,0,4.658,4.658,0,0,0,1.325-1.066c1.194-1.212,2.445-2.53,2.736-4.211a23.72,23.72,0,0,0,.05-2.843,16.233,16.233,0,0,1,.711-3.468,41.054,41.054,0,0,0,1.268-7.135c.128-1.485,1.421-2.683,2.089-4.015,1.279-2.509,2.583-5.124,2.679-7.942C754.313,424.937,753.993,423.8,753.058,423.693Z" transform="translate(-501.074 -330.4)" opacity="0.1"/>
    <path id="Path_1153" data-name="Path 1153" d="M675.778,507.786c-2.416-1.151-4.186-3.294-6.14-5.131-3.731-3.5-8.3-5.984-12.22-9.271-2.6-2.175-4.925-4.712-7.782-6.535a19.38,19.38,0,0,0-8.326-2.914,2.291,2.291,0,0,0-1.02.05,2.423,2.423,0,0,0-.949.75,29.819,29.819,0,0,0-3.361,4.619c-4.975,8.439-12.039,15.546-17.891,23.388a1.066,1.066,0,0,0-.071,1.421l1.19,2.331c.664,1.308,1.734,2.843,3.17,2.569A3.484,3.484,0,0,0,624.042,518l5.33-5.106,5.6-5.358c3.283-3.138,6.62-6.35,8.763-10.362,1.67,2.9,4.641,4.8,6.677,7.462.775,1.009,1.421,2.132,2.1,3.2,1.109,1.713,2.37,3.322,3.628,4.929l6.428,8.2a12.5,12.5,0,0,0,2.974,3.017,11.442,11.442,0,0,0,5.167,1.379,68.8,68.8,0,0,0,7.263.263,12.6,12.6,0,0,0,5.412-.974,4.907,4.907,0,0,0,2.935-4.364,6.471,6.471,0,0,0-.927-2.718C683.109,513.34,680.106,509.84,675.778,507.786Z" transform="translate(-426.448 -369.252)" fill="#2f2e41"/>
    <ellipse id="Ellipse_54" data-name="Ellipse 54" cx="2.171" cy="2.185" rx="2.171" ry="2.185" transform="translate(253.3 94.789)" fill="#e8e8f0"/>
    <path id="Path_1154" data-name="Path 1154" d="M791.534,417.15a4.14,4.14,0,0,1,.238,3.134,12.2,12.2,0,0,1-1.4,2.892,14.416,14.416,0,0,1-1.816,2.59c3.351.163,6.6-1.151,9.559-2.747,2.381-1.279,4.754-2.864,6.041-5.259a2.772,2.772,0,0,1-2.221-.409,8.247,8.247,0,0,1-1.7-1.585l-1.684-1.894a7.488,7.488,0,0,1-1.034-1.357,3.807,3.807,0,0,1-.444-2.2,12.464,12.464,0,0,1-2.228,1.848c-1.2.782-2.526,1.35-3.731,2.132-.426.274-1.379.711-1.134,1.276S791.2,416.553,791.534,417.15Z" transform="translate(-536.543 -321.817)" fill="#fbbebe"/>
    <path id="Path_1155" data-name="Path 1155" d="M791.534,417.15a4.14,4.14,0,0,1,.238,3.134,12.2,12.2,0,0,1-1.4,2.892,14.416,14.416,0,0,1-1.816,2.59c3.351.163,6.6-1.151,9.559-2.747,2.381-1.279,4.754-2.864,6.041-5.259a2.772,2.772,0,0,1-2.221-.409,8.247,8.247,0,0,1-1.7-1.585l-1.684-1.894a7.488,7.488,0,0,1-1.034-1.357,3.807,3.807,0,0,1-.444-2.2,12.464,12.464,0,0,1-2.228,1.848c-1.2.782-2.526,1.35-3.731,2.132-.426.274-1.379.711-1.134,1.276S791.2,416.553,791.534,417.15Z" transform="translate(-536.543 -321.817)" opacity="0.1"/>
    <path id="Path_1156" data-name="Path 1156" d="M773.1,429.76a2.829,2.829,0,0,0,0,3.276c.1.121.448.867.6.874a.593.593,0,0,0,.384-.2,25.6,25.6,0,0,0,2.132-2.534,4.687,4.687,0,0,1,2.7-1.777,5.917,5.917,0,0,1,3.727,1.162,3.572,3.572,0,0,1,1.272,1.041,3.423,3.423,0,0,1,.419,1.421,67.192,67.192,0,0,1,.377,9.029,33.236,33.236,0,0,1-.426,6.513c-.213,1.109-.533,2.192-.686,3.308a22.326,22.326,0,0,0-.131,2.967V459a10.568,10.568,0,0,0,.16,2.274,27.124,27.124,0,0,0,.913,2.633,17.348,17.348,0,0,1,.608,3.113l.568,4.3c.178,1.354.309,2.843-.508,3.909-.355.49-.856.885-1.229,1.375-1.421,1.826-.956,4.438-1.542,6.673a8.354,8.354,0,0,1-2.722,4.175,4.528,4.528,0,0,1-3.592,1.283c-1.745-.323-2.793-2.132-3.269-3.862s-.647-3.589-1.677-5.039a12.939,12.939,0,0,0-3.326-2.779,5.663,5.663,0,0,1-2.587-3.372c-.114-.625-.043-1.269-.11-1.9a4.5,4.5,0,0,0-2.779-3.649c-.892-.355-1.993-.473-2.487-1.29a6.054,6.054,0,0,0,2.615-3.511,18.033,18.033,0,0,0,.636-4.431l.3-4.992c.131-2.232.192-4.442,1.176-6.446.437-.9.984-1.738,1.443-2.622a29.581,29.581,0,0,0,1.546-3.848c.711-2.047,1.421-4.093,2.061-6.165a12.284,12.284,0,0,1,1.13-2.871C771.3,431.082,772.089,429.949,773.1,429.76Z" transform="translate(-518.06 -334.097)" fill="#9677f1"/>
    <path id="Path_1157" data-name="Path 1157" d="M765.6,460.685l1.322.046.281-1.993a4.169,4.169,0,0,1,.277-1.166,7.335,7.335,0,0,1,.76-1.112c1.3-1.837,1.2-4.264,1.528-6.506a32.439,32.439,0,0,1,2.9-8.5l2.573-5.717a6.254,6.254,0,0,0,.711-3.155c.025-.885.284-4.1.309-4.975,0-.327-.711-.146-.871-.437-.32-.636-.76,1.087-1.361,1.464a3.351,3.351,0,0,0-1.187,1.727c-.554,1.439-.892,2.953-1.421,4.406a9.334,9.334,0,0,1-2.395,3.909c-.526.462-1.13.824-1.627,1.318-1.6,1.578-1.752,4.069-1.809,6.318C765.562,447.627,765.292,460.685,765.6,460.685Z" transform="translate(-521.647 -332.588)" fill="#2f2e41"/>
    <path id="Path_1158" data-name="Path 1158" d="M797.523,423.485a4.532,4.532,0,0,0-2.345,3.233,16.086,16.086,0,0,1-1.2,3.962c-1.613,2.8-5.721,3.621-6.854,6.652a12.97,12.97,0,0,0-.458,3.134c-.206,2.171-.92,4.264-1.13,6.439a28.352,28.352,0,0,0,.117,5.06l1.421,17.123a22.58,22.58,0,0,1-.43,7.53,7.241,7.241,0,0,0,4.314-.711c1.347-.615,2.58-1.46,3.877-2.175,2.231-1.233,4.694-2.1,6.648-3.745a3.835,3.835,0,0,0,.9-.991,8.279,8.279,0,0,0,.611-2.256,12.305,12.305,0,0,1,.643-1.777,52.876,52.876,0,0,0,1.869-5.28,28.714,28.714,0,0,0,.856-3.624c.156-.974.242-1.961.327-2.946a17.687,17.687,0,0,1,.91-4.527,36.329,36.329,0,0,0,2.1-10.845,5.565,5.565,0,0,0-.11-1.6,8.836,8.836,0,0,0-.867-1.812c-.6-1.123-.956-2.359-1.517-3.5a17.2,17.2,0,0,0-5.874-6.172C800.184,423.858,798.834,422.974,797.523,423.485Z" transform="translate(-534.554 -330.207)" fill="#2f2e41"/>
    <path id="Path_1159" data-name="Path 1159" d="M706.581,491.955a10.326,10.326,0,0,1-2.732-2.079c-.355-.419-.654-.892-1.02-1.3a6.694,6.694,0,0,0-3.44-1.961,16.824,16.824,0,0,0-3.983-.387,7.31,7.31,0,0,0-2.651.32A2.661,2.661,0,0,0,691,488.43a3.113,3.113,0,0,0,1.336,2.786,6.445,6.445,0,0,0,2.672,1.3,21.882,21.882,0,0,0,2.413.281c4.754.5,9,3.084,13.147,5.44q5.49,3.109,11.19,5.806a22.675,22.675,0,0,0,.188-3.436c-.021-.856-.064-2.164-.874-2.669-.942-.586-2.487-.711-3.553-1.066a57.245,57.245,0,0,1-7.16-2.9Q708.436,493.031,706.581,491.955Z" transform="translate(-473.628 -370.74)" fill="#fbbebe"/>
    <ellipse id="Ellipse_55" data-name="Ellipse 55" cx="8.517" cy="8.471" rx="8.517" ry="8.471" transform="matrix(0.254, -0.967, 0.967, 0.254, 243.595, 92.122)" fill="#fbbebe"/>
    <path id="Path_1160" data-name="Path 1160" d="M788.306,448.975a13.645,13.645,0,0,0-1.645,3.063c-1.045,2.153-2.686,4-3.507,6.254-.867,2.374-.839,5.195-2.537,7.06a2.441,2.441,0,0,0-.736,1.066,5.7,5.7,0,0,1-.089.778c-.242.675-1.35.711-1.556,1.4-.06.2-.028.423-.1.622-.17.444-.757.512-1.151.782-.824.558-.657,1.851-1.244,2.658a2.228,2.228,0,0,1-2.132.739,7.58,7.58,0,0,1-2.2-.821,2.021,2.021,0,0,0-.789-.245,1.66,1.66,0,0,0-.913.309,5.642,5.642,0,0,0-2.288,4.829,15.833,15.833,0,0,0,1.3,5.394,2.343,2.343,0,0,0,.434.8,1.89,1.89,0,0,0,2.111.156,9.625,9.625,0,0,1,2.054-.92c1.311-.238,2.594.664,3.909.59a5.494,5.494,0,0,0,2.644-1.169,14.518,14.518,0,0,0,3.553-3.013c.583-.76,1.009-1.624,1.517-2.438a28.2,28.2,0,0,1,2.132-2.843l4.882-5.977a12.892,12.892,0,0,0,1.315-1.816,12.743,12.743,0,0,0,1.023-2.729,20.975,20.975,0,0,0,1.013-4.865,19.189,19.189,0,0,0-.355-4.076,14.139,14.139,0,0,0-1.066-3.88C792.883,448.47,790.3,446.647,788.306,448.975Z" transform="translate(-522.915 -346.038)" fill="#2f2e41"/>
    <path id="Path_1161" data-name="Path 1161" d="M799.757,379.908a9.534,9.534,0,0,0-1.819-8.492,11.319,11.319,0,0,0-6.5-13.123,11,11,0,0,0-21.1-4.95c-3.2-1.659-6.581-1.482-7.7.469-1.166,2.04.586,5.248,3.909,7.164a10.422,10.422,0,0,0,3.386,1.254,11.015,11.015,0,0,0,6.13,6.488,11.292,11.292,0,0,0,5.827,10.358,9.437,9.437,0,0,0,1.574,4.061,7.137,7.137,0,0,0-.249.778,7.171,7.171,0,1,0,13.862,3.646,7.59,7.59,0,0,0,.142-3.237A9.63,9.63,0,0,0,799.757,379.908Z" transform="translate(-519.598 -280.773)" fill="#3f3d56"/>
    <path id="Path_1162" data-name="Path 1162" d="M764.834,354.843c1.116-1.951,4.495-2.132,7.7-.469a11.186,11.186,0,0,1,12.931-6.336c.238.06.473.135.711.213a10.737,10.737,0,0,0-2.9-1.244,11.194,11.194,0,0,0-12.931,6.336c-3.2-1.659-6.581-1.482-7.7.469-1.166,2.04.586,5.248,3.909,7.164a11.132,11.132,0,0,0,1.961.888C765.339,359.924,763.7,356.832,764.834,354.843Z" transform="translate(-519.604 -280.773)" opacity="0.1"/>
    <path id="Path_1163" data-name="Path 1163" d="M799.6,414a7.094,7.094,0,0,1,.249-.778,9.452,9.452,0,0,1-1.574-4.065,11.286,11.286,0,0,1-5.828-10.354,11.015,11.015,0,0,1-6.13-6.488,9.8,9.8,0,0,1-2.029-.593,10.976,10.976,0,0,0,5.959,6.041,11.292,11.292,0,0,0,5.827,10.358,9.439,9.439,0,0,0,1.574,4.061,7.1,7.1,0,0,0-.249.778,7.3,7.3,0,0,0,5.006,8.986A7.405,7.405,0,0,1,799.6,414Z" transform="translate(-533.79 -309.826)" opacity="0.1"/>
    <ellipse id="Ellipse_56" data-name="Ellipse 56" cx="1.304" cy="1.745" rx="1.304" ry="1.745" transform="translate(254.461 86.978) rotate(-37.22)" fill="#fbbebe"/>
    <circle id="Ellipse_57" data-name="Ellipse 57" cx="5.788" cy="5.788" r="5.788" transform="translate(147.652 2.402)" fill="#3f3d56"/>
    <ellipse id="Ellipse_58" data-name="Ellipse 58" cx="16.235" cy="21.036" rx="16.235" ry="21.036" transform="translate(149.766 0)" fill="#3f3d56"/>
    <path id="Path_1164" data-name="Path 1164" d="M517.029,229.369c-8.134,0-14.871-7.75-16.054-17.859a27.386,27.386,0,0,0-.185,3.177c0,11.616,7.27,21.036,16.239,21.036s16.235-9.42,16.235-21.036a27.407,27.407,0,0,0-.185-3.177C531.9,221.633,525.162,229.369,517.029,229.369Z" transform="translate(-351.028 -193.651)" opacity="0.1"/>
    <path id="Path_1165" data-name="Path 1165" d="M599.278,383.267c-.355,1.421-1.851,2.58-3.514,3.379-3.5,1.688-7.817,2.189-12.007,2.359a20.137,20.137,0,0,1-3.2-.06,9.191,9.191,0,0,1-5.494-2.526,1.013,1.013,0,0,1-.355-.576,1.024,1.024,0,0,1,.355-.711c2.235-2.438,5.959-3.937,9.7-5,2.843-.821,7.8-2.946,10.9-2.658C598.674,377.731,599.718,381.455,599.278,383.267Z" transform="translate(-398.681 -300.624)" fill="#3f3d56"/>
    <path id="Path_1166" data-name="Path 1166" d="M599.278,383.267c-.355,1.421-1.851,2.58-3.514,3.379-3.5,1.688-7.817,2.189-12.007,2.359a20.137,20.137,0,0,1-3.2-.06,9.191,9.191,0,0,1-5.494-2.526,1.013,1.013,0,0,1-.355-.576,1.024,1.024,0,0,1,.355-.711c2.235-2.438,5.959-3.937,9.7-5,2.843-.821,7.8-2.946,10.9-2.658C598.674,377.731,599.718,381.455,599.278,383.267Z" transform="translate(-398.681 -300.624)" opacity="0.1"/>
    <path id="Path_1167" data-name="Path 1167" d="M516.836,321.258a8.863,8.863,0,0,0-.537,6.751,11.808,11.808,0,0,0,3.962,5.607c4.538,3.642,10.763,4.143,16.566,4.1a128.159,128.159,0,0,0,15.215-1.045,18.247,18.247,0,0,0,4.936-1.144,7.6,7.6,0,0,0,4.232-4.264,5.178,5.178,0,0,0-1.421-5.643c-1.421-1.144-3.351-1.3-5.159-1.421l-10.358-.622A17.33,17.33,0,0,1,547.9,321.2c1.652-1,2.75-2.679,3.955-4.189a54.355,54.355,0,0,1,6.041-6.2,9.021,9.021,0,0,0,3,4.857c1.439,1.336,3.1,2.409,4.6,3.678,3.624,3.077,6.233,7.256,10.045,10.1a19.687,19.687,0,0,0,7.2-3.6l-1.482-2.683a1.776,1.776,0,0,0-.558-.711c-.423-.256-.963-.124-1.45-.2-1.3-.2-1.869-1.7-2.381-2.91-1.4-3.333-4.086-5.916-6.4-8.709a43.647,43.647,0,0,1-4.459-6.6A22.52,22.52,0,0,0,563.5,300a5.667,5.667,0,0,0-4.1-2.132,7.922,7.922,0,0,0-3.909,1.421,103.578,103.578,0,0,0-10.6,7.224,24.764,24.764,0,0,1-5.6,3.667c-.874.355-1.777.6-2.633,1.027a17.746,17.746,0,0,0-3.784,3.17A25.143,25.143,0,0,1,516.836,321.258Z" transform="translate(-360.749 -249.324)" fill="#605d82"/>
    <path id="Path_1168" data-name="Path 1168" d="M555.4,249.122a10.577,10.577,0,0,1-.778,3.607,4.5,4.5,0,0,1-2.587,2.487,5.546,5.546,0,0,1-2.523.082,4.876,4.876,0,0,1-2.057-.711,4.389,4.389,0,0,1-1.631-3.024c-.178-1.165-.1-2.356-.21-3.528a19.376,19.376,0,0,0-.54-2.807c-.075-.306-.153-.611-.231-.917s-.146-.611-.213-.917-.121-.572-.171-.863-.078-.49-.1-.736a8.308,8.308,0,0,0-.355-2.16,6.482,6.482,0,0,0-.757-1.279,4.786,4.786,0,0,1-.355-.558,2.644,2.644,0,0,1-.437-1.681,1.424,1.424,0,0,1,.068-.27.819.819,0,0,1,.039-.1.81.81,0,0,0,.551-.515,1.538,1.538,0,0,0-.068-.8,4.974,4.974,0,0,0-.43-1.027c-.117-.213-.519-.6-.522-.846,0-.494.959-.892,1.35-1.087a7.515,7.515,0,0,1,3.859-.782,2.835,2.835,0,0,1,2.249,1.038,7.072,7.072,0,0,1,.551,2.228.619.619,0,0,0,.131.3.6.6,0,0,0,.334.153,1.989,1.989,0,0,0,.633.025h0a.9.9,0,0,0,.167-.025,2.239,2.239,0,0,0,.91-.391c.178-.05.355-.085.529-.117h.021c.711,2.231.8,4.619,1.379,6.9a16.756,16.756,0,0,1,.757,3.411v.153c0,.377-.021.753,0,1.126a3.338,3.338,0,0,0,.057.5,7.6,7.6,0,0,0,.234.782h0c.025.082.05.163.071.249a1.676,1.676,0,0,1,.043.181h0A6.705,6.705,0,0,1,555.4,249.122Z" transform="translate(-377.652 -206.006)" fill="#fbbebe"/>
    <circle id="Ellipse_59" data-name="Ellipse 59" cx="8.329" cy="8.329" r="8.329" transform="translate(159.513 11.861)" fill="#fbbebe"/>
    <path id="Path_1169" data-name="Path 1169" d="M612.832,277.36a13.669,13.669,0,0,0-2.349-6.321l.65,3.855a1.446,1.446,0,0,1-1.51-.465,4.618,4.618,0,0,1-.792-1.471,30.2,30.2,0,0,0-3.685-6.609c-5.3-.444-10.546-2.64-15.208-5.206s-9.029-5.632-13.634-8.3a20,20,0,0,0-2.487-1.272c-1.439-.576-3.056-.874-4.42-1.553l-.274-.146a5.5,5.5,0,0,1-.874-.583,4.746,4.746,0,0,1-.416-.387,9.146,9.146,0,0,1-1.6-2.669c-.732-1.62-.995-3.578-1.723-5.2a5.148,5.148,0,0,1,1.119-.792h0l.178-.089a5.442,5.442,0,0,1,.9-.327c.178-.05.355-.085.529-.117h.021a5.227,5.227,0,0,1,2.466.2,11.512,11.512,0,0,1,3.113,1.919,50.777,50.777,0,0,1,4.555,3.61c.8.771,1.539,1.617,2.4,2.317a19.056,19.056,0,0,0,2.271,1.507l14.05,8.368c1.585.942,3.173,1.887,4.722,2.889,2.356,1.517,4.619,3.162,6.893,4.808l4.012,2.907a4.4,4.4,0,0,1,1.137,1.066,3.818,3.818,0,0,1,.5,1.539A14.079,14.079,0,0,1,612.832,277.36Z" transform="translate(-392.106 -211.787)" fill="#fbbebe"/>
    <path id="Path_1170" data-name="Path 1170" d="M537.447,261.269c-.565,2.519-3.109,4.044-4.442,6.257-1.656,2.747-.981,5.941-.355,9.089l-3.408,2.935c-.625.537-1.254,1.066-1.926,1.553a25.9,25.9,0,0,1-3.081,1.777l-3.013,1.549a14.449,14.449,0,0,1-2.953,1.251,11.383,11.383,0,0,1-6.041-.434,2.7,2.7,0,0,1-.661-.27,1.084,1.084,0,0,1-.313-.284,1.738,1.738,0,0,1-.2-1.141,53.592,53.592,0,0,1,1.809-9.733A28.307,28.307,0,0,1,517,263.615a29.994,29.994,0,0,1,3.553-5.163,8.293,8.293,0,0,0,1.649-2.132c.5-1.144.306-2.455.409-3.7a7.672,7.672,0,0,1,.732-2.7h0a7.727,7.727,0,0,1,.782-1.293c.139.32.274.64.412.956l.267.625c.117.266.231.537.355.8q.5,1.144.988,2.292a9.591,9.591,0,0,0,1.5,2.669,2.914,2.914,0,0,0,4.989-.384,9.439,9.439,0,0,0,1.02-2.7,8.586,8.586,0,0,0,.114-3.514,43.373,43.373,0,0,0-1.99-6.634,6.69,6.69,0,0,1-.483-2.185,1.216,1.216,0,0,1,.025-.252v-.064a5.444,5.444,0,0,1,.9-.327c.178-.05.355-.085.529-.117q.917,4.975,1.837,9.928a1.367,1.367,0,0,0,.046.235c.085.476.174.949.273,1.421s.185.856.292,1.279h0c.035.142.075.288.114.43h0c.11.391.231.775.355,1.158C536.53,256.572,537.976,258.885,537.447,261.269Z" transform="translate(-357.63 -211.889)" fill="#9677f1"/>
    <path id="Path_1171" data-name="Path 1171" d="M680.5,385.463a2.892,2.892,0,0,0,.274,1.421c.519.952,1.777,1.169,2.843,1.258a84.437,84.437,0,0,0,18.964-.576,2.222,2.222,0,0,0,.967-.3c.892-.625.355-2.15-.633-2.64a12.8,12.8,0,0,0-3.2-.579,10.167,10.167,0,0,1-3-1.3q-3.251-1.869-6.4-3.909c-1.254-.807-2.736-1.667-4.147-1.187C682.34,378.943,680.471,381.338,680.5,385.463Z" transform="translate(-466.877 -300.666)" fill="#2f2e41"/>
    <path id="Path_1172" data-name="Path 1172" d="M501.6,252.971h0l-.032.174-.053.291c-.174.9-.391,1.777-.636,2.676-.679,2.448-1.585,4.861-2.487,7.235l-7.252,19.117c-.611,1.606-1.219,3.2-1.912,4.783-.231.522-.469,1.066-.711,1.585a22,22,0,0,0-1.937,5.916,12.438,12.438,0,0,0-.089,4.054,4.114,4.114,0,0,0,2.349,3.127c.618.242,1.5.565,1.332,1.208-.089.355-.49.526-.853.583a3.265,3.265,0,0,1-2.676-.771c-.675-.6-1.2-1.531-2.1-1.631a3.641,3.641,0,0,0-1.777.565c-2.327,1.066-5.035.32-7.48-.437a2.622,2.622,0,0,1,2.171-1.837,17.766,17.766,0,0,1,3.017-.085,1.571,1.571,0,0,0,.917-.238,1.688,1.688,0,0,0,.508-.831,35.444,35.444,0,0,0,1.439-5.9c.327-2.1.462-4.221.924-6.289.355-1.613.917-3.177,1.393-4.761a99.989,99.989,0,0,0,2.271-9.907,34.941,34.941,0,0,0,.64-4.2c.082-1.173.043-2.352.156-3.518a27.279,27.279,0,0,1,.945-4.484c.434-1.6.863-3.2,1.3-4.8.64-2.367,1.325-4.822,2.946-6.659a6.258,6.258,0,0,1,4.5-2.15,4.3,4.3,0,0,1,.956.1l.156.039a3.767,3.767,0,0,1,.977.405c.5-.32.753-.206,1.087.281a3.152,3.152,0,0,1,.394,1.706A23.641,23.641,0,0,1,501.6,252.971Z" transform="translate(-334.589 -215.75)" fill="#fbbebe"/>
    <path id="Path_1173" data-name="Path 1173" d="M544.094,254.536l-.021.021-.114.114-1.134,1.134-.558-2.338-1.908-8.009a4.3,4.3,0,0,1,.956.1,1.425,1.425,0,0,1,.068-.27l.089.309.647,2.2,1.226,4.175.2.689h0Z" transform="translate(-376.537 -215.428)" fill="#9677f1"/>
    <rect id="Rectangle_728" data-name="Rectangle 728" width="18.072" height="11.296" rx="5.648" transform="translate(160.113 7.906)" fill="#3f3d56"/>
    <circle id="Ellipse_60" data-name="Ellipse 60" cx="5.788" cy="5.788" r="5.788" transform="translate(173.453 2.402)" fill="#3f3d56"/>
    <path id="Path_1174" data-name="Path 1174" d="M582.973,167.981h-.213a5.788,5.788,0,0,1,0,11.566h.213a5.788,5.788,0,0,0,0-11.577Z" transform="translate(-403.871 -165.582)" opacity="0.1"/>
    <path id="Path_1175" data-name="Path 1175" d="M500.638,167.981h.213a5.788,5.788,0,0,0,0,11.566h-.213a5.788,5.788,0,0,1,0-11.577Z" transform="translate(-347.198 -165.582)" opacity="0.1"/>
    <path id="Path_1176" data-name="Path 1176" d="M551.593,209.031H536.925a1.7,1.7,0,0,1-1.695-1.691v1.126a1.7,1.7,0,0,0,1.695,1.695h14.682a1.7,1.7,0,0,0,1.695-1.695V207.34a1.7,1.7,0,0,1-1.709,1.691Z" transform="translate(-373.23 -190.963)" opacity="0.1"/>
    <path id="Path_1177" data-name="Path 1177" d="M701.658,344.883s.917.16,1.066-.583a41.4,41.4,0,0,0-.466-4.918c-.139-1.123-.288-2.242-.409-3.138-.146-1.1-.252-1.855-.252-1.855l-.167-.554-.988-3.319-.931-3.127-.686-1.229-4.936,2.4-3.07,5.305.952.6.167.107,1.752,1.834,4.911,5.152,2.21,2.32.259.27Z" transform="translate(-473.533 -267.562)" fill="#ffe09c"/>
    <path id="Path_1178" data-name="Path 1178" d="M695.709,320.22s-5.408,2.537-6.709,5.294a15.244,15.244,0,0,0-1.368,3.553s-.355,1.126,1.887,1.4c0,0,1.02-4.14,4.079-5.938l3.063-1.794Z" transform="translate(-471.465 -263.733)" fill="#e7c4c3"/>
    <ellipse id="Ellipse_61" data-name="Ellipse 61" cx="1.845" cy="1.563" rx="1.845" ry="1.563" transform="translate(222.156 63.829) rotate(-74.995)" fill="#ff7f8e"/>
    <ellipse id="Ellipse_62" data-name="Ellipse 62" cx="1.837" cy="1.556" rx="1.837" ry="1.556" transform="translate(221.586 70.262) rotate(-75.08)" fill="#ff7f8e"/>
    <path id="Path_1179" data-name="Path 1179" d="M695.444,348.55a1.926,1.926,0,0,0,1.148-1.333,1.578,1.578,0,1,0-3.006-.8,1.392,1.392,0,0,0-.046.2l.167.107Z" transform="translate(-475.287 -279.704)" fill="#ff7f8e"/>
    <path id="Path_1180" data-name="Path 1180" d="M715.483,341.941a1.421,1.421,0,0,0,1.148-.2l-.988-3.319a1.912,1.912,0,0,0-1.194,1.347A1.71,1.71,0,0,0,715.483,341.941Z" transform="translate(-488.72 -275.465)" fill="#ff7f8e"/>
    <path id="Path_1181" data-name="Path 1181" d="M717.1,357.992a1.5,1.5,0,0,0,1.4-.4c-.139-1.123-.288-2.242-.409-3.138h-.046a1.715,1.715,0,0,0-1.979,1.375A1.7,1.7,0,0,0,717.1,357.992Z" transform="translate(-489.762 -285.774)" fill="#ff7f8e"/>
    <path id="Path_1182" data-name="Path 1182" d="M714.911,370.979a2.174,2.174,0,0,0,.231-.551,1.71,1.71,0,0,0-1.03-2.175,1.5,1.5,0,0,0-1.421.405Z" transform="translate(-487.632 -294.671)" fill="#ff7f8e"/>
    <path id="Path_1183" data-name="Path 1183" d="M711.367,334.18l.569.153a3.253,3.253,0,0,0-.387,1.332.88.88,0,0,0,0,.092c.075.586-.569-.153-.569-.153S711.09,334.4,711.367,334.18Z" transform="translate(-486.53 -272.732)" fill="#94cc79"/>
    <path id="Path_1184" data-name="Path 1184" d="M704.084,344.5l.572.153a3.174,3.174,0,0,0-.387,1.329.778.778,0,0,0,0,.092c.075.586-.569-.153-.569-.153S703.807,344.717,704.084,344.5Z" transform="translate(-481.837 -279.385)" fill="#94cc79"/>
    <path id="Path_1185" data-name="Path 1185" d="M709.057,347.91l.568.149a3.256,3.256,0,0,0-.387,1.333.8.8,0,0,0,0,.092c.078.586-.569-.153-.569-.153S708.787,348.127,709.057,347.91Z" transform="translate(-485.041 -281.583)" fill="#94cc79"/>
    <path id="Path_1186" data-name="Path 1186" d="M715.464,356.52l.572.149a3.2,3.2,0,0,0-.387,1.333.818.818,0,0,0,0,.092c.075.586-.569-.153-.569-.153S715.19,356.737,715.464,356.52Z" transform="translate(-489.173 -287.134)" fill="#94cc79"/>
    <path id="Path_1187" data-name="Path 1187" d="M719.447,370.69l.569.153a3.251,3.251,0,0,0-.387,1.329.752.752,0,0,0,0,.092c.078.586-.569-.149-.569-.149S719.17,370.907,719.447,370.69Z" transform="translate(-491.739 -296.269)" fill="#94cc79"/>
    <path id="Path_1188" data-name="Path 1188" d="M710.78,360.78l.569.153a3.2,3.2,0,0,0-.38,1.347.777.777,0,0,0,0,.092c.075.586-.569-.149-.569-.149S710.507,361,710.78,360.78Z" transform="translate(-486.156 -289.88)" fill="#94cc79"/>
    <path id="Path_1189" data-name="Path 1189" d="M712.127,319.765s-.814-1.844-1.777-.469a6.524,6.524,0,0,0,1.066,3.127s2.946,8.013,2.7,9.239c0,0,1.162,7.739.874,8.173,0,0,.32.547.547-1.51s-.771-8.1-.771-8.1l-1.46-6.282-.977-2.132Z" transform="translate(-486.124 -262.808)" fill="#e7c4c3"/>
    <path id="Path_1190" data-name="Path 1190" d="M712.127,319.765s-.814-1.844-1.777-.469a6.524,6.524,0,0,0,1.066,3.127s2.946,8.013,2.7,9.239c0,0,1.162,7.739.874,8.173,0,0,.32.547.547-1.51s-.771-8.1-.771-8.1l-1.46-6.282-.977-2.132Z" transform="translate(-486.124 -262.808)" fill="#fff" opacity="0.2"/>
    <path id="Path_1191" data-name="Path 1191" d="M687.85,325.769s1.46,4.207,2.8,3.088l-1.066-5.5Z" transform="translate(-471.619 -265.757)" fill="#fbbebe"/>
    <path id="Path_1192" data-name="Path 1192" d="M394.791,378.77s12.881,21.7,15.891,24.6c0,0,12.87,13.361,6.328,12.437-.48-.067-9.9-8.031-10.45-9.338s-18.36-24.443-18.36-24.443l2.541-2.338Z" transform="translate(-278.445 -301.478)" fill="#a0616a"/>
    <path id="Path_1193" data-name="Path 1193" d="M394.791,378.77s12.881,21.7,15.891,24.6c0,0,12.87,13.361,6.328,12.437-.48-.067-9.9-8.031-10.45-9.338s-18.36-24.443-18.36-24.443l2.541-2.338Z" transform="translate(-278.445 -301.478)" opacity="0.1"/>
    <path id="Path_1194" data-name="Path 1194" d="M434.781,572.6s-4.122,5.152-2.4,7.213,10.287,6,13.051,5.838c2.921-.171,12.71.355,13.055-4.122,0,0,.686-2.061-8.244-2.406s-6.186-9.619-6.186-9.619Z" transform="translate(-306.655 -424.441)" fill="#2f2e41"/>
    <path id="Path_1195" data-name="Path 1195" d="M300.464,452.188s-4.122,14.082,8.244,16.487l13.4-.686s18.893-3.781,24.049-1.03c0,0,2.061.355,1.372,3.091s1.03,21.3,1.03,21.3v6.183s11.68,0,13.055-1.375a28.655,28.655,0,0,1,0-9.949c1.03-4.452-1.716-18.552-1.716-18.552l-.274-8.461a5.906,5.906,0,0,0-3.116-5.088,4.62,4.62,0,0,0-2.107-.537s-23.36-3.777-31.6-3.091S300.464,452.188,300.464,452.188Z" transform="translate(-221.459 -347.652)" fill="#605d82"/>
    <path id="Path_1196" data-name="Path 1196" d="M355.193,328.79s6.183,7.213,6.869,9.619,8.258,8.578,8.258,8.578-5.5,4.122-4.466,6.183-7.213-6.869-7.213-6.869L349,332.226Z" transform="translate(-253.174 -269.257)" fill="#9677f1"/>
    <path id="Path_1197" data-name="Path 1197" d="M355.193,328.79s6.183,7.213,6.869,9.619,8.258,8.578,8.258,8.578-5.5,4.122-4.466,6.183-7.213-6.869-7.213-6.869L349,332.226Z" transform="translate(-253.174 -269.257)" opacity="0.1"/>
    <path id="Path_1198" data-name="Path 1198" d="M349.32,300.059s-3.091,9.949-3.091,13.741-13.055-1.03-12.71-3.091,7.558-9.619,7.9-12.71S349.32,300.059,349.32,300.059Z" transform="translate(-243.189 -248.77)" fill="#a0616a"/>
    <path id="Path_1199" data-name="Path 1199" d="M316.384,324.538s-12.025-3.091-13.741,14.43,1.372,19.579-3.781,30.228,35.039,1.375,35.039,1.375-2.061-2.406-8.588-1.375l-3.091-9.274s-1.03-4.122,4.811-4.122,3.091-12.024,3.091-12.024-3.091-10.3-4.811-11.335S320.516,325.228,316.384,324.538Z" transform="translate(-220.558 -266.381)" opacity="0.1"/>
    <path id="Path_1200" data-name="Path 1200" d="M316.384,322.618s-12.025-3.091-13.741,14.427,1.372,19.582-3.781,30.232,35.039,1.375,35.039,1.375-2.061-2.406-8.588-1.375L322.222,358s-1.02-4.115,4.822-4.115,3.091-12.025,3.091-12.025-3.091-10.3-4.811-11.335S320.516,323.3,316.384,322.618Z" transform="translate(-220.558 -265.143)" fill="#9677f1"/>
    <circle id="Ellipse_63" data-name="Ellipse 63" cx="11.335" cy="11.335" r="11.335" transform="translate(91.715 34.801)" fill="#a0616a"/>
    <path id="Path_1201" data-name="Path 1201" d="M283.83,259.3l28.487,17.028,26.5-24.7-31.6-11-22.738,15.478Z" transform="translate(-182.969 -155.126)" fill="#dadae5"/>
    <path id="Path_1202" data-name="Path 1202" d="M355.831,151.406l-8.731,26.8,31.664,10.219,13.307-37.815Z" transform="translate(-223.757 -97.093)" fill="none"/>
    <path id="Path_1203" data-name="Path 1203" d="M362.356,157.525l-8.866,26.366,29.393,8.453L395.43,156.69Z" transform="translate(-227.876 -101.013)" fill="#dadae5"/>
    <path id="Path_1204" data-name="Path 1204" d="M371.78,152.116l2.406,2.2,33.074-.835.76-2.16Z" transform="translate(-239.667 -97.551)" opacity="0.03"/>
    <path id="Path_1205" data-name="Path 1205" d="M347.21,180.356l8.731-26.8,2.406,2.2-8.642,25.7Z" transform="translate(-223.828 -98.995)" opacity="0.03"/>
    <path id="Path_1206" data-name="Path 1206" d="M371.67,151.406l2.406,2.2,33.074-.835.76-2.16Z" transform="translate(-239.596 -97.093)" fill="#eff0f4"/>
    <path id="Path_1207" data-name="Path 1207" d="M347.1,179.649l8.731-26.8,2.406,2.2-8.642,25.7Z" transform="translate(-223.757 -98.537)" fill="#eff0f4"/>
    <path id="Path_1208" data-name="Path 1208" d="M371.67,151.406l3.678,3.44,33.078-.835-.515-3.4Z" transform="translate(-239.596 -97.093)" opacity="0.03"/>
    <path id="Path_1209" data-name="Path 1209" d="M347.1,179.649l8.731-26.8,3.678,3.44-8.642,25.7Z" transform="translate(-223.757 -98.537)" opacity="0.03"/>
    <path id="Path_1210" data-name="Path 1210" d="M347.26,229.33l.8,5.1,31.792,11.037-.927-5.916Z" transform="translate(-223.86 -147.841)" opacity="0.03"/>
    <path id="Path_1211" data-name="Path 1211" d="M281.12,246.088l23.5-16.758,1.027,5.1L282.563,251.6Z" transform="translate(-181.222 -147.841)" opacity="0.03"/>
    <path id="Path_1212" data-name="Path 1212" d="M347.1,228.27l.689,4.4L379.581,243.7l-.817-5.213Z" transform="translate(-223.757 -147.158)" fill="#eff0f4"/>
    <path id="Path_1213" data-name="Path 1213" d="M280.95,245.024l23.505-16.754.913,4.392-23.086,17.17Z" transform="translate(-181.112 -147.158)" fill="#eff0f4"/>
    <path id="Path_1214" data-name="Path 1214" d="M347.1,228.27l.689,4.4L379.581,243.7l-.817-5.213Z" transform="translate(-223.757 -147.158)" opacity="0.03"/>
    <path id="Path_1215" data-name="Path 1215" d="M280.95,245.024l23.505-16.754.913,4.392-23.086,17.17Z" transform="translate(-181.112 -147.158)" opacity="0.03"/>
    <path id="Path_1216" data-name="Path 1216" d="M280.95,275.42l1.062,6.336,28.409,16.974-.7-6.52Z" transform="translate(-181.112 -177.554)" fill="#cccad6"/>
    <path id="Path_1217" data-name="Path 1217" d="M396.432,419.409s-.494.942.259,1.375a48.082,48.082,0,0,0,5.5,1.194c1.265.235,2.534.462,3.553.64,1.244.22,2.1.355,2.1.355h.654l3.951.075,3.717.071,1.574-.323-.906-6.176-4.7-5.17-.984.832-.167.142-2.587,1.258-7.3,3.553-3.283,1.6-.384.188Z" transform="translate(-283.649 -322.545)" fill="#ffe09c"/>
    <path id="Path_1218" data-name="Path 1218" d="M447.861,420.548s-.885-6.751-3.436-9.118a16.907,16.907,0,0,0-3.386-2.715s-1.1-.778-2.178,1.567c0,0,4.147,2.537,5.042,6.485l.892,3.948Z" transform="translate(-311.103 -320.703)" fill="#e7c4c3"/>
    <ellipse id="Ellipse_64" data-name="Ellipse 64" cx="1.777" cy="2.096" rx="1.777" ry="2.096" transform="translate(127.28 96.676) rotate(-57.43)" fill="#ff7f8e"/>
    <ellipse id="Ellipse_65" data-name="Ellipse 65" cx="1.777" cy="2.096" rx="1.777" ry="2.096" transform="translate(120.798 95.21) rotate(-57.43)" fill="#ff7f8e"/>
    <path id="Path_1219" data-name="Path 1219" d="M430.4,415.226a2.185,2.185,0,0,0,1.066,1.709,1.794,1.794,0,1,0,1.908-2.978,2.37,2.37,0,0,0-.206-.117l-.167.142Z" transform="translate(-305.65 -324.086)" fill="#ff7f8e"/>
    <path id="Path_1220" data-name="Path 1220" d="M430.754,438.872a1.635,1.635,0,0,0-.181,1.318l3.951.075a2.167,2.167,0,0,0-1.066-1.777A1.954,1.954,0,0,0,430.754,438.872Z" transform="translate(-305.719 -339.741)" fill="#ff7f8e"/>
    <path id="Path_1221" data-name="Path 1221" d="M412.639,435.051a1.7,1.7,0,0,0-.05,1.663c1.265.234,2.534.462,3.553.64l.032-.046a2.126,2.126,0,0,0-3.536-2.256Z" transform="translate(-294.043 -337.281)" fill="#ff7f8e"/>
    <path id="Path_1222" data-name="Path 1222" d="M400.62,429.375a2.517,2.517,0,0,0,.519.441,1.963,1.963,0,0,0,2.718-.355,1.7,1.7,0,0,0,.046-1.67Z" transform="translate(-286.451 -333.079)" fill="#ff7f8e"/>
    <path id="Path_1223" data-name="Path 1223" d="M444.822,437.593l-.355.565a3.663,3.663,0,0,0-1.311-.878l-.1-.025c-.664-.121.355-.565.355-.565S444.683,437.219,444.822,437.593Z" transform="translate(-313.661 -338.817)" fill="#94cc79"/>
    <path id="Path_1224" data-name="Path 1224" d="M436.134,426.112l-.355.569a3.656,3.656,0,0,0-1.311-.881l-.1-.025c-.661-.117.355-.565.355-.565S436,425.739,436.134,426.112Z" transform="translate(-308.061 -331.416)" fill="#94cc79"/>
    <path id="Path_1225" data-name="Path 1225" d="M430.712,430.362l-.355.565a3.665,3.665,0,0,0-1.311-.878l-.1-.025c-.664-.121.355-.565.355-.565S430.569,429.982,430.712,430.362Z" transform="translate(-304.565 -334.156)" fill="#94cc79"/>
    <path id="Path_1226" data-name="Path 1226" d="M419.142,434.363l-.355.569a3.656,3.656,0,0,0-1.311-.881l-.1-.025c-.664-.117.355-.565.355-.565S419,433.975,419.142,434.363Z" transform="translate(-297.106 -336.735)" fill="#94cc79"/>
    <path id="Path_1227" data-name="Path 1227" d="M402.378,433.763l-.355.569a3.681,3.681,0,0,0-1.315-.881l-.1-.025c-.661-.117.355-.565.355-.565S402.232,433.386,402.378,433.763Z" transform="translate(-286.298 -336.348)" fill="#94cc79"/>
    <path id="Path_1228" data-name="Path 1228" d="M416.132,427.756l-.355.565a3.656,3.656,0,0,0-1.311-.881l-.1-.025c-.664-.117.355-.565.355-.565S415.989,427.379,416.132,427.756Z" transform="translate(-295.165 -332.473)" fill="#94cc79"/>
    <path id="Path_1229" data-name="Path 1229" d="M419.442,440.24s2.285-.249,1.119-1.752a7.412,7.412,0,0,0-3.759.064s-9.726.434-10.987-.263c0,0-8.812-1.421-9.168-1.869,0,0-.711.156,1.45,1.116s9.072,1.961,9.072,1.961l7.331.583,2.637-.327Z" transform="translate(-283.818 -338.643)" fill="#e7c4c3"/>
    <path id="Path_1230" data-name="Path 1230" d="M419.442,440.24s2.285-.249,1.119-1.752a7.412,7.412,0,0,0-3.759.064s-9.726.434-10.987-.263c0,0-8.812-1.421-9.168-1.869,0,0-.711.156,1.45,1.116s9.072,1.961,9.072,1.961l7.331.583,2.637-.327Z" transform="translate(-283.818 -338.643)" fill="#fff" opacity="0.2"/>
    <path id="Path_1231" data-name="Path 1231" d="M441.31,436.883a2.189,2.189,0,0,0,.33,1.979,1.8,1.8,0,1,0,2.9-2.054c-.046-.064-.1-.128-.146-.188l-.213.071Z" transform="translate(-312.615 -338.772)" fill="#ff7f8e"/>
    <path id="Path_1232" data-name="Path 1232" d="M361.92,280.354l26.4-23.324.81,5.149-26.508,24.7Z" transform="translate(-233.311 -165.698)" fill="#cccad6"/>
    <path id="Path_1233" data-name="Path 1233" d="M439.635,189.754l-3.425-1.329,13.307-37.815,2.537,1.791Z" transform="translate(-281.203 -97.093)" fill="#cccad6"/>
    <g id="Group_64" data-name="Group 64" transform="translate(125.294 145.069)" opacity="0.1">
      <path id="Path_1234" data-name="Path 1234" d="M464.892,572.218a11.868,11.868,0,0,1,.394-2.708l-.174.06a12.083,12.083,0,0,0-.22,2.647Z" transform="translate(-453.176 -569.51)" fill="#fff"/>
      <path id="Path_1235" data-name="Path 1235" d="M445.411,600.635c-2.764.163-11.335-3.781-13.051-5.842a1.8,1.8,0,0,1-.4-.974,2.153,2.153,0,0,0,.4,1.663c1.716,2.061,10.287,6,13.051,5.838,2.921-.17,12.71.355,13.055-4.122a.562.562,0,0,0-.046-.355C457.631,600.959,448.257,600.475,445.411,600.635Z" transform="translate(-431.929 -585.182)" fill="#fff"/>
    </g>
    <path id="Path_1236" data-name="Path 1236" d="M465.461,365.332s.611-.711.057-1.222a42.036,42.036,0,0,0-4.459-2.132c-1.034-.455-2.075-.9-2.9-1.258l-1.723-.736-.558-.142-3.358-.856-3.159-.807-1.421-.039-.476,5.469,2.981,5.358,1-.512.174-.089,2.462-.554,6.957-1.549,3.123-.711.355-.082Z" transform="translate(-316.647 -288.178)" fill="#ffe09c"/>
    <path id="Path_1237" data-name="Path 1237" d="M442.014,357.67s-.6,5.941,1.1,8.475a15.267,15.267,0,0,0,2.345,3s.782.881,2.178-.9c0,0-3.035-3-3-6.549l.028-3.553Z" transform="translate(-313.07 -287.875)" fill="#e7c4c3"/>
    <ellipse id="Ellipse_66" data-name="Ellipse 66" cx="1.556" cy="1.837" rx="1.556" ry="1.837" transform="matrix(0.717, -0.697, 0.697, 0.717, 131.602, 73.968)" fill="#ff7f8e"/>
    <ellipse id="Ellipse_67" data-name="Ellipse 67" cx="1.556" cy="1.837" rx="1.556" ry="1.837" transform="matrix(0.717, -0.697, 0.697, 0.717, 136.844, 76.519)" fill="#ff7f8e"/>
    <path id="Path_1238" data-name="Path 1238" d="M460.012,381.222a1.922,1.922,0,0,0-.554-1.67,1.731,1.731,0,0,0-2.4-.231,1.71,1.71,0,0,0,.167,2.4,1.87,1.87,0,0,0,.149.142l.174-.089Z" transform="translate(-322.566 -301.585)" fill="#ff7f8e"/>
    <path id="Path_1239" data-name="Path 1239" d="M464.6,362.467a1.421,1.421,0,0,0,.416-1.091l-3.358-.856a1.9,1.9,0,0,0,.544,1.716A1.707,1.707,0,0,0,464.6,362.467Z" transform="translate(-325.781 -289.713)" fill="#ff7f8e"/>
    <path id="Path_1240" data-name="Path 1240" d="M479.257,368.059a1.5,1.5,0,0,0,.38-1.421c-1.034-.455-2.075-.9-2.9-1.258l-.039.032a1.869,1.869,0,0,0,2.562,2.647Z" transform="translate(-335.226 -292.846)" fill="#ff7f8e"/>
    <path id="Path_1241" data-name="Path 1241" d="M488.7,377a2.029,2.029,0,0,0-.355-.48,1.71,1.71,0,0,0-2.4-.231,1.485,1.485,0,0,0-.377,1.421Z" transform="translate(-341.184 -299.628)" fill="#ff7f8e"/>
    <path id="Path_1242" data-name="Path 1242" d="M455,362.659l.423-.409a3.237,3.237,0,0,0,.945,1.013l.082.043c.544.235-.423.409-.423.409S455.06,363.007,455,362.659Z" transform="translate(-321.508 -290.828)" fill="#94cc79"/>
    <path id="Path_1243" data-name="Path 1243" d="M460.16,374.252l.419-.412a3.234,3.234,0,0,0,.945,1.016l.082.039c.544.238-.423.412-.423.412S460.2,374.579,460.16,374.252Z" transform="translate(-324.835 -298.3)" fill="#94cc79"/>
    <path id="Path_1244" data-name="Path 1244" d="M465.63,371.682l.423-.412a3.234,3.234,0,0,0,.945,1.016l.082.039c.544.238-.423.412-.423.412S465.676,372.03,465.63,371.682Z" transform="translate(-328.361 -296.643)" fill="#94cc79"/>
    <path id="Path_1245" data-name="Path 1245" d="M476.31,370.6l.423-.412a3.255,3.255,0,0,0,.942,1.016l.085.043c.54.235-.423.409-.423.409S476.356,370.95,476.31,370.6Z" transform="translate(-335.246 -295.947)" fill="#94cc79"/>
    <path id="Path_1246" data-name="Path 1246" d="M490.52,374.462l.423-.412a3.2,3.2,0,0,0,.942,1.016l.085.039c.54.238-.423.412-.423.412S490.566,374.807,490.52,374.462Z" transform="translate(-344.407 -298.435)" fill="#94cc79"/>
    <path id="Path_1247" data-name="Path 1247" d="M477.56,376.819l.423-.409a3.238,3.238,0,0,0,.945,1.013.355.355,0,0,0,.082.043c.544.234-.423.412-.423.412S477.606,377.167,477.56,376.819Z" transform="translate(-336.052 -299.956)" fill="#94cc79"/>
    <path id="Path_1248" data-name="Path 1248" d="M443.243,354.063s-2-.245-1.308,1.272a6.538,6.538,0,0,0,3.223.711s8.389,1.585,9.328,2.43c0,0,7.238,2.978,7.462,3.44,0,0,.636,0-1.013-1.247s-7.345-3.5-7.345-3.5l-6.14-1.972-2.317-.252Z" transform="translate(-312.992 -285.541)" fill="#e7c4c3"/>
    <path id="Path_1249" data-name="Path 1249" d="M443.243,354.063s-2-.245-1.308,1.272a6.538,6.538,0,0,0,3.223.711s8.389,1.585,9.328,2.43c0,0,7.238,2.978,7.462,3.44,0,0,.636,0-1.013-1.247s-7.345-3.5-7.345-3.5l-6.14-1.972-2.317-.252Z" transform="translate(-312.992 -285.541)" fill="#fff" opacity="0.2"/>
    <path id="Path_1250" data-name="Path 1250" d="M389.214,366.955a10.325,10.325,0,0,0,2.732-2.079c.355-.419.654-.892,1.02-1.3a6.7,6.7,0,0,1,3.44-1.961,16.823,16.823,0,0,1,3.983-.387,7.31,7.31,0,0,1,2.651.32,2.661,2.661,0,0,1,1.755,1.887,3.113,3.113,0,0,1-1.336,2.786,6.446,6.446,0,0,1-2.672,1.3,21.91,21.91,0,0,1-2.413.281c-4.754.5-9,3.084-13.147,5.44-3.66,2.072-5.735,1.976-9.534,3.774-.149-1.137-1.869-.256-1.844-1.4.021-.856.064-2.164.874-2.669.942-.586,2.487-.711,3.553-1.066a57.244,57.244,0,0,0,7.16-2.9Q387.359,368.031,389.214,366.955Z" transform="translate(-269.193 -290.156)" fill="#a0616a"/>
    <path id="Path_1251" data-name="Path 1251" d="M326.883,344.349,345.1,360.837s3.436-6.869,4.467-6.869S337.2,333.714,337.2,333.714s-3.436-4.122-5.5-2.061S323.447,332.325,326.883,344.349Z" transform="translate(-238.26 -270.731)" opacity="0.1"/>
    <path id="Path_1252" data-name="Path 1252" d="M325.911,342.407l18.207,16.487s3.436-6.872,4.467-6.872-12.369-20.254-12.369-20.254-3.436-4.125-5.5-2.064S322.474,330.382,325.911,342.407Z" transform="translate(-237.632 -269.475)" fill="#9677f1"/>
    <path id="Path_1253" data-name="Path 1253" d="M313.4,255.22a5.473,5.473,0,0,0,.956-1.492c1.571-3.553-.92-8.016-5.174-9.239-2.132-.622-4.52-.5-6.648-1.158a31.971,31.971,0,0,1-4.726-2.313,19.927,19.927,0,0,0-9.505-2.04c-3.216.114-6.712,1.244-8.031,3.727-1.926,3.617,1.617,8.173-.529,11.694-1.578,2.587-5.4,3.351-8.578,4.474a23.409,23.409,0,0,0-8.755,5.426c-2.487,2.487-4.264,5.9-3.013,8.983.728,1.809,2.374,3.223,3.681,4.783a15.279,15.279,0,0,1,.956,18.577,9.032,9.032,0,0,0-1.578,2.729c-.6,2.374,1.833,4.761,4.651,5.223a11.076,11.076,0,0,0,7.935-2.143,14.266,14.266,0,0,0,4.729-5.5c2.6-5.522.775-11.726.515-17.671a2.694,2.694,0,0,1,.487-1.99c.753-.814,2.175-.792,3.39-.9a9.422,9.422,0,0,0,7.373-4.47c2.548-4.676-.419-11.211,4.033-14.729C301.171,252.765,309.237,259.765,313.4,255.22Z" transform="translate(-195.143 -211.351)" fill="#3f3d56"/>
    <path id="Path_1254" data-name="Path 1254" d="M316.469,254.47h-.036a6.449,6.449,0,0,1,1.3,6.773,5.472,5.472,0,0,1-.956,1.492c-4.161,4.545-12.227-2.455-17.831,1.972-4.452,3.518-1.485,10.052-4.033,14.729a9.4,9.4,0,0,1-7.373,4.47c-1.215.107-2.637.085-3.39.9a2.632,2.632,0,0,0-.487,1.99c.259,5.945,2.089,12.149-.515,17.671a14.267,14.267,0,0,1-4.729,5.5,11.109,11.109,0,0,1-7.935,2.15l-.2-.043a6.232,6.232,0,0,0,4.1,2.53,11.137,11.137,0,0,0,7.935-2.157,14.267,14.267,0,0,0,4.729-5.5c2.6-5.522.775-11.726.515-17.671a2.694,2.694,0,0,1,.487-1.99c.753-.814,2.175-.792,3.39-.9a9.422,9.422,0,0,0,7.373-4.47c2.548-4.676-.419-11.211,4.033-14.729,5.6-4.427,13.67,2.573,17.831-1.972a5.473,5.473,0,0,0,.956-1.492C323.213,260.159,320.723,255.724,316.469,254.47Z" transform="translate(-202.432 -221.346)" opacity="0.1"/>
  </g>
</svg>
