<svg xmlns="http://www.w3.org/2000/svg" width="394.093" height="246" viewBox="0 0 394.093 246">
  <g id="undraw_Questions_re_1fy7" transform="translate(0 -31.76)">
    <circle id="Ellipse_32" data-name="Ellipse 32" cx="21.485" cy="21.485" r="21.485" transform="translate(179.786 234.201)" fill="#9677f1"/>
    <circle id="Ellipse_36" data-name="Ellipse 36" cx="11.209" cy="11.209" r="11.209" transform="translate(232.05 47.64)" fill="#f2f2f2"/>
    <circle id="Ellipse_39" data-name="Ellipse 39" cx="11.209" cy="11.209" r="11.209" transform="translate(180.731 170.78)" fill="#f2f2f2"/>
    <circle id="Ellipse_40" data-name="Ellipse 40" cx="11.209" cy="11.209" r="11.209" transform="translate(260.975 194.106)" fill="#f2f2f2"/>
    <path id="Path_1064" data-name="Path 1064" d="M533.89,220.371a62.173,62.173,0,0,0-61.547,61.1c0,.31-.006,2.49-.006,5.34A15.762,15.762,0,0,0,488.1,302.571h0a15.771,15.771,0,0,0,15.768-15.782c0-1.943,0-3.285,0-3.367a29.892,29.892,0,1,1,46.014,25.165l.005.007s-22.432,14.441-29.271,34.252h.006a43.909,43.909,0,0,0-1.809,12.5c0,1.74.1,16.964.3,29.321a16.247,16.247,0,0,0,16.249,15.984h0A16.252,16.252,0,0,0,551.608,384.3c-.069-11.316-.106-24.493-.106-25.449,0-12.164,11.735-24.284,21.374-32.188a64.829,64.829,0,0,0,22.3-35.5,40.526,40.526,0,0,0,1.167-8.8,62,62,0,0,0-62.449-62Z" transform="translate(-334.92 -188.609)" fill="#9677f1"/>
    <path id="Path_1065" data-name="Path 1065" d="M571.2,746.362H178.218a.556.556,0,0,1,0-1.112H571.2a.556.556,0,0,1,0,1.112Z" transform="translate(-177.662 -468.602)" fill="#3f3d56"/>
    <circle id="Ellipse_42" data-name="Ellipse 42" cx="14.012" cy="14.012" r="14.012" transform="translate(279.191 99.4)" fill="#2f2e41"/>
    <path id="Path_1066" data-name="Path 1066" d="M563.37,556.927h-5.726l-2.724-22.086h8.451Z" transform="translate(-296.022 -285.301)" fill="#a0616a"/>
    <path id="Path_1067" data-name="Path 1067" d="M544.062,578.626H555.1v6.953h-18A6.953,6.953,0,0,1,544.062,578.626Z" transform="translate(-286.527 -308.636)" fill="#2f2e41"/>
    <path id="Path_1068" data-name="Path 1068" d="M658.37,556.927h-5.726l-2.724-22.086h8.451Z" transform="translate(-346.699 -285.301)" fill="#a0616a"/>
    <path id="Path_1069" data-name="Path 1069" d="M639.062,578.626H650.1v6.953h-18A6.953,6.953,0,0,1,639.062,578.626Z" transform="translate(-337.206 -308.636)" fill="#2f2e41"/>
    <circle id="Ellipse_43" data-name="Ellipse 43" cx="11.471" cy="11.471" r="11.471" transform="translate(279.605 104.558)" fill="#a0616a"/>
    <path id="Path_1070" data-name="Path 1070" d="M769.391,467.421l5.133-11.793A14.657,14.657,0,0,0,771.277,439a14.887,14.887,0,0,0-1.434-1.247,14.448,14.448,0,0,0-8.869-3.069,15.03,15.03,0,0,0-6.258,1.392c-.168.075-.332.154-.5.233-.322.154-.64.322-.948.5a14.8,14.8,0,0,0-7.333,11.153L743.67,466.94c-.57,1.49-20.9,55.295-13.787,96.372a2.086,2.086,0,0,0,1.784,1.714l7.207.981a2.1,2.1,0,0,0,2.34-1.649l12.092-57.639a1.636,1.636,0,0,1,3.176-.107l17.085,60.614a2.089,2.089,0,0,0,2.013,1.532,2.4,2.4,0,0,0,.406-.037l8.8-1.7a2.088,2.088,0,0,0,1.7-2.247C785.191,550.351,778.316,478.084,769.391,467.421Z" transform="translate(-471.481 -303.088)" fill="#2f2e41"/>
    <path id="Path_1071" data-name="Path 1071" d="M706.066,416.621a4.7,4.7,0,0,0,4.948,5.233l6.412,15.409,4.85-7.19-6.833-13.531a4.722,4.722,0,0,0-9.378.079Z" transform="translate(-459.527 -291.065)" fill="#a0616a"/>
    <path id="Path_1072" data-name="Path 1072" d="M794.127,516.431a4.7,4.7,0,0,0,3.936-6.031l13.491-9.826-8.122-3.042-11.566,9.8a4.722,4.722,0,0,0,2.262,9.1Z" transform="translate(-503.692 -336.47)" fill="#a0616a"/>
    <path id="Path_1073" data-name="Path 1073" d="M734.182,461.379a7.969,7.969,0,0,1-1.541-.152,7.615,7.615,0,0,1-5.58-4.491l-8.984-10.954a2.1,2.1,0,0,1,.519-3.12l6.391-3.956a2.1,2.1,0,0,1,2.9.7l6.332,10.431,12.125-8.961a4.54,4.54,0,0,1,5.282,7.268l-12.1,11.04A7.591,7.591,0,0,1,734.182,461.379Z" transform="translate(-465.713 -304.921)" fill="#2f2e41"/>
    <path id="Path_1074" data-name="Path 1074" d="M814.37,481.761h-.049a2.105,2.105,0,0,1-1.546-.733l-5.682-6.629a2.1,2.1,0,0,1,.43-3.117l10.64-7.093L808.523,452.6a4.54,4.54,0,0,1,6.953-5.69l11.715,11.449a7.718,7.718,0,0,1-1.717,12.583L815.9,481.1A2.105,2.105,0,0,1,814.37,481.761Z" transform="translate(-513.174 -308.841)" fill="#2f2e41"/>
    <path id="Path_1075" data-name="Path 1075" d="M788.066,450.119a2.156,2.156,0,0,1-.273-.017,2.083,2.083,0,0,1-1.733-1.433l-4.27-13.091a1.44,1.44,0,0,1,.745-1.74l.139-.065c.126-.06.25-.119.377-.175a15.214,15.214,0,0,1,6.353-1.412,14.631,14.631,0,0,1,8.015,2.409,1.462,1.462,0,0,1,.421,2.006l-8.01,12.549A2.081,2.081,0,0,1,788.066,450.119Z" transform="translate(-499.903 -301.608)" fill="#e6e6e6"/>
    <circle id="Ellipse_44" data-name="Ellipse 44" cx="4.585" cy="4.585" r="4.585" transform="translate(299.658 97.994)" fill="#2f2e41"/>
    <path id="Path_1076" data-name="Path 1076" d="M782.255,361.365h0a12.143,12.143,0,0,0-12.143,12.143v5.138h6.319l3.022-5.138.907,5.138h19.177l-5.138-5.138a12.143,12.143,0,0,0-12.143-12.143Z" transform="translate(-493.721 -263.827)" fill="#2f2e41"/>
    <path id="Path_1077" data-name="Path 1077" d="M834.809,359.816a7.076,7.076,0,0,1,7.7-4.855c2.922.488,5.232,2.837,6.609,5.46s2.012,5.559,2.938,8.373,2.238,5.644,4.574,7.465,5.921,2.316,8.215.442a9.4,9.4,0,0,1-17.5,3.354c-1.211-2.154-1.523-4.678-1.882-7.123s-.826-4.974-2.271-6.978-4.151-3.313-6.447-2.4Z" transform="translate(-528.302 -260.38)" fill="#2f2e41"/>
    <path id="Path_1078" data-name="Path 1078" d="M492.3,324.4h0a15.762,15.762,0,0,1-15.76-15.759c0-2.853,0-5.032.006-5.342a61.42,61.42,0,0,1,7.173-27.981,61.559,61.559,0,0,0-11.844,35.454c0,.31-.006,2.49-.006,5.34a15.762,15.762,0,0,0,15.759,15.761h0A15.774,15.774,0,0,0,502.8,320.389,15.7,15.7,0,0,1,492.3,324.4Z" transform="translate(-334.614 -217.895)" fill="#3f3d56"/>
    <path id="Path_1079" data-name="Path 1079" d="M578.826,282.912a29.893,29.893,0,0,1,26,41.761,29.89,29.89,0,1,0-50.174-31.286,29.831,29.831,0,0,1,24.178-10.475Z" transform="translate(-378.793 -217.941)" fill="#3f3d56"/>
    <path id="Path_1080" data-name="Path 1080" d="M592.584,517.675h0a16.248,16.248,0,0,1-16.249-15.987c-.2-12.353-.3-27.577-.3-29.317a43.906,43.906,0,0,1,1.809-12.5h-.006a44.4,44.4,0,0,1,2.566-5.932,51.4,51.4,0,0,0-7.237,13.4h.006a43.906,43.906,0,0,0-1.809,12.5c0,1.74.1,16.964.3,29.321a16.247,16.247,0,0,0,16.249,15.984h0a16.254,16.254,0,0,0,15.6-11.7,16.189,16.189,0,0,1-10.929,4.223Z" transform="translate(-387.695 -313.25)" fill="#3f3d56"/>
    <path id="Path_1081" data-name="Path 1081" d="M126.539,557.383h5.726l2.724-22.086h-8.451Z" transform="translate(-67.438 -285.544)" fill="#ffb8b8"/>
    <path id="Path_1082" data-name="Path 1082" d="M0,0H18V6.953H6.953A6.953,6.953,0,0,1,0,0H0Z" transform="translate(75.869 277.156) rotate(179.997)" fill="#2f2e41"/>
    <path id="Path_1083" data-name="Path 1083" d="M82.539,557.383h5.726L90.989,535.3H82.538Z" transform="translate(-43.988 -285.544)" fill="#ffb8b8"/>
    <path id="Path_1084" data-name="Path 1084" d="M0,0H18V6.953H6.953A6.953,6.953,0,0,1,0,0H0Z" transform="translate(55.319 277.156) rotate(179.997)" fill="#2f2e41"/>
    <path id="Path_1085" data-name="Path 1085" d="M262.175,632.974l-5.593-.294a2.183,2.183,0,0,1-2.064-2.32l6.685-74.012,30.784,8.307,2.966-.809-9.275,65.521a2.193,2.193,0,0,1-2.035,1.842l-6.029.281a2.183,2.183,0,0,1-2.3-2.24l1.092-39.324a.728.728,0,0,0-1.44-.168l-10.535,41.48a2.17,2.17,0,0,1-2.134,1.74C262.254,632.977,262.214,632.977,262.175,632.974Z" transform="translate(-218.62 -367.928)" fill="#2f2e41"/>
    <circle id="Ellipse_45" data-name="Ellipse 45" cx="11.471" cy="11.471" r="11.471" transform="translate(48.658 105.094)" fill="#ffb8b8"/>
    <path id="Path_1086" data-name="Path 1086" d="M265.489,453.548l1.261,27.214.456,9.9a2.168,2.168,0,0,0,1.436,1.95l29.581,10.716a2.091,2.091,0,0,0,.747.131,2.169,2.169,0,0,0,2.178-2.236l-1.213-48.932a17.249,17.249,0,0,0-14.359-16.663c-.286-.044-.577-.087-.868-.126a16.931,16.931,0,0,0-13.622,4.41,17.391,17.391,0,0,0-5.6,13.636Z" transform="translate(-224.458 -303.342)" fill="#ccc"/>
    <path id="Path_1087" data-name="Path 1087" d="M351.547,545.3a4.7,4.7,0,0,1-2.508-7.112l-10.031-13.339,8.656-.536,8.2,12.749a4.722,4.722,0,0,1-4.316,8.237Z" transform="translate(-263.734 -350.758)" fill="#ffb8b8"/>
    <path id="Path_1088" data-name="Path 1088" d="M331.635,497.206a2.169,2.169,0,0,1-1.187-1.176l-15.113-36.007a5.821,5.821,0,0,1,10.735-4.506l15.113,36.008a2.185,2.185,0,0,1-1.168,2.858l-6.709,2.816a2.168,2.168,0,0,1-1.671.008Z" transform="translate(-250.864 -312.168)" fill="#ccc"/>
    <path id="Path_1089" data-name="Path 1089" d="M298.213,513.022l14.516-27.794a2.278,2.278,0,0,1,3.071-.964l21.07,11a2.278,2.278,0,0,1,.964,3.071l-14.516,27.794a2.278,2.278,0,0,1-3.071.964l-21.07-11A2.278,2.278,0,0,1,298.213,513.022Z" transform="translate(-241.772 -329.271)" fill="#3f3d56"/>
    <path id="Path_1090" data-name="Path 1090" d="M295.184,506.038a4.7,4.7,0,0,0-7.247-2.083l-13.908-9.226L274,503.4l13.211,7.432a4.722,4.722,0,0,0,7.968-4.8Z" transform="translate(-229.007 -334.974)" fill="#ffb8b8"/>
    <path id="Path_1091" data-name="Path 1091" d="M262.495,480.976l-11.367-9a8.016,8.016,0,0,1-3.654-12.674l10.321-13.526a4.715,4.715,0,0,1,8,4.8l-8.166,13.358,12,5.692a2.183,2.183,0,0,1,.91,3.138l-4.844,7.666a2.187,2.187,0,0,1-1.479.986l-.036.006A2.193,2.193,0,0,1,262.495,480.976Z" transform="translate(-213.903 -307.946)" fill="#ccc"/>
    <path id="Path_1092" data-name="Path 1092" d="M281.41,391.372a1,1,0,0,1,.867-1.317,2.3,2.3,0,0,1,1.624.8,6.462,6.462,0,0,0,1.434,1.232,1.234,1.234,0,0,0,1.624-.293,2.258,2.258,0,0,0-.086-1.753,17.238,17.238,0,0,1-.761-4.563,8.035,8.035,0,0,1,1.149-4.88,6.456,6.456,0,0,1,5.532-2.352,37.182,37.182,0,0,1,6.215,1.1,2.088,2.088,0,0,0,2.032-.341,2.62,2.62,0,0,0,.105-2.337,16.232,16.232,0,0,0-2.459-5.863,8.827,8.827,0,0,0-5.633-3.171,13.516,13.516,0,0,0-6.288.714,16.859,16.859,0,0,0-8.259,5.753A13.655,13.655,0,0,0,275.9,384.19a12.455,12.455,0,0,0,4.617,7.872Z" transform="translate(-229.948 -267.12)" fill="#2f2e41"/>
    <path id="Path_1093" data-name="Path 1093" d="M579.764,697.05a21.482,21.482,0,0,1-7.973-33.389A21.483,21.483,0,1,0,601.014,694.7a21.47,21.47,0,0,1-21.25,2.347Z" transform="translate(-383.223 -425.119)" fill="#3f3d56"/>
  </g>
</svg>
