<svg id="Playlist_sign" data-name="Playlist sign" xmlns="http://www.w3.org/2000/svg" width="40" height="40" viewBox="0 0 40 40">
  <circle id="Эллипс_9" data-name="Эллипс 9" cx="20" cy="20" r="20" fill="#3b405c" opacity="0.495"/>
  <path id="Объединение_11" data-name="Объединение 11" d="M6,12.5a1,1,0,0,1-1-1V1A1,1,0,0,1,6,0H21.5a1,1,0,0,1,1,1V11.5a1,1,0,0,1-1,1Zm17.75-1.875V1.875a.625.625,0,1,1,1.25,0v8.75a.625.625,0,0,1-1.25,0Zm-21.25,0V1.875a.625.625,0,1,1,1.25,0v8.75a.625.625,0,0,1-1.25,0Zm23.75-1.25V3.125a.625.625,0,1,1,1.25,0v6.25a.625.625,0,1,1-1.25,0ZM0,9.374V3.125a.625.625,0,1,1,1.25,0v6.25a.625.625,0,1,1-1.25,0Z" transform="translate(6.25 13.75)" fill="#fff"/>
</svg>
