<svg xmlns="http://www.w3.org/2000/svg" width="40" height="40" viewBox="0 0 40 40">
  <g id="Search" transform="translate(-0.085)">
    <rect id="Прямоугольник_382" data-name="Прямоугольник 382" width="40" height="40" transform="translate(0.085)" fill="none"/>
    <g id="Объединение_5" data-name="Объединение 5" transform="translate(10.085 10)" fill="none">
      <path d="M17.641,19.645l-4.214-4.214a8.5,8.5,0,1,1,2-2l4.214,4.214a1,1,0,0,1,0,1.415l-.59.59a1,1,0,0,1-1.415,0Z" stroke="none"/>
      <path d="M 8.501399993896484 15.00280475616455 C 9.861830711364746 15.00280475616455 11.16392040252686 14.58764553070068 12.26690006256104 13.80219554901123 L 13.16361999511719 13.16362476348877 L 13.80219078063965 12.26690483093262 C 14.5876407623291 11.16392517089844 15.00280094146729 9.861835479736328 15.00280094146729 8.501395225524902 C 15.00280094146729 4.916515350341797 12.08628082275391 2.00000524520874 8.501399993896484 2.00000524520874 C 4.916520595550537 2.00000524520874 2.000000476837158 4.916515350341797 2.000000476837158 8.501395225524902 C 2.000000476837158 12.08628559112549 4.916520595550537 15.00280475616455 8.501399993896484 15.00280475616455 M 18.34830093383789 19.93815612792969 C 18.09225082397461 19.93815612792969 17.83620071411133 19.84049606323242 17.64089965820313 19.64520454406738 L 13.42703056335449 15.43133544921875 C 12.03731060028076 16.42097473144531 10.33751010894775 17.00280570983887 8.501399993896484 17.00280570983887 C 3.806100368499756 17.00280570983887 4.669189479500346e-07 13.19670486450195 4.669189479500346e-07 8.501395225524902 C 4.669189479500346e-07 3.806105136871338 3.806100368499756 5.202941792958882e-06 8.501399993896484 5.202941792958882e-06 C 13.19670009613037 5.202941792958882e-06 17.00279998779297 3.806105136871338 17.00279998779297 8.501395225524902 C 17.00279998779297 10.33750534057617 16.42097091674805 12.03731536865234 15.43133068084717 13.42703533172607 L 19.64520072937012 17.64089584350586 C 20.03580093383789 18.03149604797363 20.03580093383789 18.66510581970215 19.64520072937012 19.05570602416992 L 19.05570030212402 19.64520454406738 C 18.86040115356445 19.84049606323242 18.60435104370117 19.93815612792969 18.34830093383789 19.93815612792969 Z" stroke="none" fill="#6d7188"/>
    </g>
  </g>
</svg>
