<svg xmlns="http://www.w3.org/2000/svg" width="14.897" height="14.897" viewBox="0 0 14.897 14.897">
  <g id="Объединение_5" data-name="Объединение 5" fill="none">
    <path d="M13.1,14.6l-3-3A6.4,6.4,0,1,1,11.609,10.1l3,3a1,1,0,0,1,0,1.414l-.094.094a1,1,0,0,1-1.414,0Z" stroke="none"/>
    <path d="M 6.395400524139404 10.79170513153076 C 7.315310478210449 10.79170513153076 8.195720672607422 10.51100540161133 8.941440582275391 9.979954719543457 L 9.54802131652832 9.547991752624512 L 9.979960441589355 8.941445350646973 C 10.51101016998291 8.195734977722168 10.79170036315918 7.315325260162354 10.79170036315918 6.395395278930664 C 10.79170036315918 3.971765041351318 8.819530487060547 2.000005006790161 6.395400524139404 2.000005006790161 C 3.971770286560059 2.000005006790161 2.000000238418579 3.971765041351318 2.000000238418579 6.395395278930664 C 2.000000238418579 8.819524765014648 3.971770286560059 10.79170513153076 6.395400524139404 10.79170513153076 M 13.80375003814697 14.89725494384766 C 13.54792022705078 14.89725494384766 13.29209995269775 14.79960536956787 13.09680080413818 14.60430526733398 L 10.10159015655518 11.60908508300781 C 9.055980682373047 12.35369491577148 7.776790142059326 12.79170513153076 6.395400524139404 12.79170513153076 C 2.863800287246704 12.79170513153076 3.517150730658614e-07 9.927905082702637 3.517150730658614e-07 6.395395278930664 C 3.517150730658614e-07 2.863805055618286 2.863800287246704 5.087737918074708e-06 6.395400524139404 5.087737918074708e-06 C 9.927900314331055 5.087737918074708e-06 12.79170036315918 2.863805055618286 12.79170036315918 6.395395278930664 C 12.79170036315918 7.776794910430908 12.35370063781738 9.055985450744629 11.60909080505371 10.10159492492676 L 14.6043004989624 13.09680461883545 C 14.99490070343018 13.48740482330322 14.99490070343018 14.12010478973389 14.6043004989624 14.51070499420166 L 14.51070022583008 14.60430526733398 C 14.31540012359619 14.79960536956787 14.05958080291748 14.89725494384766 13.80375003814697 14.89725494384766 Z" stroke="none" fill="#c0bfd3"/>
  </g>
</svg>
