<svg xmlns="http://www.w3.org/2000/svg" xmlns:xlink="http://www.w3.org/1999/xlink" width="120" height="120" viewBox="0 0 120 120">
  <defs>
    <linearGradient id="linear-gradient" x1="1" x2="0" y2="0.985" gradientUnits="objectBoundingBox">
      <stop offset="0" stop-color="#ce9ffc"/>
      <stop offset="1" stop-color="#7367f0"/>
    </linearGradient>
    <clipPath id="clip-iPhone_X_XS_11_Pro_1">
      <rect width="120" height="120"/>
    </clipPath>
  </defs>
  <g id="iPhone_X_XS_11_Pro_1" data-name="iPhone X/XS/11 Pro – 1" clip-path="url(#clip-iPhone_X_XS_11_Pro_1)">
    <g id="Color_background" data-name="Color background" transform="translate(-1913 -407.428)">
      <rect id="Фон" width="120" height="120" rx="12" transform="translate(1913 407.428)" fill="url(#linear-gradient)"/>
    </g>
    <path id="Path_1094" data-name="Path 1094" d="M29.856.96A51.268,51.268,0,0,1,14.832-1.248,31.355,31.355,0,0,1,3.36-7.1l4.32-9.7a34.031,34.031,0,0,0,10.128,5.328A36.827,36.827,0,0,0,29.856-9.408q7.488,0,11.184-2.4a7.271,7.271,0,0,0,3.7-6.336A6.135,6.135,0,0,0,42.672-22.9a14.49,14.49,0,0,0-5.232-2.928q-3.168-1.056-8.64-2.4a100.715,100.715,0,0,1-12.432-3.648,20.459,20.459,0,0,1-8.16-5.712Q4.8-41.472,4.8-48.1A17.931,17.931,0,0,1,7.824-58.224a20.461,20.461,0,0,1,9.12-7.248A36.948,36.948,0,0,1,31.872-68.16a48.216,48.216,0,0,1,12.1,1.536A33.435,33.435,0,0,1,54.24-62.208l-3.936,9.7a38.83,38.83,0,0,0-9.216-3.936,34.474,34.474,0,0,0-9.312-1.344q-7.392,0-10.992,2.5a7.7,7.7,0,0,0-3.6,6.624,5.989,5.989,0,0,0,2.064,4.7,14.912,14.912,0,0,0,5.232,2.88q3.168,1.056,8.64,2.4a90.919,90.919,0,0,1,12.288,3.6,21.044,21.044,0,0,1,8.208,5.712q3.408,3.84,3.408,10.368A17.7,17.7,0,0,1,54-8.928a20.57,20.57,0,0,1-9.168,7.2A37.3,37.3,0,0,1,29.856.96Z" transform="translate(30 94)" fill="#fff"/>
  </g>
</svg>
